Format_1452-Medium.ufo
<glyph name="exclam" format="2">
	<advance width="375"/>
	<unicode hex="0021"/>
	<outline>
		<contour>
			<point x="147" y="722" type="line"/>
			<point x="145" y="722" type="line"/>
			<point x="145" y="719" type="line"/>
			<point x="145" y="341" type="line"/>
			<point x="145" y="338" type="line"/>
			<point x="147" y="338" type="line"/>
			<point x="187" y="338" type="line"/>
			<point x="227" y="338" type="line"/>
			<point x="230" y="338" type="line"/>
			<point x="230" y="341" type="line"/>
			<point x="230" y="719" type="line"/>
			<point x="230" y="722" type="line"/>
			<point x="227" y="722" type="line"/>
		</contour>
		<component base="period" xOffset="-50"/>
	</outline>
</glyph>
<glyph name="quotedbl" format="2">
	<advance width="356"/>
	<unicode hex="0022"/>
	<outline>
		<contour>
			<point x="55" y="488" type="line"/>
			<point x="141" y="488" type="line"/>
			<point x="141" y="720" type="line"/>
			<point x="141" y="723" type="line"/>
			<point x="138" y="723" type="line"/>
			<point x="58" y="723" type="line"/>
			<point x="55" y="723" type="line"/>
			<point x="55" y="720" type="line"/>
		</contour>
		<contour>
			<point x="215" y="488" type="line"/>
			<point x="301" y="488" type="line"/>
			<point x="301" y="720" type="line"/>
			<point x="301" y="723" type="line"/>
			<point x="298" y="723" type="line"/>
			<point x="218" y="723" type="line"/>
			<point x="215" y="723" type="line"/>
			<point x="215" y="720" type="line"/>
		</contour>
	</outline>
</glyph>
<glyph name="numbersign" format="2">
	<advance width="600"/>
	<unicode hex="0023"/>
	<outline>
		<contour>
			<point x="259" y="722" type="line"/>
			<point x="49" y="4" type="line"/>
			<point x="52" y="3" type="line"/>
			<point x="52" y="0" type="line"/>
			<point x="132" y="0" type="line"/>
			<point x="132" y="3" type="line"/>
			<point x="135" y="2" type="line"/>
			<point x="343" y="719" type="line"/>
			<point x="340" y="721" type="line"/>
			<point x="340" y="723" type="line"/>
			<point x="261" y="723" type="line"/>
			<point x="261" y="721" type="line"/>
		</contour>
		<contour>
			<point x="479" y="722" type="line"/>
			<point x="269" y="4" type="line"/>
			<point x="272" y="3" type="line"/>
			<point x="272" y="0" type="line"/>
			<point x="352" y="0" type="line"/>
			<point x="352" y="3" type="line"/>
			<point x="355" y="2" type="line"/>
			<point x="563" y="719" type="line"/>
			<point x="560" y="721" type="line"/>
			<point x="560" y="723" type="line"/>
			<point x="481" y="723" type="line"/>
			<point x="481" y="721" type="line"/>
		</contour>
		<contour>
			<point x="52" y="513" type="line"/>
			<point x="37" y="427" type="line"/>
			<point x="592" y="427" type="line"/>
			<point x="607" y="513" type="line"/>
		</contour>
		<contour>
			<point x="15" y="300" type="line"/>
			<point x="0" y="214" type="line"/>
			<point x="555" y="214" type="line"/>
			<point x="570" y="300" type="line"/>
		</contour>
	</outline>
</glyph>
<glyph name="dollar" format="2">
	<advance width="500"/>
	<unicode hex="0024"/>
	<outline>
		<contour>
			<point x="206" y="158" type="line"/>
			<point x="206" y="1" type="line"/>
			<point x="292" y="1" type="line"/>
			<point x="292" y="158" type="line"/>
		</contour>
		<contour>
			<point x="206" y="723" type="line"/>
			<point x="206" y="566" type="line"/>
			<point x="292" y="566" type="line"/>
			<point x="292" y="723" type="line"/>
		</contour>
		<component base="s" yOffset="102"/>
	</outline>
</glyph>
<glyph name="percent" format="2">
	<advance width="643"/>
	<unicode hex="0025"/>
	<outline>
		<contour>
			<point x="439" y="722" type="line"/>
			<point x="119" y="4" type="line"/>
			<point x="122" y="3" type="line"/>
			<point x="122" y="0" type="line"/>
			<point x="202" y="0" type="line"/>
			<point x="202" y="3" type="line"/>
			<point x="205" y="2" type="line"/>
			<point x="523" y="719" type="line"/>
			<point x="520" y="721" type="line"/>
			<point x="520" y="723" type="line"/>
			<point x="441" y="723" type="line"/>
			<point x="441" y="721" type="line"/>
		</contour>
		<component base="period" xOffset="-50" yOffset="448"/>
		<component base="period" xOffset="218"/>
	</outline>
</glyph>
<glyph name="ampersand" format="2">
	<advance width="532"/>
	<unicode hex="0026"/>
	<outline>
		<contour>
			<point x="392" y="245" type="line"/>
			<point x="306" y="245" type="line"/>
			<point x="306" y="86" type="line"/>
			<point x="230" y="86" type="line" smooth="yes"/>
			<point x="229" y="86"/>
			<point x="228" y="85"/>
			<point x="227" y="86" type="curve" smooth="yes"/>
			<point x="164" y="87"/>
			<point x="113" y="139"/>
			<point x="113" y="202" type="curve" smooth="yes"/>
			<point x="113" y="267"/>
			<point x="165" y="320"/>
			<point x="230" y="320" type="curve" smooth="yes"/>
			<point x="270" y="320" type="line"/>
			<point x="249" y="320" type="line"/>
			<point x="487" y="320" type="line"/>
			<point x="487" y="405" type="line"/>
			<point x="270" y="405" type="line" smooth="yes"/>
			<point x="206" y="405"/>
			<point x="153" y="457"/>
			<point x="153" y="521" type="curve" smooth="yes"/>
			<point x="153" y="586"/>
			<point x="206" y="638"/>
			<point x="270" y="638" type="curve" smooth="yes"/>
			<point x="329" y="638" type="line"/>
			<point x="414" y="638" type="line"/>
			<point x="414" y="723" type="line"/>
			<point x="270" y="723" type="line" smooth="yes"/>
			<point x="158" y="723"/>
			<point x="68" y="633"/>
			<point x="68" y="521" type="curve" smooth="yes"/>
			<point x="68" y="465"/>
			<point x="91" y="414"/>
			<point x="128" y="377" type="curve"/>
			<point x="68" y="342"/>
			<point x="28" y="276"/>
			<point x="28" y="202" type="curve" smooth="yes"/>
			<point x="28" y="92"/>
			<point x="117" y="2"/>
			<point x="227" y="0" type="curve" smooth="yes"/>
			<point x="228" y="0"/>
			<point x="229" y="0"/>
			<point x="230" y="0" type="curve" smooth="yes"/>
			<point x="310" y="0" type="line"/>
			<point x="306" y="0" type="line"/>
			<point x="309" y="0" type="line"/>
			<point x="312" y="0" type="line"/>
			<point x="349" y="0" type="line"/>
			<point x="389" y="0" type="line"/>
			<point x="392" y="0" type="line"/>
			<point x="392" y="3" type="line"/>
		</contour>
		<contour>
			<point x="306" y="245" type="line"/>
			<point x="392" y="245" type="line"/>
			<point x="392" y="483" type="line"/>
			<point x="306" y="483" type="line"/>
		</contour>
	</outline>
</glyph>
<glyph name="quotesingle" format="2">
	<advance width="264"/>
	<unicode hex="0027"/>
	<note>
		quotesingle
  </note>
	<outline>
		<contour>
			<point x="232" y="723" type="line"/>
			<point x="152" y="723" type="line"/>
			<point x="152" y="720" type="line"/>
			<point x="149" y="720" type="line"/>
			<point x="149" y="656"/>
			<point x="97" y="604"/>
			<point x="32" y="604" type="curve"/>
			<point x="32" y="601" type="line"/>
			<point x="30" y="601" type="line"/>
			<point x="30" y="521" type="line"/>
			<point x="32" y="521" type="line"/>
			<point x="32" y="518" type="line"/>
			<point x="144" y="518"/>
			<point x="234" y="608"/>
			<point x="234" y="720" type="curve"/>
			<point x="232" y="720" type="line"/>
		</contour>
	</outline>
</glyph>
<glyph name="parenleft" format="2">
	<advance width="342"/>
	<unicode hex="0028"/>
	<outline>
		<contour>
			<point x="272" y="783" type="line"/>
			<point x="269" y="783" type="line" smooth="yes"/>
			<point x="160" y="783"/>
			<point x="70" y="694"/>
			<point x="70" y="584" type="curve" smooth="yes"/>
			<point x="70" y="581" type="line"/>
			<point x="70" y="142" type="line"/>
			<point x="70" y="139" type="line" smooth="yes"/>
			<point x="70" y="30"/>
			<point x="161" y="-60"/>
			<point x="272" y="-60" type="curve"/>
			<point x="272" y="26" type="line"/>
			<point x="207" y="26"/>
			<point x="156" y="78"/>
			<point x="156" y="142" type="curve" smooth="yes"/>
			<point x="156" y="581" type="line"/>
			<point x="156" y="584" type="line" smooth="yes"/>
			<point x="156" y="647"/>
			<point x="207" y="698"/>
			<point x="269" y="698" type="curve" smooth="yes"/>
			<point x="272" y="698" type="line"/>
		</contour>
	</outline>
</glyph>
<glyph name="asterisk" format="2">
	<advance width="441"/>
	<unicode hex="002A"/>
	<outline>
		<contour>
			<point x="391" y="565" type="line"/>
			<point x="371" y="642" type="line"/>
			<point x="261" y="612" type="line"/>
			<point x="261" y="722" type="line"/>
			<point x="180" y="722" type="line"/>
			<point x="180" y="612" type="line"/>
			<point x="70" y="643" type="line"/>
			<point x="50" y="566" type="line"/>
			<point x="150" y="536" type="line"/>
			<point x="93" y="443" type="line"/>
			<point x="165" y="405" type="line"/>
			<point x="221" y="504" type="line"/>
			<point x="276" y="405" type="line"/>
			<point x="348" y="443" type="line"/>
			<point x="291" y="536" type="line"/>
		</contour>
	</outline>
</glyph>
<glyph name="hyphen" format="2">
	<advance width="455"/>
	<unicode hex="002D"/>
	<outline>
		<contour>
			<point x="93" y="323" type="line"/>
			<point x="90" y="323" type="line"/>
			<point x="90" y="320" type="line"/>
			<point x="90" y="240" type="line"/>
			<point x="90" y="238" type="line"/>
			<point x="93" y="238" type="line"/>
			<point x="363" y="238" type="line"/>
			<point x="365" y="238" type="line"/>
			<point x="365" y="240" type="line"/>
			<point x="365" y="320" type="line"/>
			<point x="365" y="323" type="line"/>
			<point x="363" y="323" type="line"/>
		</contour>
	</outline>
</glyph>
<glyph name="period" format="2">
	<advance width="475"/>
	<unicode hex="002E"/>
	<outline>
		<contour>
			<point x="237" y="275" type="curve" smooth="yes"/>
			<point x="162" y="275"/>
			<point x="100" y="213"/>
			<point x="100" y="137" type="curve" smooth="yes"/>
			<point x="100" y="61"/>
			<point x="162" y="0"/>
			<point x="237" y="0" type="curve" smooth="yes"/>
			<point x="313" y="0"/>
			<point x="375" y="61"/>
			<point x="375" y="137" type="curve" smooth="yes"/>
			<point x="375" y="213"/>
			<point x="313" y="275"/>
		</contour>
		<contour>
			<point x="237" y="189" type="curve" smooth="yes"/>
			<point x="265" y="189"/>
			<point x="289" y="165"/>
			<point x="289" y="137" type="curve" smooth="yes"/>
			<point x="289" y="109"/>
			<point x="265" y="86"/>
			<point x="237" y="86" type="curve" smooth="yes"/>
			<point x="209" y="86"/>
			<point x="185" y="109"/>
			<point x="185" y="137" type="curve" smooth="yes"/>
			<point x="185" y="165"/>
			<point x="209" y="189"/>
		</contour>
	</outline>
</glyph>
<glyph name="slash" format="2">
	<advance width="347"/>
	<unicode hex="002F"/>
	<outline>
		<contour>
			<point x="243" y="799" type="line"/>
			<point x="30" y="-155" type="line"/>
			<point x="33" y="-156" type="line"/>
			<point x="33" y="-159" type="line"/>
			<point x="108" y="-159" type="line"/>
			<point x="108" y="-156" type="line"/>
			<point x="111" y="-157" type="line"/>
			<point x="322" y="796" type="line"/>
			<point x="319" y="798" type="line"/>
			<point x="319" y="800" type="line"/>
			<point x="245" y="800" type="line"/>
			<point x="245" y="798" type="line"/>
		</contour>
	</outline>
</glyph>
<glyph name="zero" format="2">
	<advance width="500"/>
	<unicode hex="0030"/>
	<note>
		zero
  </note>
	<outline>
		<contour>
			<point x="250" y="723" type="curve" smooth="yes"/>
			<point x="138" y="723"/>
			<point x="48" y="632"/>
			<point x="48" y="521" type="curve" smooth="yes"/>
			<point x="48" y="202" type="line"/>
			<point x="48" y="199" type="line" smooth="yes"/>
			<point x="49" y="157"/>
			<point x="62" y="118"/>
			<point x="85" y="86" type="curve"/>
			<point x="48" y="4" type="line"/>
			<point x="51" y="3" type="line"/>
			<point x="51" y="0" type="line"/>
			<point x="131" y="0" type="line"/>
			<point x="131" y="3" type="line"/>
			<point x="134" y="2" type="line"/>
			<point x="146" y="29" type="line"/>
			<point x="176" y="11"/>
			<point x="212" y="0"/>
			<point x="249.99" y="0.02" type="curve" smooth="yes"/>
			<point x="361.75" y="0.02"/>
			<point x="451.93" y="90.2"/>
			<point x="451.93" y="201.96" type="curve" smooth="yes"/>
			<point x="451.93" y="521.46" type="line" smooth="yes"/>
			<point x="452" y="564"/>
			<point x="438" y="604"/>
			<point x="415" y="637" type="curve"/>
			<point x="452" y="719" type="line"/>
			<point x="449" y="721" type="line"/>
			<point x="449" y="723" type="line"/>
			<point x="370" y="723" type="line"/>
			<point x="370" y="721" type="line"/>
			<point x="368" y="722" type="line"/>
			<point x="355" y="694" type="line"/>
			<point x="325" y="712"/>
			<point x="289" y="723"/>
		</contour>
		<contour>
			<point x="250" y="638" type="curve" smooth="yes"/>
			<point x="276" y="638"/>
			<point x="301" y="629"/>
			<point x="320" y="615" type="curve"/>
			<point x="134" y="196" type="line"/>
			<point x="134" y="198"/>
			<point x="134" y="200"/>
			<point x="134" y="202" type="curve" smooth="yes"/>
			<point x="134" y="521" type="line"/>
			<point x="134" y="524" type="line" smooth="yes"/>
			<point x="135" y="587"/>
			<point x="187" y="638"/>
		</contour>
		<contour>
			<point x="181" y="109" type="curve"/>
			<point x="367" y="529" type="line"/>
			<point x="367" y="527"/>
			<point x="368" y="524"/>
			<point x="368" y="521" type="curve" smooth="yes"/>
			<point x="368" y="202" type="line"/>
			<point x="368" y="199" type="line" smooth="yes"/>
			<point x="366" y="136"/>
			<point x="314" y="86"/>
			<point x="250" y="86" type="curve" smooth="yes"/>
			<point x="224" y="86"/>
			<point x="200" y="94"/>
		</contour>
	</outline>
</glyph>
<glyph name="one" format="2">
	<advance width="350"/>
	<unicode hex="0031"/>
	<note>
		one
  </note>
	<outline>
		<contour>
			<point x="214.8" y="723.37" type="line"/>
			<point x="211.98" y="723.38" type="line"/>
			<point x="211.98" y="721.13" type="line"/>
			<point x="52.51" y="442.69" type="line"/>
			<point x="55.04" y="441.28" type="line"/>
			<point x="55.04" y="438.75" type="line"/>
			<point x="134.92" y="438.75" type="line"/>
			<point x="134.92" y="441.28" type="line"/>
			<point x="137.45" y="439.87" type="line"/>
			<point x="211.98" y="570.09" type="line"/>
			<point x="211.98" y="2.81" type="line"/>
			<point x="211.98" y="0" type="line"/>
			<point x="214.79" y="0" type="line"/>
			<point x="254.17" y="0" type="line"/>
			<point x="294.67" y="0" type="line"/>
			<point x="297.48" y="0" type="line"/>
			<point x="297.48" y="2.81" type="line"/>
			<point x="297.48" y="720.56" type="line"/>
			<point x="297.48" y="723.37" type="line"/>
			<point x="294.67" y="723.37" type="line"/>
		</contour>
	</outline>
</glyph>
<glyph name="two" format="2">
	<advance width="500"/>
	<unicode hex="0032"/>
	<note>
		two
  </note>
	<outline>
		<contour>
			<point x="184" y="86" type="line"/>
			<point x="452" y="520" type="line"/>
			<point x="453" y="521" type="line"/>
			<point x="453" y="632"/>
			<point x="361" y="723"/>
			<point x="251" y="723" type="curve" smooth="yes"/>
			<point x="139" y="723"/>
			<point x="48" y="632"/>
			<point x="48" y="521" type="curve"/>
			<point x="50" y="521" type="line"/>
			<point x="50" y="519" type="line"/>
			<point x="130" y="519" type="line"/>
			<point x="130" y="521" type="line"/>
			<point x="133" y="521" type="line"/>
			<point x="133" y="585"/>
			<point x="186" y="638"/>
			<point x="251" y="638" type="curve" smooth="yes"/>
			<point x="314" y="638"/>
			<point x="366" y="586"/>
			<point x="367" y="523" type="curve"/>
			<point x="48" y="5" type="line"/>
			<point x="50" y="3" type="line"/>
			<point x="50" y="0" type="line"/>
			<point x="127" y="0" type="line"/>
			<point x="130" y="0" type="line"/>
			<point x="290" y="0" type="line"/>
			<point x="450" y="0" type="line"/>
			<point x="452" y="0" type="line"/>
			<point x="452" y="3" type="line"/>
			<point x="452" y="83" type="line"/>
			<point x="452" y="86" type="line"/>
			<point x="450" y="86" type="line"/>
		</contour>
	</outline>
</glyph>
<glyph name="three" format="2">
	<advance width="500"/>
	<unicode hex="0033"/>
	<note>
		three
  </note>
	<outline>
		<contour>
			<point x="89" y="723" type="line"/>
			<point x="89" y="638" type="line"/>
			<point x="315" y="638" type="line"/>
			<point x="167" y="404" type="line"/>
			<point x="167" y="318" type="line"/>
			<point x="250" y="318" type="line" smooth="yes"/>
			<point x="315" y="318"/>
			<point x="367" y="267"/>
			<point x="367" y="202" type="curve" smooth="yes"/>
			<point x="367" y="137"/>
			<point x="315" y="86"/>
			<point x="250" y="86" type="curve" smooth="yes"/>
			<point x="186" y="86"/>
			<point x="134" y="137"/>
			<point x="134" y="202" type="curve"/>
			<point x="134" y="205" type="line"/>
			<point x="48" y="205" type="line"/>
			<point x="48" y="202" type="line"/>
			<point x="48" y="90"/>
			<point x="138" y="0"/>
			<point x="250" y="0" type="curve" smooth="yes"/>
			<point x="362" y="0"/>
			<point x="452" y="90"/>
			<point x="452" y="202" type="curve" smooth="yes"/>
			<point x="452" y="311"/>
			<point x="366" y="400"/>
			<point x="257" y="404" type="curve" smooth="yes"/>
			<point x="255" y="404" type="line"/>
			<point x="453" y="723" type="line"/>
		</contour>
	</outline>
</glyph>
<glyph name="four" format="2">
	<advance width="500"/>
	<unicode hex="0034"/>
	<note>
		four
  </note>
	<outline>
		<contour>
			<point x="330.31" y="723.38" type="line"/>
			<point x="327.48" y="723.38" type="line"/>
			<point x="327.48" y="720.57" type="line"/>
			<point x="327.48" y="324.01" type="line"/>
			<point x="126.67" y="324.01" type="line"/>
			<point x="252.95" y="639.57" type="line"/>
			<point x="250.42" y="640.7" type="line"/>
			<point x="250.42" y="643.51" type="line"/>
			<point x="170.55" y="643.51" type="line"/>
			<point x="170.55" y="640.7" type="line"/>
			<point x="167.74" y="641.82" type="line"/>
			<point x="8.27" y="242.45" type="line"/>
			<point x="10.8" y="241.32" type="line"/>
			<point x="10.8" y="238.51" type="line"/>
			<point x="87.86" y="238.51" type="line"/>
			<point x="90.67" y="238.51" type="line"/>
			<point x="289.8" y="238.51" type="line"/>
			<point x="327.49" y="238.51" type="line"/>
			<point x="327.49" y="2.82" type="line"/>
			<point x="327.49" y="0.01" type="line"/>
			<point x="330.3" y="0.01" type="line"/>
			<point x="369.68" y="0.01" type="line"/>
			<point x="410.18" y="0.01" type="line"/>
			<point x="412.99" y="0.01" type="line"/>
			<point x="412.99" y="2.82" type="line"/>
			<point x="412.99" y="238.51" type="line"/>
			<point x="488.93" y="238.51" type="line"/>
			<point x="491.74" y="238.51" type="line"/>
			<point x="491.74" y="241.32" type="line"/>
			<point x="491.74" y="321.2" type="line"/>
			<point x="491.74" y="324.01" type="line"/>
			<point x="488.93" y="324.01" type="line"/>
			<point x="412.99" y="324.01" type="line"/>
			<point x="412.99" y="720.57" type="line"/>
			<point x="412.99" y="723.38" type="line"/>
			<point x="410.18" y="723.38" type="line"/>
		</contour>
	</outline>
</glyph>
<glyph name="five" format="2">
	<advance width="500"/>
	<unicode hex="0035"/>
	<note>
		five
  </note>
	<outline>
		<contour>
			<point x="412" y="723" type="line"/>
			<point x="88" y="723" type="line"/>
			<point x="88" y="318" type="line"/>
			<point x="253.37" y="318.4" type="line" smooth="yes"/>
			<point x="315.82" y="316.91"/>
			<point x="367" y="265.85"/>
			<point x="367" y="201.96" type="curve" smooth="yes"/>
			<point x="367" y="137"/>
			<point x="314" y="86"/>
			<point x="251" y="86" type="curve" smooth="yes"/>
			<point x="187" y="86"/>
			<point x="133" y="135"/>
			<point x="133" y="205" type="curve"/>
			<point x="48" y="205" type="line"/>
			<point x="47" y="88"/>
			<point x="139" y="0"/>
			<point x="251" y="0" type="curve" smooth="yes"/>
			<point x="361" y="0"/>
			<point x="453" y="90"/>
			<point x="453" y="202" type="curve" smooth="yes"/>
			<point x="453" y="313"/>
			<point x="363" y="402"/>
			<point x="253.38" y="403.9" type="curve" smooth="yes"/>
			<point x="174" y="404" type="line"/>
			<point x="174" y="638" type="line"/>
			<point x="412" y="638" type="line"/>
		</contour>
	</outline>
</glyph>
<glyph name="six" format="2">
	<advance width="500"/>
	<unicode hex="0036"/>
	<note>
		six
  </note>
	<outline>
		<contour>
			<point x="250" y="723.38" type="curve" smooth="yes"/>
			<point x="139.16" y="723.38"/>
			<point x="49.57" y="633.64"/>
			<point x="48.06" y="524.26" type="curve" smooth="yes"/>
			<point x="48.06" y="521.45" type="line"/>
			<point x="48.06" y="201.95" type="line"/>
			<point x="48.06" y="199.14" type="line" smooth="yes"/>
			<point x="49.56" y="88.69"/>
			<point x="139.18" y="0.01"/>
			<point x="250" y="0.01" type="curve" smooth="yes"/>
			<point x="361.76" y="0.01"/>
			<point x="451.94" y="90.19"/>
			<point x="451.94" y="201.95" type="curve" smooth="yes"/>
			<point x="451.94" y="241.32" type="line"/>
			<point x="451.94" y="244.13" type="line" smooth="yes"/>
			<point x="450.43" y="354.6"/>
			<point x="360.84" y="444.38"/>
			<point x="250" y="444.38" type="curve" smooth="yes"/>
			<point x="206.56" y="444.38"/>
			<point x="166.43" y="430.35"/>
			<point x="133.56" y="406.97" type="curve"/>
			<point x="133.56" y="521.44" type="line"/>
			<point x="133.56" y="524.25" type="line" smooth="yes"/>
			<point x="135.06" y="586.71"/>
			<point x="186.11" y="637.88"/>
			<point x="250" y="637.88" type="curve" smooth="yes"/>
			<point x="314.85" y="637.88"/>
			<point x="366.44" y="585.17"/>
			<point x="366.44" y="521.44" type="curve"/>
			<point x="369.25" y="521.44" type="line"/>
			<point x="369.25" y="518.63" type="line"/>
			<point x="449.13" y="518.63" type="line"/>
			<point x="449.13" y="521.44" type="line"/>
			<point x="451.94" y="521.44" type="line"/>
			<point x="451.94" y="632.09"/>
			<point x="361.78" y="723.38"/>
		</contour>
		<contour>
			<point x="250" y="358.88" type="curve" smooth="yes"/>
			<point x="314.85" y="358.88"/>
			<point x="366.44" y="306.2"/>
			<point x="366.44" y="241.32" type="curve" smooth="yes"/>
			<point x="366.44" y="201.95" type="line" smooth="yes"/>
			<point x="366.44" y="137.07"/>
			<point x="314.88" y="85.51"/>
			<point x="250" y="85.51" type="curve" smooth="yes"/>
			<point x="185.12" y="85.51"/>
			<point x="133.56" y="137.07"/>
			<point x="133.56" y="201.95" type="curve" smooth="yes"/>
			<point x="133.56" y="241.32" type="line" smooth="yes"/>
			<point x="133.56" y="306.2"/>
			<point x="185.15" y="358.88"/>
		</contour>
	</outline>
</glyph>
<glyph name="seven" format="2">
	<advance width="500"/>
	<unicode hex="0037"/>
	<note>
		seven
  </note>
	<outline>
		<contour>
			<point x="46" y="0" type="line"/>
			<point x="142" y="0" type="line"/>
			<point x="454" y="723" type="line"/>
			<point x="48" y="723" type="line"/>
			<point x="48" y="637" type="line"/>
			<point x="320" y="637" type="line"/>
		</contour>
	</outline>
</glyph>
<glyph name="eight" format="2">
	<advance width="500"/>
	<unicode hex="0038"/>
	<note>
		eight
  </note>
	<outline>
		<contour>
			<point x="250.56" y="723.38" type="curve" smooth="yes"/>
			<point x="138.78" y="723.38"/>
			<point x="47.5" y="632.11"/>
			<point x="47.5" y="521.44" type="curve" smooth="yes"/>
			<point x="47.5" y="456.52"/>
			<point x="78.31" y="398.67"/>
			<point x="125.97" y="361.41" type="curve"/>
			<point x="78.28" y="324.55"/>
			<point x="47.5" y="266.88"/>
			<point x="47.5" y="201.94" type="curve" smooth="yes"/>
			<point x="47.5" y="90.16"/>
			<point x="138.8" y="0"/>
			<point x="250.56" y="0" type="curve" smooth="yes"/>
			<point x="361.22" y="0"/>
			<point x="452.5" y="90.16"/>
			<point x="452.5" y="201.94" type="curve" smooth="yes"/>
			<point x="452.5" y="266.88"/>
			<point x="421.62" y="324.55"/>
			<point x="374.03" y="361.41" type="curve"/>
			<point x="421.58" y="398.68"/>
			<point x="452.5" y="456.53"/>
			<point x="452.5" y="521.44" type="curve" smooth="yes"/>
			<point x="452.5" y="632.11"/>
			<point x="361.23" y="723.38"/>
		</contour>
		<contour>
			<point x="250.56" y="637.88" type="curve" smooth="yes"/>
			<point x="314.25" y="637.88"/>
			<point x="367" y="585.14"/>
			<point x="367" y="521.44" type="curve" smooth="yes"/>
			<point x="367" y="456.59"/>
			<point x="314.26" y="403.88"/>
			<point x="250.56" y="403.88" type="curve" smooth="yes"/>
			<point x="185.72" y="403.88"/>
			<point x="133" y="456.6"/>
			<point x="133" y="521.44" type="curve" smooth="yes"/>
			<point x="133" y="585.13"/>
			<point x="185.72" y="637.88"/>
		</contour>
		<contour>
			<point x="250.56" y="318.38" type="curve" smooth="yes"/>
			<point x="314.29" y="318.38"/>
			<point x="367" y="266.79"/>
			<point x="367" y="201.94" type="curve" smooth="yes"/>
			<point x="367" y="137.09"/>
			<point x="314.29" y="85.5"/>
			<point x="250.56" y="85.5" type="curve" smooth="yes"/>
			<point x="185.68" y="85.5"/>
			<point x="133" y="137.09"/>
			<point x="133" y="201.94" type="curve" smooth="yes"/>
			<point x="133" y="266.78"/>
			<point x="185.68" y="318.38"/>
		</contour>
	</outline>
</glyph>
<glyph name="nine" format="2">
	<advance width="500"/>
	<unicode hex="0039"/>
	<note>
		nine
  </note>
	<outline>
		<contour>
			<point x="250.01" y="723.4" type="curve" smooth="yes"/>
			<point x="139.16" y="723.38"/>
			<point x="49.57" y="633.64"/>
			<point x="48.06" y="524.26" type="curve" smooth="yes"/>
			<point x="48.06" y="521.45" type="line"/>
			<point x="48.06" y="480.95" type="line"/>
			<point x="48.06" y="478.14" type="line" smooth="yes"/>
			<point x="49.52" y="367.65"/>
			<point x="139.15" y="279.02"/>
			<point x="250" y="279.02" type="curve" smooth="yes"/>
			<point x="293.44" y="279.02"/>
			<point x="333.51" y="292.68"/>
			<point x="366.44" y="315.86" type="curve"/>
			<point x="366.44" y="201.95" type="line"/>
			<point x="366.44" y="199.14" type="line" smooth="yes"/>
			<point x="364.9" y="135.65"/>
			<point x="312.78" y="85.52"/>
			<point x="250" y="85.52" type="curve" smooth="yes"/>
			<point x="185.12" y="85.52"/>
			<point x="132.44" y="137.11"/>
			<point x="132.44" y="201.96" type="curve"/>
			<point x="129.63" y="201.96" type="line"/>
			<point x="129.63" y="204.77" type="line"/>
			<point x="50.88" y="204.77" type="line"/>
			<point x="50.88" y="201.96" type="line"/>
			<point x="48.07" y="201.96" type="line"/>
			<point x="48.07" y="90.2"/>
			<point x="138.25" y="0.02"/>
			<point x="250.01" y="0.02" type="curve" smooth="yes"/>
			<point x="361.77" y="0.02"/>
			<point x="451.95" y="90.2"/>
			<point x="451.95" y="201.96" type="curve" smooth="yes"/>
			<point x="451.95" y="521.46" type="line" smooth="yes"/>
			<point x="451.95" y="522.39"/>
			<point x="451.96" y="523.34"/>
			<point x="451.95" y="524.27" type="curve" smooth="yes"/>
			<point x="450.44" y="633.66"/>
			<point x="360.85" y="723.4"/>
		</contour>
		<contour>
			<point x="250.01" y="637.9" type="curve" smooth="yes"/>
			<point x="313.7" y="637.9"/>
			<point x="366.45" y="585.16"/>
			<point x="366.45" y="521.46" type="curve" smooth="yes"/>
			<point x="366.45" y="480.96" type="line" smooth="yes"/>
			<point x="366.45" y="416.11"/>
			<point x="313.74" y="364.52"/>
			<point x="250.01" y="364.52" type="curve" smooth="yes"/>
			<point x="185.13" y="364.52"/>
			<point x="132.45" y="416.11"/>
			<point x="132.45" y="480.96" type="curve" smooth="yes"/>
			<point x="132.45" y="521.46" type="line"/>
			<point x="132.45" y="524.27" type="line" smooth="yes"/>
			<point x="133.98" y="586.69"/>
			<point x="186.12" y="637.9"/>
		</contour>
		<contour>
			<point x="126.82" y="518.65" type="line"/>
			<point x="126.82" y="518.65" type="line"/>
		</contour>
		<contour>
			<point x="53.7" y="518.65" type="line"/>
			<point x="53.7" y="518.65" type="line"/>
		</contour>
	</outline>
</glyph>
<glyph name="colon" format="2">
	<advance width="601"/>
	<unicode hex="003A"/>
	<outline>
		<contour>
			<point x="235" y="275" type="curve" smooth="yes"/>
			<point x="160" y="275"/>
			<point x="98" y="213"/>
			<point x="98" y="137" type="curve" smooth="yes"/>
			<point x="98" y="61"/>
			<point x="160" y="0"/>
			<point x="235" y="0" type="curve" smooth="yes"/>
			<point x="311" y="0"/>
			<point x="373" y="61"/>
			<point x="373" y="137" type="curve" smooth="yes"/>
			<point x="373" y="213"/>
			<point x="311" y="275"/>
		</contour>
		<contour>
			<point x="235" y="195" type="curve" smooth="yes"/>
			<point x="267" y="195"/>
			<point x="293" y="169"/>
			<point x="293" y="137" type="curve" smooth="yes"/>
			<point x="293" y="105"/>
			<point x="267" y="80"/>
			<point x="235" y="80" type="curve" smooth="yes"/>
			<point x="204" y="80"/>
			<point x="177" y="105"/>
			<point x="177" y="137" type="curve" smooth="yes"/>
			<point x="177" y="169"/>
			<point x="204" y="195"/>
		</contour>
		<contour>
			<point x="235" y="470" type="curve" smooth="yes"/>
			<point x="160" y="470"/>
			<point x="98" y="408"/>
			<point x="98" y="332" type="curve" smooth="yes"/>
			<point x="98" y="256"/>
			<point x="160" y="195"/>
			<point x="235" y="195" type="curve" smooth="yes"/>
			<point x="311" y="195"/>
			<point x="373" y="256"/>
			<point x="373" y="332" type="curve" smooth="yes"/>
			<point x="373" y="408"/>
			<point x="311" y="470"/>
		</contour>
		<contour>
			<point x="235" y="390" type="curve" smooth="yes"/>
			<point x="267" y="390"/>
			<point x="293" y="364"/>
			<point x="293" y="332" type="curve" smooth="yes"/>
			<point x="293" y="300"/>
			<point x="267" y="275"/>
			<point x="235" y="275" type="curve" smooth="yes"/>
			<point x="204" y="275"/>
			<point x="177" y="300"/>
			<point x="177" y="332" type="curve" smooth="yes"/>
			<point x="177" y="364"/>
			<point x="204" y="390"/>
		</contour>
	</outline>
</glyph>
<glyph name="question" format="2">
	<advance width="500"/>
	<unicode hex="003F"/>
	<outline>
		<contour>
			<point x="169" y="319" type="line"/>
			<point x="255" y="319" type="line"/>
			<point x="257" y="319" type="line" smooth="yes"/>
			<point x="366" y="323"/>
			<point x="452" y="412"/>
			<point x="452" y="521" type="curve" smooth="yes"/>
			<point x="452" y="633"/>
			<point x="362" y="723"/>
			<point x="250" y="723" type="curve" smooth="yes"/>
			<point x="138" y="723"/>
			<point x="48" y="633"/>
			<point x="48" y="521" type="curve"/>
			<point x="51" y="521" type="line"/>
			<point x="51" y="518" type="line"/>
			<point x="131" y="518" type="line"/>
			<point x="131" y="521" type="line"/>
			<point x="134" y="521" type="line"/>
			<point x="134" y="586"/>
			<point x="186" y="637"/>
			<point x="250" y="637" type="curve" smooth="yes"/>
			<point x="315" y="637"/>
			<point x="367" y="586"/>
			<point x="367" y="521" type="curve" smooth="yes"/>
			<point x="367" y="456"/>
			<point x="315" y="405"/>
			<point x="250" y="405" type="curve" smooth="yes"/>
			<point x="231" y="405" type="line"/>
			<point x="170" y="405" type="line"/>
			<point x="167" y="405" type="line"/>
			<point x="167" y="402" type="line"/>
			<point x="167" y="322" type="line"/>
			<point x="167" y="319" type="line"/>
		</contour>
		<component base="period"/>
	</outline>
</glyph>
<glyph name="at" format="2">
	<advance width="757"/>
	<unicode hex="0040"/>
	<outline>
		<contour>
			<point x="397" y="0" type="curve" smooth="yes"/>
			<point x="497" y="0"/>
			<point x="579" y="82"/>
			<point x="579" y="184" type="curve" smooth="yes"/>
			<point x="579" y="282"/>
			<point x="497" y="365"/>
			<point x="397" y="365" type="curve" smooth="yes"/>
			<point x="297" y="365"/>
			<point x="214" y="282"/>
			<point x="214" y="184" type="curve" smooth="yes"/>
			<point x="214" y="82"/>
			<point x="297" y="0"/>
		</contour>
		<contour>
			<point x="396" y="84" type="curve" smooth="yes"/>
			<point x="344" y="84"/>
			<point x="299" y="128"/>
			<point x="299" y="184" type="curve" smooth="yes"/>
			<point x="299" y="235"/>
			<point x="344" y="280"/>
			<point x="396" y="280" type="curve" smooth="yes"/>
			<point x="451" y="280"/>
			<point x="495" y="235"/>
			<point x="495" y="184" type="curve" smooth="yes"/>
			<point x="495" y="128"/>
			<point x="451" y="84"/>
		</contour>
		<contour>
			<point x="533" y="227" type="line"/>
			<point x="533" y="142" type="line"/>
			<point x="632" y="142" type="line"/>
			<point x="632" y="227" type="line"/>
		</contour>
		<contour>
			<point x="498" y="583" type="curve" smooth="yes"/>
			<point x="269" y="583" type="line" smooth="yes"/>
			<point x="160" y="583"/>
			<point x="70" y="494"/>
			<point x="70" y="384" type="curve" smooth="yes"/>
			<point x="70" y="39" type="line" smooth="yes"/>
			<point x="70" y="-70"/>
			<point x="161" y="-160"/>
			<point x="272" y="-160" type="curve" smooth="yes"/>
			<point x="524" y="-160" type="line"/>
			<point x="524" y="-74" type="line"/>
			<point x="272" y="-74" type="line" smooth="yes"/>
			<point x="207" y="-74"/>
			<point x="156" y="-22"/>
			<point x="156" y="42" type="curve" smooth="yes"/>
			<point x="156" y="384" type="line" smooth="yes"/>
			<point x="156" y="447"/>
			<point x="207" y="498"/>
			<point x="269" y="498" type="curve" smooth="yes"/>
			<point x="498" y="498" type="line" smooth="yes"/>
			<point x="560" y="498"/>
			<point x="601" y="447"/>
			<point x="601" y="384" type="curve" smooth="yes"/>
			<point x="601" y="-1" type="line"/>
			<point x="687" y="-1" type="line"/>
			<point x="687" y="384" type="line" smooth="yes"/>
			<point x="687" y="494"/>
			<point x="607" y="583"/>
		</contour>
	</outline>
</glyph>
<glyph name="A" format="2">
	<advance width="466"/>
	<unicode hex="0041"/>
	<anchor x="233" y="723" name="top"/>
	<note>
		A
  </note>
	<outline>
		<contour>
			<point x="313" y="170" type="line"/>
			<point x="294" y="255" type="line"/>
			<point x="172" y="255" type="line"/>
			<point x="153" y="170" type="line"/>
		</contour>
		<contour>
			<point x="275" y="723" type="line"/>
			<point x="191" y="723" type="line"/>
			<point x="30" y="0" type="line"/>
			<point x="116" y="0" type="line"/>
			<point x="233" y="529" type="line"/>
			<point x="350" y="0" type="line"/>
			<point x="436" y="0" type="line"/>
		</contour>
	</outline>
</glyph>
<glyph name="B" format="2">
	<advance width="564"/>
	<unicode hex="0042"/>
	<note>
		B
  </note>
	<outline>
		<contour>
			<point x="272" y="723" type="curve"/>
			<point x="70" y="723" type="line"/>
			<point x="70" y="0" type="line"/>
			<point x="312" y="0" type="line"/>
			<point x="313" y="0"/>
			<point x="314" y="0"/>
			<point x="315" y="0" type="curve" smooth="yes"/>
			<point x="425" y="2"/>
			<point x="514" y="92"/>
			<point x="514" y="202" type="curve" smooth="yes"/>
			<point x="514" y="276"/>
			<point x="474" y="342"/>
			<point x="414" y="377" type="curve"/>
			<point x="451" y="414"/>
			<point x="474" y="465"/>
			<point x="474" y="521" type="curve" smooth="yes"/>
			<point x="474" y="633"/>
			<point x="384" y="723"/>
		</contour>
		<contour>
			<point x="156" y="405" type="line"/>
			<point x="156" y="638" type="line"/>
			<point x="272" y="638" type="line" smooth="yes"/>
			<point x="336" y="638"/>
			<point x="389" y="586"/>
			<point x="389" y="521" type="curve" smooth="yes"/>
			<point x="389" y="457"/>
			<point x="336" y="405"/>
			<point x="272" y="405" type="curve" smooth="yes"/>
		</contour>
		<contour>
			<point x="156" y="320" type="line"/>
			<point x="312" y="320" type="line"/>
			<point x="377" y="320"/>
			<point x="429" y="267"/>
			<point x="429" y="202" type="curve" smooth="yes"/>
			<point x="429" y="139"/>
			<point x="378" y="87"/>
			<point x="315" y="86" type="curve" smooth="yes"/>
			<point x="314" y="85"/>
			<point x="313" y="86"/>
			<point x="312" y="86" type="curve" smooth="yes"/>
			<point x="156" y="86" type="line"/>
		</contour>
	</outline>
</glyph>
<glyph name="C" format="2">
	<advance width="480"/>
	<unicode hex="0043"/>
	<anchor x="315" y="0" name="bottom"/>
	<note>
		C
  </note>
	<outline>
		<contour>
			<point x="450" y="723" type="line"/>
			<point x="249" y="723" type="line" smooth="yes"/>
			<point x="140" y="722"/>
			<point x="52" y="634"/>
			<point x="50" y="524" type="curve" smooth="yes"/>
			<point x="50" y="199" type="line" smooth="yes"/>
			<point x="52" y="90"/>
			<point x="141" y="0"/>
			<point x="252" y="0" type="curve" smooth="yes"/>
			<point x="450" y="0" type="line"/>
			<point x="450" y="86" type="line"/>
			<point x="252" y="86" type="line" smooth="yes"/>
			<point x="187" y="86"/>
			<point x="136" y="138"/>
			<point x="136" y="202" type="curve" smooth="yes"/>
			<point x="136" y="524" type="line" smooth="yes"/>
			<point x="137" y="587"/>
			<point x="187" y="636"/>
			<point x="249" y="638" type="curve" smooth="yes"/>
			<point x="450" y="638" type="line"/>
		</contour>
	</outline>
</glyph>
<glyph name="D" format="2">
	<advance width="520"/>
	<unicode hex="0044"/>
	<note>
		D
  </note>
	<outline>
		<contour>
			<point x="271" y="723" type="curve" smooth="yes"/>
			<point x="70" y="723" type="line"/>
			<point x="70" y="0" type="line"/>
			<point x="268" y="0" type="line" smooth="yes"/>
			<point x="379" y="0"/>
			<point x="470" y="90"/>
			<point x="470" y="199" type="curve"/>
			<point x="470" y="524" type="line" smooth="yes"/>
			<point x="470" y="634"/>
			<point x="380" y="723"/>
		</contour>
		<contour>
			<point x="156" y="86" type="line"/>
			<point x="156" y="638" type="line"/>
			<point x="271" y="638" type="line" smooth="yes"/>
			<point x="333" y="638"/>
			<point x="384" y="587"/>
			<point x="384" y="524" type="curve" smooth="yes"/>
			<point x="384" y="199" type="line"/>
			<point x="384" y="137"/>
			<point x="332" y="86"/>
			<point x="268" y="86" type="curve" smooth="yes"/>
		</contour>
	</outline>
</glyph>
<glyph name="E" format="2">
	<advance width="474"/>
	<unicode hex="0045"/>
	<anchor x="271" y="723" name="top"/>
	<note>
		E
  </note>
	<outline>
		<contour>
			<point x="454" y="723" type="line"/>
			<point x="70" y="723" type="line"/>
			<point x="70" y="0" type="line"/>
			<point x="454" y="0" type="line"/>
			<point x="454" y="83" type="line"/>
			<point x="454" y="86" type="line"/>
			<point x="451" y="86" type="line"/>
			<point x="156" y="86" type="line"/>
			<point x="156" y="320" type="line"/>
			<point x="375" y="320" type="line"/>
			<point x="375" y="405" type="line"/>
			<point x="156" y="405" type="line"/>
			<point x="156" y="638" type="line"/>
			<point x="454" y="638" type="line"/>
		</contour>
	</outline>
</glyph>
<glyph name="F" format="2">
	<advance width="485"/>
	<unicode hex="0046"/>
	<note>
		F
  </note>
	<outline>
		<contour>
			<point x="475" y="723" type="line"/>
			<point x="70" y="723" type="line"/>
			<point x="70" y="0" type="line"/>
			<point x="155" y="0" type="line"/>
			<point x="155" y="320" type="line"/>
			<point x="395" y="320" type="line"/>
			<point x="395" y="405" type="line"/>
			<point x="155" y="405" type="line"/>
			<point x="155" y="638" type="line"/>
			<point x="475" y="638" type="line"/>
		</contour>
	</outline>
</glyph>
<glyph name="G" format="2">
	<advance width="504"/>
	<unicode hex="0047"/>
	<note>
		G
  </note>
	<outline>
		<contour>
			<point x="454" y="724" type="line"/>
			<point x="249" y="724" type="line" smooth="yes"/>
			<point x="140" y="722"/>
			<point x="52" y="634"/>
			<point x="50" y="524" type="curve" smooth="yes"/>
			<point x="50" y="199" type="line" smooth="yes"/>
			<point x="52" y="90"/>
			<point x="141" y="0"/>
			<point x="252" y="0" type="curve" smooth="yes"/>
			<point x="454" y="0" type="line"/>
			<point x="454" y="405" type="line"/>
			<point x="209" y="405" type="line"/>
			<point x="209" y="320" type="line"/>
			<point x="368" y="320" type="line"/>
			<point x="368" y="86" type="line"/>
			<point x="252" y="86" type="line" smooth="yes"/>
			<point x="187" y="86"/>
			<point x="134" y="138"/>
			<point x="134" y="202" type="curve" smooth="yes"/>
			<point x="134" y="524" type="line" smooth="yes"/>
			<point x="136" y="587"/>
			<point x="187" y="637"/>
			<point x="249" y="638" type="curve" smooth="yes"/>
			<point x="454" y="638" type="line"/>
		</contour>
	</outline>
</glyph>
<glyph name="H" format="2">
	<advance width="544"/>
	<unicode hex="0048"/>
	<note>
		H
  </note>
	<outline>
		<contour>
			<point x="154" y="723" type="line"/>
			<point x="70" y="723" type="line"/>
			<point x="70" y="0" type="line"/>
			<point x="154" y="0" type="line"/>
			<point x="154" y="320" type="line"/>
			<point x="388" y="320" type="line"/>
			<point x="388" y="0" type="line"/>
			<point x="474" y="0" type="line"/>
			<point x="474" y="723" type="line"/>
			<point x="388" y="723" type="line"/>
			<point x="388" y="405" type="line"/>
			<point x="154" y="405" type="line"/>
		</contour>
	</outline>
</glyph>
<glyph name="I" format="2">
	<advance width="226"/>
	<unicode hex="0049"/>
	<anchor x="113" y="723" name="top"/>
	<note>
		I
  </note>
	<outline>
		<contour>
			<point x="156" y="723" type="line"/>
			<point x="70" y="723" type="line"/>
			<point x="70" y="0" type="line"/>
			<point x="156" y="0" type="line"/>
		</contour>
	</outline>
</glyph>
<glyph name="J" format="2">
	<advance width="474"/>
	<unicode hex="004A"/>
	<note>
		J
  </note>
	<outline>
		<contour>
			<point x="414" y="723" type="line"/>
			<point x="328" y="723" type="line"/>
			<point x="328" y="155" type="line"/>
			<point x="414" y="155" type="line"/>
		</contour>
		<contour>
			<point x="414" y="155" type="curve"/>
			<point x="328" y="155" type="line"/>
			<point x="328" y="116"/>
			<point x="297" y="86"/>
			<point x="258" y="86" type="curve" smooth="yes"/>
			<point x="220" y="86"/>
			<point x="187" y="116"/>
			<point x="187" y="155" type="curve"/>
			<point x="103" y="155" type="line"/>
			<point x="103" y="69"/>
			<point x="173" y="0"/>
			<point x="258" y="0" type="curve" smooth="yes"/>
			<point x="344" y="0"/>
			<point x="414" y="69"/>
		</contour>
		<contour>
			<point x="103" y="327" type="line"/>
			<point x="103" y="155" type="line"/>
			<point x="187" y="155" type="line"/>
			<point x="187" y="327" type="line"/>
		</contour>
	</outline>
</glyph>
<glyph name="K" format="2">
	<advance width="484"/>
	<unicode hex="004B"/>
	<note>
		K
  </note>
	<outline>
		<contour>
			<point x="156" y="723" type="line"/>
			<point x="70" y="723" type="line"/>
			<point x="70" y="0" type="line"/>
			<point x="156" y="0" type="line"/>
			<point x="272" y="263" type="line"/>
			<point x="391" y="0" type="line"/>
			<point x="477" y="0" type="line"/>
			<point x="315" y="360" type="line"/>
			<point x="477" y="723" type="line"/>
			<point x="392" y="723" type="line"/>
			<point x="156" y="196" type="line"/>
		</contour>
	</outline>
</glyph>
<glyph name="L" format="2">
	<advance width="494"/>
	<unicode hex="004C"/>
	<note>
		L
  </note>
	<outline>
		<contour>
			<point x="156" y="723" type="line"/>
			<point x="70" y="723" type="line"/>
			<point x="70" y="0" type="line"/>
			<point x="474" y="0" type="line"/>
			<point x="474" y="86" type="line"/>
			<point x="156" y="86" type="line"/>
		</contour>
	</outline>
</glyph>
<glyph name="M" format="2">
	<advance width="764"/>
	<unicode hex="004D"/>
	<note>
		M
  </note>
	<outline>
		<contour>
			<point x="583" y="723" type="line"/>
			<point x="500" y="723" type="line"/>
			<point x="382" y="196" type="line"/>
			<point x="264" y="723" type="line"/>
			<point x="181" y="723" type="line"/>
			<point x="20" y="0" type="line"/>
			<point x="104" y="0" type="line"/>
			<point x="223" y="529" type="line"/>
			<point x="342" y="0" type="line"/>
			<point x="422" y="0" type="line"/>
			<point x="541" y="529" type="line"/>
			<point x="660" y="0" type="line"/>
			<point x="744" y="0" type="line"/>
		</contour>
	</outline>
</glyph>
<glyph name="N" format="2">
	<advance width="544"/>
	<unicode hex="004E"/>
	<anchor x="272" y="724" name="top"/>
	<note>
		N
  </note>
	<outline>
		<contour>
			<point x="152" y="723" type="line"/>
			<point x="70" y="723" type="line"/>
			<point x="70" y="0" type="line"/>
			<point x="154" y="0" type="line"/>
			<point x="154" y="528" type="line"/>
			<point x="389" y="0" type="line"/>
			<point x="474" y="0" type="line"/>
			<point x="474" y="723" type="line"/>
			<point x="388" y="723" type="line"/>
			<point x="388" y="195" type="line"/>
		</contour>
	</outline>
</glyph>
<glyph name="O" format="2">
	<advance width="504"/>
	<unicode hex="004F"/>
	<anchor x="252" y="722" name="top"/>
	<note>
		O
  </note>
	<outline>
		<contour>
			<point x="252" y="722" type="curve" smooth="yes"/>
			<point x="140" y="722"/>
			<point x="50" y="632"/>
			<point x="50" y="520" type="curve" smooth="yes"/>
			<point x="50" y="199" type="line" smooth="yes"/>
			<point x="52" y="89"/>
			<point x="141" y="0"/>
			<point x="252" y="0" type="curve" smooth="yes"/>
			<point x="363" y="0"/>
			<point x="452" y="89"/>
			<point x="454" y="199" type="curve" smooth="yes"/>
			<point x="454" y="520" type="line" smooth="yes"/>
			<point x="454" y="632"/>
			<point x="364" y="722"/>
		</contour>
		<contour>
			<point x="370" y="202" type="line" smooth="yes"/>
			<point x="370" y="137"/>
			<point x="317" y="84"/>
			<point x="252" y="84" type="curve" smooth="yes"/>
			<point x="187" y="84"/>
			<point x="134" y="137"/>
			<point x="134" y="202" type="curve" smooth="yes"/>
			<point x="134" y="520" type="line" smooth="yes"/>
			<point x="134" y="585"/>
			<point x="187" y="637"/>
			<point x="252" y="637" type="curve" smooth="yes"/>
			<point x="317" y="637"/>
			<point x="370" y="585"/>
			<point x="370" y="520" type="curve" smooth="yes"/>
		</contour>
	</outline>
</glyph>
<glyph name="P" format="2">
	<advance width="505"/>
	<unicode hex="0050"/>
	<note>
		P
  </note>
	<outline>
		<contour>
			<point x="273" y="723" type="curve" smooth="yes"/>
			<point x="70" y="723" type="line"/>
			<point x="70" y="0" type="line"/>
			<point x="154" y="0" type="line"/>
			<point x="154" y="316" type="line"/>
			<point x="273" y="316" type="line" smooth="yes"/>
			<point x="385" y="316"/>
			<point x="475" y="407"/>
			<point x="475" y="519" type="curve" smooth="yes"/>
			<point x="475" y="630"/>
			<point x="385" y="723"/>
		</contour>
		<contour>
			<point x="273" y="402" type="curve" smooth="yes"/>
			<point x="154" y="402" type="line"/>
			<point x="154" y="635" type="line"/>
			<point x="273" y="635" type="line" smooth="yes"/>
			<point x="338" y="635"/>
			<point x="390" y="583"/>
			<point x="390" y="519" type="curve" smooth="yes"/>
			<point x="390" y="454"/>
			<point x="338" y="402"/>
		</contour>
	</outline>
</glyph>
<glyph name="Q" format="2">
	<advance width="505"/>
	<unicode hex="0051"/>
	<note>
		Q
  </note>
	<outline>
		<contour>
			<point x="452" y="0" type="line"/>
			<point x="292" y="363" type="line"/>
			<point x="212" y="363" type="line"/>
			<point x="373" y="0" type="line"/>
		</contour>
		<contour>
			<point x="135" y="202" type="curve"/>
			<point x="50" y="199" type="line"/>
			<point x="51" y="89"/>
			<point x="142" y="0"/>
			<point x="251" y="0" type="curve" smooth="yes"/>
			<point x="362" y="0"/>
			<point x="453" y="89"/>
			<point x="455" y="199" type="curve"/>
			<point x="369" y="199" type="line"/>
			<point x="367" y="137"/>
			<point x="315" y="86"/>
			<point x="251" y="86" type="curve" smooth="yes"/>
			<point x="188" y="86"/>
			<point x="135" y="138"/>
		</contour>
		<component base="O"/>
	</outline>
</glyph>
<glyph name="R" format="2">
	<advance width="522"/>
	<unicode hex="0052"/>
	<note>
		R
  </note>
	<outline>
		<contour>
			<point x="72" y="722" type="line"/>
			<point x="152" y="722" type="line"/>
			<point x="232" y="722" type="line" smooth="yes"/>
			<point x="365" y="722"/>
			<point x="475" y="614"/>
			<point x="475" y="481" type="curve" smooth="yes"/>
			<point x="475" y="392"/>
			<point x="426" y="314"/>
			<point x="355" y="272" type="curve"/>
			<point x="475" y="4" type="line"/>
			<point x="472" y="3" type="line"/>
			<point x="472" y="0" type="line"/>
			<point x="392" y="0" type="line"/>
			<point x="392" y="3" type="line"/>
			<point x="389" y="2" type="line"/>
			<point x="281" y="244" type="line"/>
			<point x="265" y="241"/>
			<point x="249" y="239"/>
			<point x="232" y="239" type="curve" smooth="yes"/>
			<point x="193" y="239" type="line"/>
			<point x="155" y="239" type="line"/>
			<point x="155" y="3" type="line"/>
			<point x="155" y="0" type="line"/>
			<point x="152" y="0" type="line"/>
			<point x="113" y="0" type="line"/>
			<point x="72" y="0" type="line"/>
			<point x="70" y="0" type="line"/>
			<point x="70" y="3" type="line"/>
			<point x="70" y="719" type="line"/>
			<point x="70" y="722" type="line"/>
		</contour>
		<contour>
			<point x="320" y="351" type="line"/>
			<point x="361" y="379"/>
			<point x="389" y="427"/>
			<point x="389" y="481" type="curve" smooth="yes"/>
			<point x="389" y="567"/>
			<point x="318" y="637"/>
			<point x="232" y="637" type="curve" smooth="yes"/>
			<point x="193" y="637" type="line"/>
			<point x="192" y="637" type="line"/>
		</contour>
		<contour>
			<point x="155" y="324" type="line"/>
			<point x="232" y="324" type="line" smooth="yes"/>
			<point x="236" y="324"/>
			<point x="241" y="324"/>
			<point x="245" y="325" type="curve"/>
			<point x="155" y="527" type="line"/>
		</contour>
	</outline>
</glyph>
<glyph name="S" format="2">
	<advance width="485"/>
	<unicode hex="0053"/>
	<note>
		S
  </note>
	<outline>
		<contour>
			<point x="241" y="723" type="line"/>
			<point x="239" y="723" type="line" smooth="yes"/>
			<point x="129" y="722"/>
			<point x="40" y="632"/>
			<point x="40" y="521" type="curve" smooth="yes"/>
			<point x="40" y="410"/>
			<point x="131" y="320"/>
			<point x="241" y="320" type="curve" smooth="yes"/>
			<point x="306" y="320"/>
			<point x="359" y="267"/>
			<point x="359" y="202" type="curve" smooth="yes"/>
			<point x="359" y="139"/>
			<point x="308" y="87"/>
			<point x="244" y="86" type="curve" smooth="yes"/>
			<point x="243" y="85"/>
			<point x="242" y="86"/>
			<point x="241" y="86" type="curve" smooth="yes"/>
			<point x="42" y="86" type="line"/>
			<point x="40" y="86" type="line"/>
			<point x="40" y="83" type="line"/>
			<point x="40" y="3" type="line"/>
			<point x="40" y="0" type="line"/>
			<point x="42" y="0" type="line"/>
			<point x="241" y="0" type="line" smooth="yes"/>
			<point x="242" y="0"/>
			<point x="243" y="0"/>
			<point x="244" y="0" type="curve" smooth="yes"/>
			<point x="355" y="2"/>
			<point x="445" y="92"/>
			<point x="445" y="202" type="curve" smooth="yes"/>
			<point x="445" y="314"/>
			<point x="353" y="405"/>
			<point x="241" y="405" type="curve" smooth="yes"/>
			<point x="178" y="405"/>
			<point x="125" y="457"/>
			<point x="125" y="521" type="curve" smooth="yes"/>
			<point x="125" y="585"/>
			<point x="176" y="636"/>
			<point x="239" y="638" type="curve" smooth="yes"/>
			<point x="241" y="638" type="line"/>
			<point x="342" y="638" type="line"/>
			<point x="442" y="638" type="line"/>
			<point x="445" y="638" type="line"/>
			<point x="445" y="641" type="line"/>
			<point x="445" y="721" type="line"/>
			<point x="445" y="723" type="line"/>
			<point x="442" y="723" type="line"/>
		</contour>
	</outline>
</glyph>
<glyph name="T" format="2">
	<advance width="445"/>
	<unicode hex="0054"/>
	<note>
		T
  </note>
	<outline>
		<contour>
			<point x="425" y="723" type="line"/>
			<point x="20" y="723" type="line"/>
			<point x="20" y="638" type="line"/>
			<point x="179" y="638" type="line"/>
			<point x="179" y="0" type="line"/>
			<point x="265" y="0" type="line"/>
			<point x="265" y="638" type="line"/>
			<point x="425" y="638" type="line"/>
		</contour>
	</outline>
</glyph>
<glyph name="U" format="2">
	<advance width="524"/>
	<unicode hex="0055"/>
	<anchor x="262" y="723" name="top"/>
	<note>
		U
  </note>
	<outline>
		<contour>
			<point x="464" y="723" type="line"/>
			<point x="380" y="723" type="line"/>
			<point x="380" y="202" type="line" smooth="yes"/>
			<point x="380" y="137"/>
			<point x="327" y="84"/>
			<point x="262" y="84" type="curve" smooth="yes"/>
			<point x="197" y="84"/>
			<point x="144" y="137"/>
			<point x="144" y="202" type="curve" smooth="yes"/>
			<point x="144" y="723" type="line"/>
			<point x="60" y="723" type="line"/>
			<point x="60" y="199" type="line" smooth="yes"/>
			<point x="60" y="89"/>
			<point x="151" y="0"/>
			<point x="262" y="0" type="curve" smooth="yes"/>
			<point x="373" y="0"/>
			<point x="464" y="89"/>
			<point x="464" y="199" type="curve" smooth="yes"/>
		</contour>
	</outline>
</glyph>
<glyph name="V" format="2">
	<advance width="456"/>
	<unicode hex="0056"/>
	<note>
		V
  </note>
	<outline>
		<contour>
			<point x="270" y="0" type="line"/>
			<point x="431" y="723" type="line"/>
			<point x="345" y="723" type="line"/>
			<point x="228" y="194" type="line"/>
			<point x="111" y="723" type="line"/>
			<point x="25" y="723" type="line"/>
			<point x="186" y="0" type="line"/>
		</contour>
	</outline>
</glyph>
<glyph name="W" format="2">
	<advance width="786"/>
	<unicode hex="0057"/>
	<note>
		W
  </note>
	<outline>
		<contour>
			<point x="275" y="0" type="line"/>
			<point x="436" y="723" type="line"/>
			<point x="350" y="723" type="line"/>
			<point x="233" y="194" type="line"/>
			<point x="116" y="723" type="line"/>
			<point x="30" y="723" type="line"/>
			<point x="191" y="0" type="line"/>
		</contour>
		<contour>
			<point x="595" y="0" type="line"/>
			<point x="756" y="723" type="line"/>
			<point x="670" y="723" type="line"/>
			<point x="553" y="194" type="line"/>
			<point x="436" y="723" type="line"/>
			<point x="350" y="723" type="line"/>
			<point x="511" y="0" type="line"/>
		</contour>
	</outline>
</glyph>
<glyph name="X" format="2">
	<advance width="422"/>
	<unicode hex="0058"/>
	<note>
		X
  </note>
	<outline>
		<contour>
			<point x="415" y="723" type="line"/>
			<point x="329" y="723" type="line"/>
			<point x="211" y="458" type="line"/>
			<point x="93" y="723" type="line"/>
			<point x="7" y="723" type="line"/>
			<point x="168" y="361" type="line"/>
			<point x="7" y="0" type="line"/>
			<point x="93" y="0" type="line"/>
			<point x="211" y="265" type="line"/>
			<point x="329" y="0" type="line"/>
			<point x="415" y="0" type="line"/>
			<point x="254" y="361" type="line"/>
		</contour>
	</outline>
</glyph>
<glyph name="Y" format="2">
	<advance width="418"/>
	<unicode hex="0059"/>
	<anchor x="209" y="723" name="top"/>
	<note>
		Y
  </note>
	<outline>
		<contour>
			<point x="252" y="373" type="line"/>
			<point x="167" y="372" type="line"/>
			<point x="167" y="0" type="line"/>
			<point x="252" y="0" type="line"/>
		</contour>
		<contour>
			<point x="413" y="723" type="line"/>
			<point x="327" y="723" type="line"/>
			<point x="209" y="458" type="line"/>
			<point x="91" y="723" type="line"/>
			<point x="5" y="723" type="line"/>
			<point x="209" y="265" type="line"/>
		</contour>
	</outline>
</glyph>
<glyph name="Z" format="2">
	<advance width="444"/>
	<unicode hex="005A"/>
	<note>
		Z
  </note>
	<outline>
		<contour>
			<point x="425" y="723" type="line"/>
			<point x="20" y="723" type="line"/>
			<point x="20" y="638" type="line"/>
			<point x="301" y="638" type="line"/>
			<point x="18" y="0" type="line"/>
			<point x="424" y="0" type="line"/>
			<point x="424" y="85" type="line"/>
			<point x="142" y="85" type="line"/>
		</contour>
	</outline>
</glyph>
<glyph name="bracketleft" format="2">
	<advance width="301"/>
	<unicode hex="005B"/>
	<outline>
		<contour>
			<point x="231" y="808" type="line"/>
			<point x="70" y="808" type="line"/>
			<point x="70" y="-131" type="line"/>
			<point x="231" y="-131" type="line"/>
			<point x="231" y="-45" type="line"/>
			<point x="156" y="-45" type="line"/>
			<point x="156" y="722" type="line"/>
			<point x="231" y="722" type="line"/>
		</contour>
	</outline>
</glyph>
<glyph name="underscore" format="2">
	<advance width="616"/>
	<unicode hex="005F"/>
	<outline>
		<contour>
			<point x="50" y="0" type="line"/>
			<point x="50" y="-87" type="line"/>
			<point x="566" y="-87" type="line"/>
			<point x="566" y="0" type="line"/>
		</contour>
	</outline>
</glyph>
<glyph name="a" format="2">
	<advance width="578"/>
	<unicode hex="0061"/>
	<anchor x="250" y="484" name="top"/>
	<note>
		a
  </note>
	<outline>
		<contour>
			<point x="228" y="0" type="curve" smooth="yes"/>
			<point x="328" y="0"/>
			<point x="410" y="82"/>
			<point x="410" y="184" type="curve" smooth="yes"/>
			<point x="410" y="282"/>
			<point x="328" y="365"/>
			<point x="228" y="365" type="curve" smooth="yes"/>
			<point x="128" y="365"/>
			<point x="45" y="282"/>
			<point x="45" y="184" type="curve" smooth="yes"/>
			<point x="45" y="82"/>
			<point x="128" y="0"/>
		</contour>
		<contour>
			<point x="227" y="84" type="curve" smooth="yes"/>
			<point x="175" y="84"/>
			<point x="130" y="128"/>
			<point x="130" y="184" type="curve" smooth="yes"/>
			<point x="130" y="235"/>
			<point x="175" y="280"/>
			<point x="227" y="280" type="curve" smooth="yes"/>
			<point x="282" y="280"/>
			<point x="326" y="235"/>
			<point x="326" y="184" type="curve" smooth="yes"/>
			<point x="326" y="128"/>
			<point x="282" y="84"/>
		</contour>
		<contour>
			<point x="432" y="0" type="line"/>
			<point x="518" y="0" type="line"/>
			<point x="518" y="285" type="line" smooth="yes"/>
			<point x="518" y="395"/>
			<point x="428" y="484"/>
			<point x="319" y="484" type="curve" smooth="yes"/>
			<point x="88" y="484" type="line"/>
			<point x="88" y="399" type="line"/>
			<point x="319" y="399" type="line" smooth="yes"/>
			<point x="381" y="399"/>
			<point x="432" y="348"/>
			<point x="432" y="285" type="curve" smooth="yes"/>
		</contour>
		<contour>
			<point x="364" y="227" type="line"/>
			<point x="364" y="142" type="line"/>
			<point x="463" y="142" type="line"/>
			<point x="463" y="227" type="line"/>
		</contour>
	</outline>
</glyph>
<glyph name="b" format="2">
	<advance width="510"/>
	<unicode hex="0062"/>
	<note>
		b
  </note>
	<outline>
		<contour>
			<point x="62" y="723" type="line"/>
			<point x="60" y="723" type="line"/>
			<point x="60" y="721" type="line"/>
			<point x="60" y="292" type="line" smooth="yes"/>
			<point x="59" y="289"/>
			<point x="60" y="285"/>
			<point x="60" y="282" type="curve" smooth="yes"/>
			<point x="60" y="202" type="line" smooth="yes"/>
			<point x="60" y="198"/>
			<point x="59" y="195"/>
			<point x="60" y="192" type="curve" smooth="yes"/>
			<point x="60" y="3" type="line"/>
			<point x="60" y="0" type="line"/>
			<point x="62" y="0" type="line"/>
			<point x="103" y="0" type="line"/>
			<point x="142" y="0" type="line"/>
			<point x="145" y="0" type="line"/>
			<point x="145" y="3" type="line"/>
			<point x="145" y="38" type="line"/>
			<point x="178" y="14"/>
			<point x="218" y="0"/>
			<point x="261" y="0" type="curve" smooth="yes"/>
			<point x="373" y="0"/>
			<point x="465" y="91"/>
			<point x="465" y="202" type="curve" smooth="yes"/>
			<point x="465" y="282" type="line" smooth="yes"/>
			<point x="465" y="394"/>
			<point x="373" y="484"/>
			<point x="261" y="484" type="curve" smooth="yes"/>
			<point x="218" y="484"/>
			<point x="178" y="470"/>
			<point x="145" y="447" type="curve"/>
			<point x="145" y="721" type="line"/>
			<point x="145" y="723" type="line"/>
			<point x="142" y="723" type="line"/>
		</contour>
		<contour>
			<point x="261" y="399" type="curve" smooth="yes"/>
			<point x="326" y="399"/>
			<point x="379" y="347"/>
			<point x="379" y="282" type="curve" smooth="yes"/>
			<point x="379" y="202" type="line"/>
			<point x="379" y="199" type="line" smooth="yes"/>
			<point x="378" y="137"/>
			<point x="325" y="86"/>
			<point x="261" y="86" type="curve" smooth="yes"/>
			<point x="198" y="86"/>
			<point x="145" y="138"/>
			<point x="145" y="202" type="curve" smooth="yes"/>
			<point x="145" y="282" type="line" smooth="yes"/>
			<point x="145" y="347"/>
			<point x="198" y="399"/>
		</contour>
	</outline>
</glyph>
<glyph name="c" format="2">
	<advance width="494"/>
	<unicode hex="0063"/>
	<anchor x="247" y="0" name="bottom"/>
	<note>
		c
  </note>
	<outline>
		<contour>
			<point x="237" y="484" type="curve" smooth="yes"/>
			<point x="134" y="478"/>
			<point x="47" y="395"/>
			<point x="45" y="282" type="curve"/>
			<point x="45" y="199" type="line" smooth="yes"/>
			<point x="47" y="90"/>
			<point x="136" y="0"/>
			<point x="247" y="0" type="curve" smooth="yes"/>
			<point x="358" y="0"/>
			<point x="449" y="91"/>
			<point x="449" y="202" type="curve"/>
			<point x="446" y="205" type="line"/>
			<point x="366" y="205" type="line"/>
			<point x="363" y="202" type="line"/>
			<point x="363" y="138"/>
			<point x="311" y="86"/>
			<point x="247" y="86" type="curve" smooth="yes"/>
			<point x="182" y="86"/>
			<point x="129" y="138"/>
			<point x="129" y="202" type="curve" smooth="yes"/>
			<point x="129" y="282" type="line" smooth="yes"/>
			<point x="129" y="347"/>
			<point x="182" y="399"/>
			<point x="247" y="399" type="curve" smooth="yes"/>
			<point x="311" y="399"/>
			<point x="363" y="347"/>
			<point x="363" y="282" type="curve"/>
			<point x="366" y="279" type="line"/>
			<point x="446" y="279" type="line"/>
			<point x="449" y="282" type="line"/>
			<point x="449" y="394"/>
			<point x="358" y="484"/>
			<point x="247" y="484" type="curve" smooth="yes"/>
			<point x="244" y="484"/>
			<point x="240" y="484"/>
		</contour>
	</outline>
</glyph>
<glyph name="d" format="2">
	<advance width="509"/>
	<unicode hex="0064"/>
	<note>
		d
  </note>
	<outline>
		<contour>
			<point x="366" y="723" type="line"/>
			<point x="363" y="723" type="line"/>
			<point x="363" y="720" type="line"/>
			<point x="363" y="447" type="line"/>
			<point x="331" y="470"/>
			<point x="290" y="484"/>
			<point x="247" y="484" type="curve" smooth="yes"/>
			<point x="136" y="484"/>
			<point x="47" y="395"/>
			<point x="45" y="284" type="curve" smooth="yes"/>
			<point x="45" y="282" type="line"/>
			<point x="45" y="202" type="line"/>
			<point x="45" y="199" type="line" smooth="yes"/>
			<point x="47" y="90"/>
			<point x="136" y="0"/>
			<point x="247" y="0" type="curve" smooth="yes"/>
			<point x="290" y="0"/>
			<point x="331" y="14"/>
			<point x="363" y="37" type="curve"/>
			<point x="363" y="3" type="line"/>
			<point x="363" y="0" type="line"/>
			<point x="366" y="0" type="line"/>
			<point x="407" y="0" type="line"/>
			<point x="446" y="0" type="line"/>
			<point x="449" y="0" type="line"/>
			<point x="449" y="3" type="line"/>
			<point x="449" y="202" type="line"/>
			<point x="449" y="282" type="line"/>
			<point x="449" y="720" type="line"/>
			<point x="449" y="723" type="line"/>
			<point x="446" y="723" type="line"/>
		</contour>
		<contour>
			<point x="247" y="399" type="curve" smooth="yes"/>
			<point x="312" y="399"/>
			<point x="363" y="347"/>
			<point x="363" y="282" type="curve" smooth="yes"/>
			<point x="363" y="202" type="line" smooth="yes"/>
			<point x="363" y="138"/>
			<point x="312" y="85"/>
			<point x="247" y="85" type="curve" smooth="yes"/>
			<point x="183" y="85"/>
			<point x="132" y="137"/>
			<point x="131" y="199" type="curve" smooth="yes"/>
			<point x="131" y="202" type="line"/>
			<point x="131" y="282" type="line"/>
			<point x="131" y="284" type="line" smooth="yes"/>
			<point x="132" y="348"/>
			<point x="183" y="399"/>
		</contour>
	</outline>
</glyph>
<glyph name="e" format="2">
	<advance width="497"/>
	<unicode hex="0065"/>
	<anchor x="247" y="484" name="top"/>
	<note>
		e
  </note>
	<outline>
		<contour>
			<point x="247" y="399" type="curve" smooth="yes"/>
			<point x="311" y="399"/>
			<point x="362" y="348"/>
			<point x="363" y="285" type="curve"/>
			<point x="131" y="285" type="line"/>
			<point x="132" y="348"/>
			<point x="183" y="399"/>
		</contour>
		<contour>
			<point x="247" y="484" type="curve" smooth="yes"/>
			<point x="135" y="484"/>
			<point x="47" y="394"/>
			<point x="45" y="285" type="curve" smooth="yes"/>
			<point x="45" y="199" type="line" smooth="yes"/>
			<point x="47" y="91"/>
			<point x="135" y="2"/>
			<point x="244" y="0" type="curve" smooth="yes"/>
			<point x="449" y="0" type="line"/>
			<point x="449" y="86" type="line"/>
			<point x="244" y="86" type="line" smooth="yes"/>
			<point x="182" y="87"/>
			<point x="132" y="138"/>
			<point x="131" y="199" type="curve"/>
			<point x="449" y="199" type="line"/>
			<point x="449" y="282" type="line" smooth="yes"/>
			<point x="449" y="394"/>
			<point x="359" y="484"/>
		</contour>
	</outline>
</glyph>
<glyph name="f" format="2">
	<advance width="353"/>
	<unicode hex="0066"/>
	<note>
		f
  </note>
	<outline>
		<contour>
			<point x="342" y="723" type="line"/>
			<point x="257" y="723" type="line" smooth="yes"/>
			<point x="147" y="723"/>
			<point x="58" y="634"/>
			<point x="58" y="524" type="curve" smooth="yes"/>
			<point x="57.69" y="-0.18" type="line"/>
			<point x="143.19" y="-0.18" type="line"/>
			<point x="143" y="399" type="line"/>
			<point x="343" y="399" type="line"/>
			<point x="343" y="484" type="line"/>
			<point x="143" y="484" type="line"/>
			<point x="143" y="524" type="line" smooth="yes"/>
			<point x="143" y="587"/>
			<point x="195" y="638"/>
			<point x="257" y="638" type="curve" smooth="yes"/>
			<point x="342" y="638" type="line"/>
		</contour>
	</outline>
</glyph>
<glyph name="g" format="2">
	<advance width="500"/>
	<unicode hex="0067"/>
	<note>
		g
  </note>
	<outline>
		<contour>
			<point x="250.02" y="400.39" type="curve" smooth="yes"/>
			<point x="313.71" y="400.39"/>
			<point x="366.46" y="347.67"/>
			<point x="366.46" y="282.83" type="curve" smooth="yes"/>
			<point x="366.46" y="202.96" type="line" smooth="yes"/>
			<point x="366.46" y="139.27"/>
			<point x="313.72" y="86.52"/>
			<point x="250.02" y="86.52" type="curve" smooth="yes"/>
			<point x="185.17" y="86.52"/>
			<point x="132.46" y="139.26"/>
			<point x="132.46" y="202.96" type="curve" smooth="yes"/>
			<point x="132.46" y="285.64" type="line" smooth="yes"/>
			<point x="134" y="349.17"/>
			<point x="186.13" y="400.39"/>
		</contour>
		<contour>
			<point x="250.02" y="484.76" type="curve"/>
			<point x="122" y="485"/>
			<point x="48" y="393"/>
			<point x="48.06" y="282.81" type="curve" smooth="yes"/>
			<point x="48.06" y="200.13" type="line" smooth="yes"/>
			<point x="49.57" y="90.74"/>
			<point x="139.16" y="1.01"/>
			<point x="250" y="1.01" type="curve" smooth="yes"/>
			<point x="293.44" y="1.01"/>
			<point x="333.58" y="15.09"/>
			<point x="366.44" y="38.42" type="curve"/>
			<point x="366.44" y="-0.86" type="line" smooth="yes"/>
			<point x="364.91" y="-63.28"/>
			<point x="312.76" y="-114.49"/>
			<point x="250" y="-114.49" type="curve" smooth="yes"/>
			<point x="187" y="-114"/>
			<point x="132" y="-65"/>
			<point x="132" y="5" type="curve"/>
			<point x="48" y="5" type="line"/>
			<point x="48" y="-109"/>
			<point x="138" y="-200"/>
			<point x="250.01" y="-199.99" type="curve" smooth="yes"/>
			<point x="361.79" y="-199.99"/>
			<point x="452" y="-109"/>
			<point x="451.95" y="1.95" type="curve" smooth="yes"/>
			<point x="452" y="484" type="line"/>
			<point x="366" y="484" type="line"/>
			<point x="366.46" y="447.92" type="line"/>
			<point x="333.6" y="471.17"/>
			<point x="293.46" y="484.76"/>
		</contour>
	</outline>
</glyph>
<glyph name="h" format="2">
	<advance width="500"/>
	<unicode hex="0068"/>
	<note>
		h
  </note>
	<outline>
		<contour>
			<point x="50.92" y="723.19" type="line"/>
			<point x="48.1" y="723.19" type="line"/>
			<point x="48.1" y="720.38" type="line"/>
			<point x="48.1" y="292.04" type="line" smooth="yes"/>
			<point x="47.92" y="288.6"/>
			<point x="48.1" y="285.12"/>
			<point x="48.1" y="281.63" type="curve" smooth="yes"/>
			<point x="48.1" y="2.63" type="line"/>
			<point x="48.1" y="-0.18" type="line"/>
			<point x="50.91" y="-0.18" type="line"/>
			<point x="90.29" y="-0.18" type="line"/>
			<point x="130.79" y="-0.18" type="line"/>
			<point x="133.6" y="-0.18" type="line"/>
			<point x="133.6" y="2.63" type="line"/>
			<point x="133.6" y="281.63" type="line" smooth="yes"/>
			<point x="133.6" y="346.51"/>
			<point x="185.19" y="399.19"/>
			<point x="250.04" y="399.19" type="curve" smooth="yes"/>
			<point x="313.93" y="399.19"/>
			<point x="364.86" y="348"/>
			<point x="366.48" y="284.44" type="curve" smooth="yes"/>
			<point x="366.5" y="283.48"/>
			<point x="366.48" y="282.59"/>
			<point x="366.48" y="281.63" type="curve" smooth="yes"/>
			<point x="366.48" y="2.63" type="line"/>
			<point x="366.48" y="-0.18" type="line"/>
			<point x="369.29" y="-0.18" type="line"/>
			<point x="409.79" y="-0.18" type="line"/>
			<point x="449.17" y="-0.18" type="line"/>
			<point x="451.98" y="-0.18" type="line"/>
			<point x="451.98" y="2.63" type="line"/>
			<point x="451.98" y="281.63" type="line" smooth="yes"/>
			<point x="451.98" y="282.57"/>
			<point x="451.99" y="283.5"/>
			<point x="451.98" y="284.44" type="curve" smooth="yes"/>
			<point x="450.48" y="394.89"/>
			<point x="360.86" y="483.56"/>
			<point x="250.04" y="483.56" type="curve" smooth="yes"/>
			<point x="206.61" y="483.56"/>
			<point x="166.53" y="469.96"/>
			<point x="133.6" y="446.72" type="curve"/>
			<point x="133.6" y="720.38" type="line"/>
			<point x="133.6" y="723.19" type="line"/>
			<point x="130.79" y="723.19" type="line"/>
		</contour>
	</outline>
</glyph>
<glyph name="i" format="2">
	<advance width="207"/>
	<unicode hex="0069"/>
	<note>
		i
  </note>
	<outline>
		<contour>
			<point x="147" y="639" type="line"/>
			<point x="61" y="639" type="line"/>
			<point x="61" y="553" type="line"/>
			<point x="147" y="553" type="line"/>
		</contour>
		<component base="dotlessi" xOffset="1"/>
	</outline>
</glyph>
<glyph name="j" format="2">
	<advance width="251"/>
	<unicode hex="006A"/>
	<note>
		j
  </note>
	<outline>
		<contour>
			<point x="191" y="486" type="line"/>
			<point x="105" y="486" type="line"/>
			<point x="105" y="-63" type="line"/>
			<point x="191" y="-63" type="line"/>
		</contour>
		<contour>
			<point x="191" y="-63" type="curve"/>
			<point x="105" y="-63" type="line"/>
			<point x="105" y="-92"/>
			<point x="82" y="-114"/>
			<point x="53" y="-114" type="curve"/>
			<point x="53" y="-200" type="line"/>
			<point x="129" y="-200"/>
			<point x="191" y="-139"/>
		</contour>
		<contour>
			<point x="10" y="-114" type="line"/>
			<point x="10" y="-200" type="line"/>
			<point x="53" y="-200" type="line"/>
			<point x="53" y="-114" type="line"/>
		</contour>
		<contour>
			<point x="191" y="639" type="line"/>
			<point x="105" y="639" type="line"/>
			<point x="105" y="553" type="line"/>
			<point x="191" y="553" type="line"/>
		</contour>
	</outline>
</glyph>
<glyph name="k" format="2">
	<advance width="470"/>
	<unicode hex="006B"/>
	<note>
		k
  </note>
	<outline>
		<contour>
			<point x="140" y="0" type="line"/>
			<point x="433" y="484" type="line"/>
			<point x="334" y="484" type="line"/>
			<point x="141" y="154" type="line"/>
			<point x="141" y="723" type="line"/>
			<point x="55" y="723" type="line"/>
			<point x="55.39" y="-0.18" type="line"/>
		</contour>
		<contour>
			<point x="304" y="296" type="line"/>
			<point x="261" y="210" type="line"/>
			<point x="365" y="0" type="line"/>
			<point x="452" y="0" type="line"/>
		</contour>
	</outline>
</glyph>
<glyph name="l" format="2">
	<advance width="206"/>
	<unicode hex="006C"/>
	<note>
		l
  </note>
	<outline>
		<contour>
			<point x="146" y="723" type="line"/>
			<point x="60" y="723" type="line"/>
			<point x="60" y="0" type="line"/>
			<point x="146" y="0" type="line"/>
		</contour>
	</outline>
</glyph>
<glyph name="m" format="2">
	<advance width="843"/>
	<unicode hex="006D"/>
	<note>
		m
  </note>
	<outline>
		<contour>
			<point x="63" y="484" type="line"/>
			<point x="60" y="484" type="line"/>
			<point x="60" y="481" type="line"/>
			<point x="60" y="3" type="line"/>
			<point x="60" y="0" type="line"/>
			<point x="63" y="0" type="line"/>
			<point x="103" y="0" type="line"/>
			<point x="143" y="0" type="line"/>
			<point x="145" y="0" type="line"/>
			<point x="145" y="3" type="line"/>
			<point x="145" y="282" type="line" smooth="yes"/>
			<point x="145" y="347"/>
			<point x="198" y="399"/>
			<point x="263" y="399" type="curve" smooth="yes"/>
			<point x="327" y="399"/>
			<point x="379" y="347"/>
			<point x="379" y="282" type="curve" smooth="yes"/>
			<point x="379" y="3" type="line"/>
			<point x="379" y="0" type="line"/>
			<point x="382" y="0" type="line"/>
			<point x="462" y="0" type="line"/>
			<point x="465" y="0" type="line"/>
			<point x="465" y="3" type="line"/>
			<point x="465" y="282" type="line" smooth="yes"/>
			<point x="465" y="283"/>
			<point x="465" y="284"/>
			<point x="465" y="285" type="curve" smooth="yes"/>
			<point x="466" y="348"/>
			<point x="517" y="399"/>
			<point x="581" y="399" type="curve" smooth="yes"/>
			<point x="645" y="399"/>
			<point x="696" y="348"/>
			<point x="698" y="285" type="curve" smooth="yes"/>
			<point x="698" y="284"/>
			<point x="698" y="283"/>
			<point x="698" y="282" type="curve" smooth="yes"/>
			<point x="698" y="3" type="line"/>
			<point x="698" y="0" type="line"/>
			<point x="701" y="0" type="line"/>
			<point x="780" y="0" type="line"/>
			<point x="783" y="0" type="line"/>
			<point x="783" y="3" type="line"/>
			<point x="783" y="282" type="line"/>
			<point x="783" y="285" type="line" smooth="yes"/>
			<point x="782" y="395"/>
			<point x="692" y="484"/>
			<point x="581" y="484" type="curve" smooth="yes"/>
			<point x="516" y="484"/>
			<point x="459" y="453"/>
			<point x="422" y="406" type="curve"/>
			<point x="385" y="453"/>
			<point x="327" y="484"/>
			<point x="263" y="484" type="curve" smooth="yes"/>
			<point x="219" y="484"/>
			<point x="179" y="470"/>
			<point x="145" y="446" type="curve"/>
			<point x="145" y="481" type="line"/>
			<point x="145" y="484" type="line"/>
			<point x="143" y="484" type="line"/>
		</contour>
	</outline>
</glyph>
<glyph name="n" format="2">
	<advance width="524"/>
	<unicode hex="006E"/>
	<anchor x="262" y="484" name="top"/>
	<note>
		n
  </note>
	<outline>
		<contour>
			<point x="63" y="484" type="line"/>
			<point x="60" y="484" type="line"/>
			<point x="60" y="481" type="line"/>
			<point x="60" y="292" type="line" smooth="yes"/>
			<point x="60" y="289"/>
			<point x="60" y="285"/>
			<point x="60" y="282" type="curve" smooth="yes"/>
			<point x="60" y="3" type="line"/>
			<point x="60" y="0" type="line"/>
			<point x="63" y="0" type="line"/>
			<point x="103" y="0" type="line"/>
			<point x="143" y="0" type="line"/>
			<point x="146" y="0" type="line"/>
			<point x="146" y="3" type="line"/>
			<point x="146" y="282" type="line" smooth="yes"/>
			<point x="146" y="347"/>
			<point x="198" y="398"/>
			<point x="262" y="398" type="curve" smooth="yes"/>
			<point x="326" y="398"/>
			<point x="378" y="348"/>
			<point x="380" y="285" type="curve" smooth="yes"/>
			<point x="380" y="284"/>
			<point x="380" y="283"/>
			<point x="380" y="282" type="curve" smooth="yes"/>
			<point x="380" y="3" type="line"/>
			<point x="380" y="0" type="line"/>
			<point x="382" y="0" type="line"/>
			<point x="422" y="0" type="line"/>
			<point x="461" y="0" type="line"/>
			<point x="464" y="0" type="line"/>
			<point x="464" y="3" type="line"/>
			<point x="464" y="282" type="line" smooth="yes"/>
			<point x="464" y="283"/>
			<point x="464" y="284"/>
			<point x="464" y="285" type="curve" smooth="yes"/>
			<point x="462" y="395"/>
			<point x="373" y="484"/>
			<point x="262" y="484" type="curve" smooth="yes"/>
			<point x="219" y="484"/>
			<point x="179" y="470"/>
			<point x="146" y="447" type="curve"/>
			<point x="146" y="481" type="line"/>
			<point x="146" y="484" type="line"/>
			<point x="143" y="484" type="line"/>
		</contour>
	</outline>
</glyph>
<glyph name="o" format="2">
	<advance width="495"/>
	<unicode hex="006F"/>
	<anchor x="246" y="484" name="top"/>
	<note>
		o
  </note>
	<outline>
		<contour>
			<point x="246" y="398" type="curve" smooth="yes"/>
			<point x="311" y="398"/>
			<point x="364" y="347"/>
			<point x="364" y="282" type="curve" smooth="yes"/>
			<point x="364" y="199" type="line" smooth="yes"/>
			<point x="362" y="137"/>
			<point x="310" y="86"/>
			<point x="246" y="86" type="curve" smooth="yes"/>
			<point x="183" y="86"/>
			<point x="130" y="138"/>
			<point x="130" y="202" type="curve" smooth="yes"/>
			<point x="130" y="282" type="line" smooth="yes"/>
			<point x="130" y="347"/>
			<point x="183" y="398"/>
		</contour>
		<contour>
			<point x="246" y="484" type="curve" smooth="yes"/>
			<point x="136" y="484"/>
			<point x="45" y="394"/>
			<point x="45" y="282" type="curve" smooth="yes"/>
			<point x="45" y="199" type="line" smooth="yes"/>
			<point x="46" y="89"/>
			<point x="137" y="0"/>
			<point x="246" y="0" type="curve" smooth="yes"/>
			<point x="357" y="0"/>
			<point x="448" y="89"/>
			<point x="450" y="199" type="curve" smooth="yes"/>
			<point x="450" y="169"/>
			<point x="450" y="202"/>
			<point x="450" y="282" type="curve" smooth="yes"/>
			<point x="450" y="394"/>
			<point x="358" y="484"/>
		</contour>
	</outline>
</glyph>
<glyph name="p" format="2">
	<advance width="509"/>
	<unicode hex="0070"/>
	<note>
		p
  </note>
	<outline>
		<contour>
			<point x="262" y="398" type="curve" smooth="yes"/>
			<point x="326" y="398"/>
			<point x="378" y="347"/>
			<point x="378" y="282" type="curve" smooth="yes"/>
			<point x="378" y="202" type="line"/>
			<point x="378" y="199" type="line" smooth="yes"/>
			<point x="377" y="137"/>
			<point x="325" y="86"/>
			<point x="262" y="86" type="curve" smooth="yes"/>
			<point x="197" y="86"/>
			<point x="144" y="138"/>
			<point x="144" y="202" type="curve" smooth="yes"/>
			<point x="144" y="282" type="line" smooth="yes"/>
			<point x="144" y="347"/>
			<point x="197" y="398"/>
		</contour>
		<contour>
			<point x="63" y="484" type="line"/>
			<point x="60" y="484" type="line"/>
			<point x="60" y="481" type="line"/>
			<point x="60" y="282" type="line"/>
			<point x="60" y="202" type="line"/>
			<point x="60" y="-198" type="line"/>
			<point x="60" y="-200" type="line"/>
			<point x="63" y="-200" type="line"/>
			<point x="142" y="-200" type="line"/>
			<point x="144" y="-200" type="line"/>
			<point x="144" y="-198" type="line"/>
			<point x="144" y="37" type="line"/>
			<point x="177" y="14"/>
			<point x="218" y="0"/>
			<point x="262" y="0" type="curve" smooth="yes"/>
			<point x="373" y="0"/>
			<point x="464" y="90"/>
			<point x="464" y="202" type="curve" smooth="yes"/>
			<point x="464" y="282" type="line" smooth="yes"/>
			<point x="464" y="394"/>
			<point x="373" y="484"/>
			<point x="262" y="484" type="curve" smooth="yes"/>
			<point x="218" y="484"/>
			<point x="177" y="470"/>
			<point x="144" y="446" type="curve"/>
			<point x="144" y="481" type="line"/>
			<point x="144" y="484" type="line"/>
			<point x="142" y="484" type="line"/>
			<point x="102" y="484" type="line"/>
		</contour>
	</outline>
</glyph>
<glyph name="q" format="2">
	<advance width="500"/>
	<unicode hex="0071"/>
	<note>
		q
  </note>
	<outline>
		<contour>
			<point x="250" y="398.25" type="curve" smooth="yes"/>
			<point x="314.88" y="398.25"/>
			<point x="366.44" y="346.69"/>
			<point x="366.44" y="281.81" type="curve" smooth="yes"/>
			<point x="366.44" y="201.94" type="line" smooth="yes"/>
			<point x="366.44" y="138.21"/>
			<point x="314.85" y="85.5"/>
			<point x="250" y="85.5" type="curve" smooth="yes"/>
			<point x="185.15" y="85.5"/>
			<point x="133.56" y="138.21"/>
			<point x="133.56" y="201.94" type="curve" smooth="yes"/>
			<point x="133.56" y="281.81" type="line"/>
			<point x="133.56" y="284.62" type="line" smooth="yes"/>
			<point x="135.03" y="348.17"/>
			<point x="186.06" y="398.25"/>
		</contour>
		<contour>
			<point x="250.01" y="483.76" type="curve" smooth="yes"/>
			<point x="138.24" y="483.75"/>
			<point x="48.06" y="393.57"/>
			<point x="48.06" y="281.81" type="curve" smooth="yes"/>
			<point x="48.06" y="201.94" type="line"/>
			<point x="48.06" y="199.13" type="line" smooth="yes"/>
			<point x="49.56" y="88.68"/>
			<point x="139.18" y="0.01"/>
			<point x="250" y="0.01" type="curve" smooth="yes"/>
			<point x="293.44" y="0.01"/>
			<point x="333.58" y="13.61"/>
			<point x="366.44" y="36.85" type="curve"/>
			<point x="366.44" y="-196.68" type="line"/>
			<point x="366.44" y="-199.49" type="line"/>
			<point x="369.25" y="-199.49" type="line"/>
			<point x="449.13" y="-199.49" type="line"/>
			<point x="451.94" y="-199.49" type="line"/>
			<point x="451.94" y="-196.68" type="line"/>
			<point x="451.94" y="201.95" type="line"/>
			<point x="451.94" y="281.82" type="line"/>
			<point x="451.94" y="480.95" type="line"/>
			<point x="451.94" y="483.76" type="line"/>
			<point x="449.13" y="483.76" type="line"/>
			<point x="409.76" y="483.76" type="line"/>
			<point x="369.26" y="483.76" type="line"/>
			<point x="366.45" y="483.76" type="line"/>
			<point x="366.45" y="480.95" type="line"/>
			<point x="366.45" y="446.92" type="line"/>
			<point x="333.59" y="470.11"/>
			<point x="293.45" y="483.76"/>
		</contour>
	</outline>
</glyph>
<glyph name="r" format="2">
	<advance width="352"/>
	<unicode hex="0072"/>
	<note>
		r
  </note>
	<outline>
		<contour>
			<point x="143" y="484" type="line"/>
			<point x="58" y="484" type="line"/>
			<point x="58" y="3" type="line"/>
			<point x="58" y="0" type="line"/>
			<point x="61" y="0" type="line"/>
			<point x="100" y="0" type="line"/>
			<point x="140" y="0" type="line"/>
			<point x="143" y="0" type="line"/>
			<point x="143" y="3" type="line"/>
			<point x="143" y="282" type="line" smooth="yes"/>
			<point x="143" y="346"/>
			<point x="193" y="397"/>
			<point x="257" y="398" type="curve" smooth="yes"/>
			<point x="342" y="398" type="line"/>
			<point x="342" y="481" type="line"/>
			<point x="342" y="484" type="line"/>
			<point x="340" y="484" type="line"/>
			<point x="260" y="484" type="line"/>
			<point x="257" y="484" type="line" smooth="yes"/>
			<point x="214" y="483"/>
			<point x="175" y="470"/>
			<point x="143" y="447" type="curve"/>
		</contour>
	</outline>
</glyph>
<glyph name="s" format="2">
	<advance width="500"/>
	<unicode hex="0073"/>
	<note>
		s
  </note>
	<outline>
		<contour>
			<point x="450" y="484" type="line"/>
			<point x="249" y="484" type="line" smooth="yes"/>
			<point x="139" y="484"/>
			<point x="50" y="393"/>
			<point x="50" y="282" type="curve" smooth="yes"/>
			<point x="50" y="199" type="line"/>
			<point x="364" y="199" type="line"/>
			<point x="362" y="138"/>
			<point x="312" y="87"/>
			<point x="249" y="86" type="curve" smooth="yes"/>
			<point x="50" y="86" type="line"/>
			<point x="50" y="0" type="line"/>
			<point x="249" y="0" type="line" smooth="yes"/>
			<point x="360" y="2"/>
			<point x="450" y="91"/>
			<point x="450" y="202" type="curve" smooth="yes"/>
			<point x="450" y="285" type="line"/>
			<point x="135" y="285" type="line"/>
			<point x="137" y="347"/>
			<point x="187" y="398"/>
			<point x="249" y="398" type="curve" smooth="yes"/>
			<point x="450" y="398" type="line"/>
		</contour>
	</outline>
</glyph>
<glyph name="t" format="2">
	<advance width="352"/>
	<unicode hex="0074"/>
	<note>
		t
  </note>
	<outline>
		<contour>
			<point x="143" y="585" type="line"/>
			<point x="58" y="585" type="line"/>
			<point x="58" y="199" type="line" smooth="yes"/>
			<point x="59" y="90"/>
			<point x="148" y="2"/>
			<point x="258" y="0" type="curve" smooth="yes"/>
			<point x="342" y="0" type="line"/>
			<point x="342" y="86" type="line"/>
			<point x="258" y="86" type="line" smooth="yes"/>
			<point x="194" y="87"/>
			<point x="143" y="139"/>
			<point x="143" y="202" type="curve" smooth="yes"/>
			<point x="143" y="398" type="line"/>
			<point x="303" y="398" type="line"/>
			<point x="302.95" y="483.95" type="line"/>
			<point x="143" y="484" type="line"/>
		</contour>
	</outline>
</glyph>
<glyph name="u" format="2">
	<advance width="524"/>
	<unicode hex="0075"/>
	<anchor x="262" y="484" name="top"/>
	<note>
		u
  </note>
	<outline>
		<contour>
			<point x="146" y="484" type="line"/>
			<point x="60" y="484" type="line"/>
			<point x="60" y="202" type="line"/>
			<point x="60" y="199" type="line" smooth="yes"/>
			<point x="62" y="89"/>
			<point x="151" y="0"/>
			<point x="262" y="0" type="curve" smooth="yes"/>
			<point x="373" y="0"/>
			<point x="462" y="89"/>
			<point x="464" y="199" type="curve" smooth="yes"/>
			<point x="464" y="200"/>
			<point x="464" y="201"/>
			<point x="464" y="202" type="curve" smooth="yes"/>
			<point x="464" y="484" type="line"/>
			<point x="378" y="484" type="line"/>
			<point x="378" y="202" type="line" smooth="yes"/>
			<point x="378" y="138"/>
			<point x="327" y="86"/>
			<point x="262" y="86" type="curve" smooth="yes"/>
			<point x="197" y="86"/>
			<point x="146" y="138"/>
			<point x="146" y="202" type="curve" smooth="yes"/>
		</contour>
	</outline>
</glyph>
<glyph name="v" format="2">
	<advance width="441"/>
	<unicode hex="0076"/>
	<note>
		v
  </note>
	<outline>
		<contour>
			<point x="348" y="484" type="line"/>
			<point x="221" y="108" type="line"/>
			<point x="93" y="484" type="line"/>
			<point x="8" y="484" type="line"/>
			<point x="179" y="0" type="line"/>
			<point x="262" y="0" type="line"/>
			<point x="433" y="484" type="line"/>
		</contour>
	</outline>
</glyph>
<glyph name="w" format="2">
	<advance width="702"/>
	<unicode hex="0077"/>
	<note>
		w
  </note>
	<outline>
		<contour>
			<point x="608" y="484" type="line"/>
			<point x="450" y="106" type="line"/>
			<point x="394" y="242" type="line"/>
			<point x="495" y="484" type="line"/>
			<point x="409" y="484" type="line"/>
			<point x="351" y="345" type="line"/>
			<point x="293" y="484" type="line"/>
			<point x="207" y="484" type="line"/>
			<point x="308" y="242" type="line"/>
			<point x="252" y="106" type="line"/>
			<point x="94" y="484" type="line"/>
			<point x="8" y="484" type="line"/>
			<point x="210" y="0" type="line"/>
			<point x="293" y="0" type="line"/>
			<point x="351" y="139" type="line"/>
			<point x="409" y="0" type="line"/>
			<point x="492" y="0" type="line"/>
			<point x="694" y="484" type="line"/>
		</contour>
	</outline>
</glyph>
<glyph name="x" format="2">
	<advance width="383"/>
	<unicode hex="0078"/>
	<note>
		x
  </note>
	<outline>
		<contour>
			<point x="112" y="484" type="line"/>
			<point x="32" y="484" type="line"/>
			<point x="32" y="482" type="line"/>
			<point x="30" y="480" type="line"/>
			<point x="148" y="242" type="line"/>
			<point x="30" y="5" type="line"/>
			<point x="32" y="3" type="line"/>
			<point x="32" y="0" type="line"/>
			<point x="112" y="0" type="line"/>
			<point x="112" y="3" type="line"/>
			<point x="115" y="2" type="line"/>
			<point x="192" y="156" type="line"/>
			<point x="268" y="2" type="line"/>
			<point x="271" y="3" type="line"/>
			<point x="271" y="0" type="line"/>
			<point x="351" y="0" type="line"/>
			<point x="351" y="3" type="line"/>
			<point x="353" y="5" type="line"/>
			<point x="235" y="242" type="line"/>
			<point x="353" y="480" type="line"/>
			<point x="351" y="482" type="line"/>
			<point x="351" y="484" type="line"/>
			<point x="271" y="484" type="line"/>
			<point x="271" y="481" type="line"/>
			<point x="268" y="483" type="line"/>
			<point x="192" y="329" type="line"/>
			<point x="115" y="483" type="line"/>
			<point x="112" y="481" type="line"/>
		</contour>
	</outline>
</glyph>
<glyph name="y" format="2">
	<advance width="464"/>
	<unicode hex="0079"/>
	<anchor x="218" y="483" name="top"/>
	<note>
		y
  </note>
	<outline>
		<contour>
			<point x="363" y="484" type="line"/>
			<point x="79" y="-199" type="line"/>
			<point x="172" y="-199" type="line"/>
			<point x="456" y="484" type="line"/>
		</contour>
		<contour>
			<point x="248" y="-14" type="line"/>
			<point x="292" y="91" type="line"/>
			<point x="105" y="484" type="line"/>
			<point x="8" y="484" type="line"/>
		</contour>
	</outline>
</glyph>
<glyph name="z" format="2">
	<advance width="405"/>
	<unicode hex="007A"/>
	<note>
		z
  </note>
	<outline>
		<contour>
			<point x="362" y="484" type="line"/>
			<point x="40" y="484" type="line"/>
			<point x="40" y="399" type="line"/>
			<point x="238" y="399" type="line"/>
			<point x="40" y="5" type="line"/>
			<point x="43" y="0" type="line"/>
			<point x="365" y="0" type="line"/>
			<point x="365" y="86" type="line"/>
			<point x="167" y="86" type="line"/>
			<point x="365" y="480" type="line"/>
			<point x="362" y="481" type="line"/>
		</contour>
	</outline>
</glyph>
<glyph name="braceleft" format="2">
	<advance width="448"/>
	<unicode hex="007B"/>
	<outline>
		<contour>
			<point x="186" y="526" type="line"/>
			<point x="272" y="526" type="line"/>
			<point x="272" y="581" type="line"/>
			<point x="272" y="584" type="line" smooth="yes"/>
			<point x="272" y="647"/>
			<point x="323" y="698"/>
			<point x="385" y="698" type="curve" smooth="yes"/>
			<point x="388" y="698" type="line"/>
			<point x="388" y="783" type="line"/>
			<point x="385" y="783" type="line" smooth="yes"/>
			<point x="276" y="783"/>
			<point x="186" y="694"/>
			<point x="186" y="584" type="curve" smooth="yes"/>
			<point x="186" y="581" type="line"/>
		</contour>
		<contour>
			<point x="272" y="573" type="line"/>
			<point x="186" y="573" type="line"/>
			<point x="186" y="518" type="line"/>
			<point x="186" y="515" type="line" smooth="yes"/>
			<point x="186" y="452"/>
			<point x="135" y="401"/>
			<point x="73" y="401" type="curve" smooth="yes"/>
			<point x="70" y="401" type="line"/>
			<point x="70" y="316" type="line"/>
			<point x="73" y="316" type="line" smooth="yes"/>
			<point x="182" y="316"/>
			<point x="272" y="405"/>
			<point x="272" y="515" type="curve" smooth="yes"/>
			<point x="272" y="518" type="line"/>
		</contour>
		<contour>
			<point x="186" y="191" type="line"/>
			<point x="186" y="136" type="line"/>
			<point x="186" y="133" type="line" smooth="yes"/>
			<point x="186" y="23"/>
			<point x="276" y="-66"/>
			<point x="385" y="-66" type="curve" smooth="yes"/>
			<point x="388" y="-66" type="line"/>
			<point x="388" y="19" type="line"/>
			<point x="385" y="19" type="line" smooth="yes"/>
			<point x="323" y="19"/>
			<point x="272" y="70"/>
			<point x="272" y="133" type="curve" smooth="yes"/>
			<point x="272" y="136" type="line"/>
			<point x="272" y="191" type="line"/>
		</contour>
		<contour>
			<point x="272" y="144" type="line"/>
			<point x="272" y="199" type="line"/>
			<point x="272" y="202" type="line" smooth="yes"/>
			<point x="272" y="312"/>
			<point x="182" y="401"/>
			<point x="73" y="401" type="curve" smooth="yes"/>
			<point x="70" y="401" type="line"/>
			<point x="70" y="316" type="line"/>
			<point x="73" y="316" type="line" smooth="yes"/>
			<point x="135" y="316"/>
			<point x="186" y="265"/>
			<point x="186" y="202" type="curve" smooth="yes"/>
			<point x="186" y="199" type="line"/>
			<point x="186" y="144" type="line"/>
		</contour>
	</outline>
</glyph>
<glyph name="sterling" format="2">
	<advance width="499"/>
	<unicode hex="00A3"/>
	<outline>
		<contour>
			<point x="171" y="337" type="line"/>
			<point x="257" y="337" type="line"/>
			<point x="257" y="521" type="line"/>
			<point x="257" y="524" type="line" smooth="yes"/>
			<point x="257" y="587"/>
			<point x="308" y="638"/>
			<point x="370" y="638" type="curve" smooth="yes"/>
			<point x="373" y="638" type="line"/>
			<point x="393" y="638" type="line"/>
			<point x="449" y="638" type="line"/>
			<point x="449" y="638" type="line"/>
			<point x="449" y="641" type="line"/>
			<point x="449" y="721" type="line"/>
			<point x="449" y="723" type="line"/>
			<point x="449" y="723" type="line"/>
			<point x="373" y="723" type="line"/>
			<point x="370" y="723" type="line" smooth="yes"/>
			<point x="261" y="723"/>
			<point x="171" y="634"/>
			<point x="171" y="524" type="curve" smooth="yes"/>
			<point x="171" y="521" type="line"/>
		</contour>
		<contour>
			<point x="257" y="387" type="line"/>
			<point x="171" y="387" type="line"/>
			<point x="171" y="203" type="line"/>
			<point x="171" y="200" type="line" smooth="yes"/>
			<point x="171" y="137"/>
			<point x="120" y="86"/>
			<point x="58" y="86" type="curve" smooth="yes"/>
			<point x="55" y="86" type="line"/>
			<point x="55" y="1" type="line"/>
			<point x="58" y="1" type="line" smooth="yes"/>
			<point x="167" y="1"/>
			<point x="257" y="90"/>
			<point x="257" y="200" type="curve" smooth="yes"/>
			<point x="257" y="203" type="line"/>
		</contour>
		<contour>
			<point x="55" y="84" type="line"/>
			<point x="55" y="0" type="line"/>
			<point x="449" y="0" type="line"/>
			<point x="449" y="84" type="line"/>
		</contour>
		<contour>
			<point x="50" y="394" type="line"/>
			<point x="50" y="309" type="line"/>
			<point x="449" y="309" type="line"/>
			<point x="449" y="311" type="line"/>
			<point x="449" y="391" type="line"/>
			<point x="449" y="394" type="line"/>
			<point x="449" y="394" type="line"/>
		</contour>
	</outline>
</glyph>
<glyph name="dieresis" format="2">
	<advance width="380"/>
	<unicode hex="00A8"/>
	<anchor x="190" y="577" name="_top"/>
	<outline>
		<contour>
			<point x="107" y="607" type="curve" smooth="yes"/>
			<point x="140" y="607"/>
			<point x="167" y="634"/>
			<point x="167" y="668" type="curve" smooth="yes"/>
			<point x="167" y="701"/>
			<point x="140" y="728"/>
			<point x="107" y="728" type="curve" smooth="yes"/>
			<point x="74" y="728"/>
			<point x="46" y="701"/>
			<point x="46" y="668" type="curve" smooth="yes"/>
			<point x="46" y="634"/>
			<point x="74" y="607"/>
		</contour>
		<contour>
			<point x="274" y="607" type="curve" smooth="yes"/>
			<point x="306" y="607"/>
			<point x="334" y="634"/>
			<point x="334" y="668" type="curve" smooth="yes"/>
			<point x="334" y="701"/>
			<point x="306" y="728"/>
			<point x="274" y="728" type="curve" smooth="yes"/>
			<point x="240" y="728"/>
			<point x="213" y="701"/>
			<point x="213" y="668" type="curve" smooth="yes"/>
			<point x="213" y="634"/>
			<point x="240" y="607"/>
		</contour>
	</outline>
</glyph>
<glyph name="vtf" format="2">
	<advance width="1000"/>
	<unicode hex="00A9"/>
	<note>
		copyright
  </note>
	<outline>
		<contour>
			<point x="542.06" y="201.94" type="curve" smooth="yes"/>
			<point x="542.05" y="398.25" type="line"/>
			<point x="655.68" y="398.25" type="line"/>
			<point x="655.68" y="85.5" type="line"/>
			<point x="593.26" y="87.04"/>
			<point x="542.06" y="139.18"/>
		</contour>
		<contour>
			<point x="459.41" y="723.39" type="line"/>
			<point x="456.56" y="723.38" type="line"/>
			<point x="456.56" y="720.57" type="line"/>
			<point x="456.56" y="481.51" type="line"/>
			<point x="300.19" y="106.32" type="line"/>
			<point x="143.82" y="482.07" type="line"/>
			<point x="141.01" y="480.95" type="line"/>
			<point x="141.01" y="483.76" type="line"/>
			<point x="61.14" y="483.76" type="line"/>
			<point x="61.14" y="480.95" type="line"/>
			<point x="58.61" y="479.82" type="line"/>
			<point x="257.45" y="1.7" type="line"/>
			<point x="260.26" y="2.83" type="line"/>
			<point x="260.26" y="0.02" type="line"/>
			<point x="340.14" y="0.02" type="line"/>
			<point x="340.14" y="2.83" type="line"/>
			<point x="342.67" y="1.71" type="line"/>
			<point x="456.58" y="274.8" type="line"/>
			<point x="456.58" y="201.96" type="line"/>
			<point x="456.58" y="199.15" type="line" smooth="yes"/>
			<point x="458.1" y="88.67"/>
			<point x="548.8" y="0.02"/>
			<point x="658.52" y="0.02" type="curve" smooth="yes"/>
			<point x="699.02" y="0.02" type="line"/>
			<point x="738.4" y="0.02" type="line"/>
			<point x="741.21" y="0.02" type="line"/>
			<point x="741.21" y="2.83" type="line"/>
			<point x="741.21" y="279.02" type="line"/>
			<point x="818.27" y="279.02" type="line"/>
			<point x="898.15" y="279.02" type="line"/>
			<point x="900.96" y="279.02" type="line"/>
			<point x="900.96" y="281.83" type="line"/>
			<point x="900.96" y="361.71" type="line"/>
			<point x="900.96" y="364.52" type="line"/>
			<point x="898.15" y="364.52" type="line"/>
			<point x="741.21" y="364.52" type="line"/>
			<point x="741.21" y="521.46" type="line" smooth="yes"/>
			<point x="741.21" y="584.23"/>
			<point x="792.41" y="636.39"/>
			<point x="855.96" y="637.9" type="curve" smooth="yes"/>
			<point x="858.77" y="637.9" type="line"/>
			<point x="898.15" y="637.9" type="line"/>
			<point x="938.65" y="637.9" type="line"/>
			<point x="941.46" y="637.9" type="line"/>
			<point x="941.46" y="640.71" type="line"/>
			<point x="941.46" y="720.58" type="line"/>
			<point x="941.46" y="723.39" type="line"/>
			<point x="938.65" y="723.39" type="line"/>
			<point x="858.78" y="723.39" type="line"/>
			<point x="855.97" y="723.39" type="line" smooth="yes"/>
			<point x="746.44" y="721.9"/>
			<point x="657.23" y="633.79"/>
			<point x="655.72" y="524.27" type="curve" smooth="yes"/>
			<point x="655.72" y="521.46" type="line"/>
			<point x="655.72" y="483.77" type="line"/>
			<point x="619.16" y="483.77" type="line"/>
			<point x="542.1" y="483.77" type="line"/>
			<point x="542.1" y="720.58" type="line"/>
			<point x="542.1" y="723.39" type="line"/>
			<point x="539.29" y="723.39" type="line"/>
			<point x="499.91" y="723.39" type="line"/>
		</contour>
	</outline>
</glyph>
<glyph name="degree" format="2">
	<advance width="600"/>
	<unicode hex="00B0"/>
	<outline>
		<contour>
			<point x="299" y="723" type="curve" smooth="yes"/>
			<point x="189" y="723"/>
			<point x="98" y="633"/>
			<point x="98" y="521" type="curve" smooth="yes"/>
			<point x="98" y="409"/>
			<point x="189" y="319"/>
			<point x="299" y="319" type="curve" smooth="yes"/>
			<point x="411" y="319"/>
			<point x="503" y="409"/>
			<point x="503" y="521" type="curve" smooth="yes"/>
			<point x="503" y="633"/>
			<point x="411" y="723"/>
		</contour>
		<contour>
			<point x="299" y="643" type="curve" smooth="yes"/>
			<point x="367" y="643"/>
			<point x="423" y="589"/>
			<point x="423" y="521" type="curve" smooth="yes"/>
			<point x="423" y="453"/>
			<point x="367" y="399"/>
			<point x="299" y="399" type="curve" smooth="yes"/>
			<point x="233" y="399"/>
			<point x="177" y="453"/>
			<point x="177" y="521" type="curve" smooth="yes"/>
			<point x="177" y="589"/>
			<point x="233" y="643"/>
		</contour>
	</outline>
</glyph>
<glyph name="acute" format="2">
	<advance width="505"/>
	<unicode hex="00B4"/>
	<anchor x="231" y="484" name="_top"/>
	<outline>
		<contour>
			<point x="392" y="686" type="line"/>
			<point x="307" y="686" type="line"/>
			<point x="307" y="683" type="line"/>
			<point x="307" y="619"/>
			<point x="255" y="567"/>
			<point x="190" y="567" type="curve"/>
			<point x="188" y="567" type="line"/>
			<point x="188" y="481" type="line"/>
			<point x="190" y="481" type="line"/>
			<point x="302" y="481"/>
			<point x="392" y="571"/>
			<point x="392" y="683" type="curve"/>
		</contour>
	</outline>
</glyph>
<glyph name="cedilla" format="2">
	<advance width="380"/>
	<unicode hex="00B8"/>
	<anchor x="251" y="3" name="_bottom"/>
	<outline>
		<contour>
			<point x="293" y="20" type="line"/>
			<point x="208" y="20" type="line"/>
			<point x="208" y="2" type="line" smooth="yes"/>
			<point x="208" y="-61"/>
			<point x="155" y="-114"/>
			<point x="90" y="-114" type="curve" smooth="yes"/>
			<point x="87" y="-114" type="line"/>
			<point x="87" y="-117" type="line"/>
			<point x="87" y="-197" type="line"/>
			<point x="87" y="-200" type="line"/>
			<point x="90" y="-200" type="line" smooth="yes"/>
			<point x="202" y="-200"/>
			<point x="293" y="-109"/>
			<point x="293" y="2" type="curve" smooth="yes"/>
		</contour>
	</outline>
</glyph>
<glyph name="AE" format="2">
	<advance width="714"/>
	<unicode hex="00C6"/>
	<anchor x="183" y="723" name="top"/>
	<outline>
		<contour>
			<point x="431" y="639" type="line"/>
			<point x="431" y="723" type="line"/>
			<point x="190" y="723" type="line"/>
			<point x="30" y="0" type="line"/>
			<point x="115" y="0" type="line"/>
			<point x="169" y="240" type="line"/>
			<point x="384" y="240" type="line"/>
			<point x="384" y="325" type="line"/>
			<point x="188" y="325" type="line"/>
			<point x="257" y="639" type="line"/>
		</contour>
		<component base="E" xOffset="240"/>
	</outline>
</glyph>
<glyph name="germandbls" format="2">
	<advance width="556"/>
	<unicode hex="00DF"/>
	<outline>
		<contour>
			<point x="420" y="520" type="line"/>
			<point x="420" y="401" type="line"/>
			<point x="504" y="401" type="line"/>
			<point x="504" y="520" type="line"/>
		</contour>
		<contour>
			<point x="156" y="723" type="line"/>
			<point x="70" y="723" type="line"/>
			<point x="70" y="0" type="line"/>
			<point x="156" y="0" type="line"/>
		</contour>
		<contour>
			<point x="452" y="484" type="line"/>
			<point x="450" y="484" type="line" smooth="yes"/>
			<point x="340" y="484"/>
			<point x="251" y="393"/>
			<point x="251" y="282" type="curve" smooth="yes"/>
			<point x="251" y="202" type="line"/>
			<point x="251" y="199" type="line"/>
			<point x="253" y="199" type="line"/>
			<point x="402" y="199" type="line"/>
			<point x="420" y="199" type="line"/>
			<point x="418" y="138"/>
			<point x="368" y="86"/>
			<point x="305" y="86" type="curve" smooth="yes"/>
			<point x="304" y="86"/>
			<point x="303" y="86"/>
			<point x="302" y="86" type="curve"/>
			<point x="253" y="86" type="line"/>
			<point x="253" y="83" type="line"/>
			<point x="253" y="3" type="line"/>
			<point x="253" y="0" type="line"/>
			<point x="302" y="0" type="line"/>
			<point x="303" y="0"/>
			<point x="304" y="0"/>
			<point x="305" y="0" type="curve" smooth="yes"/>
			<point x="416" y="0"/>
			<point x="506" y="91"/>
			<point x="506" y="202" type="curve" smooth="yes"/>
			<point x="506" y="282" type="line"/>
			<point x="506" y="285" type="line"/>
			<point x="503" y="285" type="line"/>
			<point x="336" y="285" type="line"/>
			<point x="338" y="347"/>
			<point x="388" y="398"/>
			<point x="450" y="398" type="curve" smooth="yes"/>
			<point x="452" y="398" type="line"/>
			<point x="453" y="398" type="line"/>
			<point x="501" y="398" type="line"/>
			<point x="504" y="398" type="line"/>
			<point x="504" y="401" type="line"/>
			<point x="504" y="481" type="line"/>
			<point x="504" y="484" type="line"/>
			<point x="501" y="484" type="line"/>
		</contour>
		<contour>
			<point x="292" y="722" type="curve"/>
			<point x="302" y="637" type="line"/>
			<point x="367" y="637"/>
			<point x="420" y="585"/>
			<point x="420" y="520" type="curve"/>
			<point x="504" y="520" type="line"/>
			<point x="504" y="632"/>
			<point x="414" y="722"/>
			<point x="302" y="722" type="curve" smooth="yes"/>
			<point x="299" y="722"/>
			<point x="295" y="722"/>
		</contour>
		<contour>
			<point x="149" y="723" type="line"/>
			<point x="149" y="637" type="line"/>
			<point x="302" y="637" type="line"/>
			<point x="302" y="723" type="line"/>
		</contour>
	</outline>
</glyph>
<glyph name="agrave" format="2">
	<advance width="578"/>
	<unicode hex="00E0"/>
	<outline>
		<contour>
			<point x="270" y="507" type="line"/>
			<point x="270" y="454" type="line"/>
			<point x="294" y="454" type="line"/>
			<point x="294" y="507" type="line"/>
		</contour>
		<component base="a"/>
		<component base="grave" xOffset="-98"/>
	</outline>
</glyph>
<glyph name="aacute" format="2">
	<advance width="578"/>
	<unicode hex="00E1"/>
	<outline>
		<contour>
			<point x="208" y="500" type="line"/>
			<point x="208" y="456" type="line"/>
			<point x="232" y="456" type="line"/>
			<point x="232" y="500" type="line"/>
		</contour>
		<component base="a"/>
		<component base="acute" xOffset="20"/>
	</outline>
</glyph>
<glyph name="ae" format="2">
	<advance width="884"/>
	<unicode hex="00E6"/>
	<anchor x="250" y="484" name="top"/>
	<note>
		ae
  </note>
	<outline>
		<contour>
			<point x="228" y="0" type="curve" smooth="yes"/>
			<point x="328" y="0"/>
			<point x="410" y="82"/>
			<point x="410" y="184" type="curve" smooth="yes"/>
			<point x="410" y="282"/>
			<point x="328" y="365"/>
			<point x="228" y="365" type="curve" smooth="yes"/>
			<point x="128" y="365"/>
			<point x="45" y="282"/>
			<point x="45" y="184" type="curve" smooth="yes"/>
			<point x="45" y="82"/>
			<point x="128" y="0"/>
		</contour>
		<contour>
			<point x="227" y="84" type="curve" smooth="yes"/>
			<point x="175" y="84"/>
			<point x="130" y="128"/>
			<point x="130" y="184" type="curve" smooth="yes"/>
			<point x="130" y="235"/>
			<point x="175" y="280"/>
			<point x="227" y="280" type="curve" smooth="yes"/>
			<point x="282" y="280"/>
			<point x="326" y="235"/>
			<point x="326" y="184" type="curve" smooth="yes"/>
			<point x="326" y="128"/>
			<point x="282" y="84"/>
		</contour>
		<contour>
			<point x="432" y="169" type="line"/>
			<point x="518" y="169" type="line"/>
			<point x="518" y="285" type="line" smooth="yes"/>
			<point x="518" y="395"/>
			<point x="428" y="484"/>
			<point x="319" y="484" type="curve" smooth="yes"/>
			<point x="88" y="484" type="line"/>
			<point x="88" y="399" type="line"/>
			<point x="319" y="399" type="line" smooth="yes"/>
			<point x="381" y="399"/>
			<point x="432" y="348"/>
			<point x="432" y="285" type="curve" smooth="yes"/>
		</contour>
		<contour>
			<point x="364" y="227" type="line"/>
			<point x="364" y="142" type="line"/>
			<point x="463" y="142" type="line"/>
			<point x="463" y="227" type="line"/>
		</contour>
		<component base="e" xOffset="387"/>
	</outline>
</glyph>
<glyph name="egrave" format="2">
	<advance width="500"/>
	<unicode hex="00E8"/>
	<outline>
		<contour>
			<point x="270" y="538" type="line"/>
			<point x="270" y="454" type="line"/>
			<point x="293" y="454" type="line"/>
			<point x="293" y="538" type="line"/>
		</contour>
		<component base="e"/>
		<component base="grave" xOffset="-99"/>
	</outline>
</glyph>
<glyph name="eacute" format="2">
	<advance width="500"/>
	<unicode hex="00E9"/>
	<note>
		eacute
  </note>
	<outline>
		<contour>
			<point x="207" y="511" type="line"/>
			<point x="207" y="457" type="line"/>
			<point x="223" y="457" type="line"/>
			<point x="223" y="511" type="line"/>
		</contour>
		<component base="e"/>
		<component base="acute" xOffset="19"/>
	</outline>
</glyph>
<glyph name="oslash" format="2">
	<advance width="495"/>
	<unicode hex="00F8"/>
	<outline>
		<contour>
			<point x="60" y="0" type="line"/>
			<point x="151" y="0" type="line"/>
			<point x="438" y="483" type="line"/>
			<point x="348" y="483" type="line"/>
		</contour>
		<component base="o"/>
	</outline>
</glyph>
<glyph name="dotlessi" format="2">
	<advance width="206"/>
	<unicode hex="0131"/>
	<anchor x="103" y="483" name="top"/>
	<outline>
		<contour>
			<point x="146" y="484" type="line"/>
			<point x="60" y="484" type="line"/>
			<point x="60" y="0" type="line"/>
			<point x="146" y="0" type="line"/>
		</contour>
	</outline>
</glyph>
<glyph name="oe" format="2">
	<advance width="816"/>
	<unicode hex="0153"/>
	<note>
		oe
  </note>
	<outline>
		<contour>
			<point x="565" y="399" type="curve" smooth="yes"/>
			<point x="629" y="399"/>
			<point x="681" y="348"/>
			<point x="683" y="285" type="curve"/>
			<point x="449" y="285" type="line"/>
			<point x="451" y="348"/>
			<point x="502" y="399"/>
		</contour>
		<contour>
			<point x="247" y="399" type="curve" smooth="yes"/>
			<point x="312" y="399"/>
			<point x="363" y="347"/>
			<point x="363" y="282" type="curve" smooth="yes"/>
			<point x="363" y="202" type="line" smooth="yes"/>
			<point x="363" y="138"/>
			<point x="312" y="86"/>
			<point x="247" y="86" type="curve" smooth="yes"/>
			<point x="182" y="86"/>
			<point x="130" y="138"/>
			<point x="130" y="202" type="curve" smooth="yes"/>
			<point x="130" y="282" type="line"/>
			<point x="130" y="285" type="line" smooth="yes"/>
			<point x="132" y="348"/>
			<point x="183" y="399"/>
		</contour>
		<contour>
			<point x="247" y="484" type="curve" smooth="yes"/>
			<point x="236" y="484" type="line" smooth="yes"/>
			<point x="129" y="478"/>
			<point x="45" y="390"/>
			<point x="45" y="282" type="curve" smooth="yes"/>
			<point x="45" y="202" type="line"/>
			<point x="45" y="199" type="line" smooth="yes"/>
			<point x="46" y="90"/>
			<point x="136" y="0"/>
			<point x="247" y="0" type="curve" smooth="yes"/>
			<point x="312" y="0"/>
			<point x="369" y="31"/>
			<point x="406" y="78" type="curve"/>
			<point x="443" y="32"/>
			<point x="499" y="1"/>
			<point x="562" y="0" type="curve" smooth="yes"/>
			<point x="563" y="0"/>
			<point x="564" y="0"/>
			<point x="565" y="0" type="curve" smooth="yes"/>
			<point x="665" y="0" type="line"/>
			<point x="765" y="0" type="line"/>
			<point x="768" y="0" type="line"/>
			<point x="768" y="3" type="line"/>
			<point x="768" y="83" type="line"/>
			<point x="768" y="86" type="line"/>
			<point x="765" y="86" type="line"/>
			<point x="565" y="86" type="line" smooth="yes"/>
			<point x="564" y="86"/>
			<point x="563" y="85"/>
			<point x="562" y="86" type="curve" smooth="yes"/>
			<point x="501" y="87"/>
			<point x="451" y="138"/>
			<point x="449" y="199" type="curve"/>
			<point x="565" y="199" type="line"/>
			<point x="765" y="199" type="line"/>
			<point x="768" y="199" type="line"/>
			<point x="768" y="202" type="line"/>
			<point x="768" y="282" type="line" smooth="yes"/>
			<point x="768" y="394"/>
			<point x="677" y="484"/>
			<point x="565" y="484" type="curve" smooth="yes"/>
			<point x="501" y="484"/>
			<point x="443" y="453"/>
			<point x="406" y="406" type="curve"/>
			<point x="369" y="454"/>
			<point x="312" y="484"/>
		</contour>
	</outline>
</glyph>
<glyph name="circumflex" format="2">
	<advance width="461"/>
	<unicode hex="02C6"/>
	<anchor x="236" y="484" name="_top"/>
	<outline>
		<contour>
			<point x="271" y="479" type="line"/>
			<point x="357" y="479" type="line"/>
			<point x="279" y="654" type="line"/>
			<point x="194" y="655" type="line"/>
			<point x="116" y="479" type="line"/>
			<point x="201" y="479" type="line"/>
			<point x="236" y="557" type="line"/>
		</contour>
	</outline>
</glyph>
<glyph name="ring" format="2">
	<advance width="269"/>
	<unicode hex="02DA"/>
	<anchor x="134" y="484" name="_top"/>
	<outline>
		<contour>
			<point x="134" y="713" type="curve" smooth="yes"/>
			<point x="72" y="713"/>
			<point x="20" y="661"/>
			<point x="20" y="598" type="curve" smooth="yes"/>
			<point x="20" y="535"/>
			<point x="72" y="484"/>
			<point x="134" y="484" type="curve" smooth="yes"/>
			<point x="197" y="484"/>
			<point x="249" y="535"/>
			<point x="249" y="598" type="curve" smooth="yes"/>
			<point x="249" y="661"/>
			<point x="197" y="713"/>
		</contour>
		<contour>
			<point x="134" y="632" type="curve" smooth="yes"/>
			<point x="153" y="632"/>
			<point x="168" y="617"/>
			<point x="168" y="598" type="curve" smooth="yes"/>
			<point x="168" y="580"/>
			<point x="153" y="565"/>
			<point x="134" y="565" type="curve" smooth="yes"/>
			<point x="116" y="565"/>
			<point x="100" y="580"/>
			<point x="100" y="598" type="curve" smooth="yes"/>
			<point x="100" y="617"/>
			<point x="116" y="632"/>
		</contour>
	</outline>
</glyph>
<glyph name="tilde" format="2">
	<advance width="354"/>
	<unicode hex="02DC"/>
	<anchor x="184" y="483" name="_top"/>
	<outline>
		<contour>
			<point x="229" y="644" type="curve" smooth="yes"/>
			<point x="165" y="644"/>
			<point x="155" y="577"/>
			<point x="125" y="577" type="curve" smooth="yes"/>
			<point x="113" y="577"/>
			<point x="103" y="587"/>
			<point x="103" y="599" type="curve" smooth="yes"/>
			<point x="103" y="642" type="line"/>
			<point x="30" y="642" type="line"/>
			<point x="30" y="598" type="line" smooth="yes"/>
			<point x="30" y="546"/>
			<point x="73" y="504"/>
			<point x="125" y="504" type="curve" smooth="yes"/>
			<point x="189" y="504"/>
			<point x="199" y="571"/>
			<point x="229" y="571" type="curve" smooth="yes"/>
			<point x="241" y="571"/>
			<point x="251" y="561"/>
			<point x="251" y="549" type="curve" smooth="yes"/>
			<point x="251" y="502" type="line"/>
			<point x="324" y="502" type="line"/>
			<point x="324" y="550" type="line" smooth="yes"/>
			<point x="324" y="602"/>
			<point x="281" y="644"/>
		</contour>
	</outline>
</glyph>
<glyph name="endash" format="2">
	<advance width="647"/>
	<unicode hex="2013"/>
	<outline>
		<contour>
			<point x="93" y="323" type="line"/>
			<point x="90" y="323" type="line"/>
			<point x="90" y="320" type="line"/>
			<point x="90" y="240" type="line"/>
			<point x="90" y="238" type="line"/>
			<point x="93" y="238" type="line"/>
			<point x="555" y="238" type="line"/>
			<point x="557" y="238" type="line"/>
			<point x="557" y="240" type="line"/>
			<point x="557" y="320" type="line"/>
			<point x="557" y="323" type="line"/>
			<point x="555" y="323" type="line"/>
		</contour>
	</outline>
</glyph>
<glyph name="emdash" format="2">
	<advance width="1041"/>
	<unicode hex="2014"/>
	<outline>
		<contour>
			<point x="93" y="323" type="line"/>
			<point x="90" y="323" type="line"/>
			<point x="90" y="320" type="line"/>
			<point x="90" y="240" type="line"/>
			<point x="90" y="238" type="line"/>
			<point x="93" y="238" type="line"/>
			<point x="949" y="238" type="line"/>
			<point x="951" y="238" type="line"/>
			<point x="951" y="240" type="line"/>
			<point x="951" y="320" type="line"/>
			<point x="951" y="323" type="line"/>
			<point x="949" y="323" type="line"/>
		</contour>
	</outline>
</glyph>
<glyph name="quoteright" format="2">
	<advance width="300"/>
	<unicode hex="2019"/>
	<note>
		quoteright
  </note>
	<outline>
		<contour>
			<point x="250" y="723" type="line"/>
			<point x="170" y="723" type="line"/>
			<point x="170" y="720" type="line"/>
			<point x="167" y="720" type="line"/>
			<point x="167" y="656"/>
			<point x="115" y="604"/>
			<point x="50" y="604" type="curve"/>
			<point x="50" y="601" type="line"/>
			<point x="48" y="601" type="line"/>
			<point x="48" y="521" type="line"/>
			<point x="50" y="521" type="line"/>
			<point x="50" y="518" type="line"/>
			<point x="162" y="518"/>
			<point x="252" y="608"/>
			<point x="252" y="720" type="curve"/>
			<point x="250" y="720" type="line"/>
		</contour>
	</outline>
</glyph>
<glyph name="bullet" format="2">
	<advance width="583"/>
	<unicode hex="2022"/>
	<outline>
		<contour>
			<point x="292" y="198" type="curve" smooth="yes"/>
			<point x="370" y="198"/>
			<point x="433" y="261"/>
			<point x="433" y="340" type="curve" smooth="yes"/>
			<point x="433" y="418"/>
			<point x="370" y="481"/>
			<point x="292" y="481" type="curve" smooth="yes"/>
			<point x="213" y="481"/>
			<point x="150" y="418"/>
			<point x="150" y="340" type="curve" smooth="yes"/>
			<point x="150" y="261"/>
			<point x="213" y="198"/>
		</contour>
	</outline>
</glyph>
<glyph name="guilsinglright" format="2">
	<advance width="361"/>
	<unicode hex="203A"/>
	<outline>
		<contour>
			<point x="311" y="275" type="line"/>
			<point x="214" y="275" type="line"/>
			<point x="50" y="69" type="line"/>
			<point x="52" y="68" type="line"/>
			<point x="52" y="66" type="line"/>
			<point x="142" y="66" type="line"/>
			<point x="142" y="68" type="line"/>
			<point x="145" y="68" type="line"/>
		</contour>
		<contour>
			<point x="311" y="275" type="line"/>
			<point x="145" y="481" type="line"/>
			<point x="142" y="480" type="line"/>
			<point x="142" y="483" type="line"/>
			<point x="52" y="483" type="line"/>
			<point x="52" y="480" type="line"/>
			<point x="50" y="480" type="line"/>
			<point x="214" y="275" type="line"/>
		</contour>
	</outline>
</glyph>
<glyph name="Euro" format="2">
	<advance width="502"/>
	<unicode hex="20AC"/>
	<outline>
		<contour>
			<point x="342" y="723" type="line"/>
			<point x="339" y="723" type="line" smooth="yes"/>
			<point x="230" y="723"/>
			<point x="140" y="634"/>
			<point x="140" y="524" type="curve" smooth="yes"/>
			<point x="140" y="521" type="line"/>
			<point x="140" y="202" type="line"/>
			<point x="140" y="199" type="line" smooth="yes"/>
			<point x="140" y="90"/>
			<point x="231" y="0"/>
			<point x="342" y="0" type="curve" smooth="yes"/>
			<point x="451" y="0" type="line"/>
			<point x="454" y="0" type="line"/>
			<point x="454" y="3" type="line"/>
			<point x="454" y="83" type="line"/>
			<point x="454" y="86" type="line"/>
			<point x="451" y="86" type="line"/>
			<point x="351" y="86" type="line"/>
			<point x="342" y="86" type="line" smooth="yes"/>
			<point x="277" y="86"/>
			<point x="226" y="138"/>
			<point x="226" y="202" type="curve" smooth="yes"/>
			<point x="226" y="521" type="line"/>
			<point x="226" y="524" type="line" smooth="yes"/>
			<point x="226" y="587"/>
			<point x="277" y="638"/>
			<point x="339" y="638" type="curve" smooth="yes"/>
			<point x="342" y="638" type="line"/>
			<point x="352" y="638" type="line"/>
			<point x="451" y="638" type="line"/>
			<point x="454" y="638" type="line"/>
			<point x="454" y="641" type="line"/>
			<point x="454" y="721" type="line"/>
			<point x="454" y="723" type="line"/>
			<point x="451" y="723" type="line"/>
		</contour>
		<contour>
			<point x="31" y="484" type="line"/>
			<point x="31" y="399" type="line"/>
			<point x="442" y="399" type="line"/>
			<point x="445" y="399" type="line"/>
			<point x="445" y="401" type="line"/>
			<point x="445" y="481" type="line"/>
			<point x="445" y="484" type="line"/>
			<point x="442" y="484" type="line"/>
		</contour>
		<contour>
			<point x="31" y="314" type="line"/>
			<point x="31" y="229" type="line"/>
			<point x="442" y="229" type="line"/>
			<point x="445" y="229" type="line"/>
			<point x="445" y="231" type="line"/>
			<point x="445" y="311" type="line"/>
			<point x="445" y="314" type="line"/>
			<point x="442" y="314" type="line"/>
		</contour>
	</outline>
</glyph>
<glyph name="A.small" format="2">
	<advance width="444"/>
	<anchor x="222" y="484" name="top"/>
	<outline>
		<contour>
			<point x="362" y="131" type="line"/>
			<point x="329" y="216" type="line"/>
			<point x="115" y="216" type="line"/>
			<point x="82" y="131" type="line"/>
		</contour>
		<component base="v" yScale="-1" yOffset="484"/>
	</outline>
</glyph>
<glyph name="AE.small" format="2">
	<advance width="724"/>
	<outline>
		<contour>
			<point x="354" y="400" type="line"/>
			<point x="354" y="484" type="line"/>
			<point x="113" y="484" type="line"/>
			<point x="8" y="0" type="line"/>
			<point x="93" y="0" type="line"/>
			<point x="137" y="192" type="line"/>
			<point x="352" y="192" type="line"/>
			<point x="352" y="277" type="line"/>
			<point x="156" y="277" type="line"/>
			<point x="180" y="400" type="line"/>
		</contour>
		<component base="E.small" xOffset="250"/>
	</outline>
</glyph>
<glyph name="B.small" format="2">
	<advance width="530"/>
	<outline>
		<contour>
			<point x="435" y="254" type="curve"/>
			<point x="457" y="278"/>
			<point x="471" y="310"/>
			<point x="471" y="346" type="curve" smooth="yes"/>
			<point x="471" y="422"/>
			<point x="409" y="484"/>
			<point x="333" y="484" type="curve" smooth="yes"/>
			<point x="332" y="484" type="line"/>
			<point x="70" y="484" type="line"/>
			<point x="70" y="0" type="line"/>
			<point x="332" y="0" type="line" smooth="yes"/>
			<point x="413" y="0"/>
			<point x="480" y="66"/>
			<point x="480" y="148" type="curve" smooth="yes"/>
			<point x="480" y="189"/>
			<point x="462" y="227"/>
		</contour>
		<contour>
			<point x="332" y="398" type="line"/>
			<point x="333" y="398" type="line" smooth="yes"/>
			<point x="363" y="398"/>
			<point x="385" y="376"/>
			<point x="385" y="346" type="curve" smooth="yes"/>
			<point x="385" y="318"/>
			<point x="363" y="295"/>
			<point x="333" y="295" type="curve" smooth="yes"/>
			<point x="156" y="295" type="line"/>
			<point x="156" y="398" type="line"/>
		</contour>
		<contour>
			<point x="332" y="86" type="curve" smooth="yes"/>
			<point x="156" y="86" type="line"/>
			<point x="156" y="209" type="line"/>
			<point x="332" y="209" type="line" smooth="yes"/>
			<point x="366" y="209"/>
			<point x="394" y="182"/>
			<point x="394" y="148" type="curve" smooth="yes"/>
			<point x="394" y="114"/>
			<point x="366" y="86"/>
		</contour>
	</outline>
</glyph>
<glyph name="C.small" format="2">
	<advance width="475"/>
	<anchor x="310" y="0" name="bottom"/>
	<outline>
		<contour>
			<point x="247" y="484" type="line"/>
			<point x="244" y="484" type="line" smooth="yes"/>
			<point x="135" y="484"/>
			<point x="45" y="395"/>
			<point x="45" y="285" type="curve" smooth="yes"/>
			<point x="45" y="282" type="line"/>
			<point x="45" y="202" type="line"/>
			<point x="45" y="199" type="line" smooth="yes"/>
			<point x="47" y="90"/>
			<point x="136" y="0"/>
			<point x="247" y="0" type="curve" smooth="yes"/>
			<point x="442" y="0" type="line"/>
			<point x="445" y="0" type="line"/>
			<point x="445" y="3" type="line"/>
			<point x="445" y="83" type="line"/>
			<point x="445" y="86" type="line"/>
			<point x="442" y="86" type="line"/>
			<point x="346" y="86" type="line"/>
			<point x="247" y="86" type="line" smooth="yes"/>
			<point x="182" y="86"/>
			<point x="131" y="138"/>
			<point x="131" y="202" type="curve" smooth="yes"/>
			<point x="131" y="282" type="line"/>
			<point x="131" y="285" type="line" smooth="yes"/>
			<point x="131" y="348"/>
			<point x="182" y="399"/>
			<point x="244" y="399" type="curve" smooth="yes"/>
			<point x="247" y="399" type="line"/>
			<point x="347" y="399" type="line"/>
			<point x="442" y="399" type="line"/>
			<point x="445" y="399" type="line"/>
			<point x="445" y="402" type="line"/>
			<point x="445" y="482" type="line"/>
			<point x="445" y="484" type="line"/>
			<point x="442" y="484" type="line"/>
		</contour>
	</outline>
</glyph>
<glyph name="D.small" format="2">
	<advance width="515"/>
	<outline>
		<contour>
			<point x="271" y="484" type="curve" smooth="yes"/>
			<point x="70" y="484" type="line"/>
			<point x="70" y="0" type="line"/>
			<point x="268" y="0" type="line" smooth="yes"/>
			<point x="379" y="0"/>
			<point x="470" y="90"/>
			<point x="470" y="199" type="curve" smooth="yes"/>
			<point x="470" y="285" type="line" smooth="yes"/>
			<point x="470" y="395"/>
			<point x="380" y="484"/>
		</contour>
		<contour>
			<point x="156" y="86" type="line"/>
			<point x="156" y="399" type="line"/>
			<point x="271" y="399" type="line" smooth="yes"/>
			<point x="333" y="399"/>
			<point x="384" y="348"/>
			<point x="384" y="285" type="curve" smooth="yes"/>
			<point x="384" y="199" type="line" smooth="yes"/>
			<point x="384" y="137"/>
			<point x="332" y="86"/>
			<point x="268" y="86" type="curve" smooth="yes"/>
		</contour>
	</outline>
</glyph>
<glyph name="E.small" format="2">
	<advance width="474"/>
	<anchor x="271" y="484" name="top"/>
	<outline>
		<contour>
			<point x="73" y="484" type="line"/>
			<point x="70" y="484" type="line"/>
			<point x="70" y="482" type="line"/>
			<point x="70" y="3" type="line"/>
			<point x="70" y="0" type="line"/>
			<point x="73" y="0" type="line"/>
			<point x="451" y="0" type="line"/>
			<point x="454" y="0" type="line"/>
			<point x="454" y="3" type="line"/>
			<point x="454" y="83" type="line"/>
			<point x="454" y="86" type="line"/>
			<point x="451" y="86" type="line"/>
			<point x="156" y="86" type="line"/>
			<point x="156" y="193" type="line"/>
			<point x="372" y="193" type="line"/>
			<point x="375" y="193" type="line"/>
			<point x="375" y="195" type="line"/>
			<point x="375" y="275" type="line"/>
			<point x="375" y="278" type="line"/>
			<point x="372" y="278" type="line"/>
			<point x="156" y="278" type="line"/>
			<point x="156" y="399" type="line"/>
			<point x="451" y="399" type="line"/>
			<point x="454" y="399" type="line"/>
			<point x="454" y="402" type="line"/>
			<point x="454" y="482" type="line"/>
			<point x="454" y="484" type="line"/>
			<point x="451" y="484" type="line"/>
		</contour>
	</outline>
</glyph>
<glyph name="F.small" format="2">
	<advance width="485"/>
	<outline>
		<contour>
			<point x="475" y="484" type="line"/>
			<point x="70" y="484" type="line"/>
			<point x="70" y="0" type="line"/>
			<point x="155" y="0" type="line"/>
			<point x="155" y="181" type="line"/>
			<point x="395" y="181" type="line"/>
			<point x="395" y="266" type="line"/>
			<point x="155" y="266" type="line"/>
			<point x="155" y="399" type="line"/>
			<point x="475" y="399" type="line"/>
		</contour>
	</outline>
</glyph>
<glyph name="G.small" format="2">
	<advance width="504"/>
	<outline>
		<contour>
			<point x="252" y="484" type="line"/>
			<point x="249" y="484" type="line" smooth="yes"/>
			<point x="140" y="484"/>
			<point x="50" y="394"/>
			<point x="50" y="284" type="curve" smooth="yes"/>
			<point x="50" y="282" type="line"/>
			<point x="50" y="202" type="line"/>
			<point x="50" y="199" type="line" smooth="yes"/>
			<point x="52" y="90"/>
			<point x="141" y="0"/>
			<point x="252" y="0" type="curve" smooth="yes"/>
			<point x="451" y="0" type="line"/>
			<point x="454" y="0" type="line"/>
			<point x="454" y="3" type="line"/>
			<point x="454" y="83" type="line"/>
			<point x="454" y="86" type="line"/>
			<point x="454" y="198" type="line"/>
			<point x="454" y="201" type="line"/>
			<point x="454" y="280" type="line"/>
			<point x="454" y="283" type="line"/>
			<point x="451" y="283" type="line"/>
			<point x="368" y="283" type="line"/>
			<point x="212" y="283" type="line"/>
			<point x="209" y="283" type="line"/>
			<point x="209" y="280" type="line"/>
			<point x="209" y="201" type="line"/>
			<point x="209" y="198" type="line"/>
			<point x="212" y="198" type="line"/>
			<point x="332" y="198" type="line"/>
			<point x="368" y="198" type="line"/>
			<point x="368" y="86" type="line"/>
			<point x="351" y="86" type="line"/>
			<point x="252" y="86" type="line" smooth="yes"/>
			<point x="187" y="86"/>
			<point x="134" y="138"/>
			<point x="134" y="202" type="curve" smooth="yes"/>
			<point x="134" y="282" type="line"/>
			<point x="134" y="284" type="line" smooth="yes"/>
			<point x="134" y="347"/>
			<point x="187" y="398"/>
			<point x="249" y="398" type="curve" smooth="yes"/>
			<point x="252" y="398" type="line"/>
			<point x="351" y="398" type="line"/>
			<point x="451" y="398" type="line"/>
			<point x="454" y="398" type="line"/>
			<point x="454" y="401" type="line"/>
			<point x="454" y="481" type="line"/>
			<point x="454" y="484" type="line"/>
			<point x="451" y="484" type="line"/>
		</contour>
	</outline>
</glyph>
<glyph name="H.small" format="2">
	<advance width="544"/>
	<outline>
		<contour>
			<point x="73" y="484" type="line"/>
			<point x="70" y="484" type="line"/>
			<point x="70" y="482" type="line"/>
			<point x="70" y="3" type="line"/>
			<point x="70" y="0" type="line"/>
			<point x="73" y="0" type="line"/>
			<point x="112" y="0" type="line"/>
			<point x="152" y="0" type="line"/>
			<point x="154" y="0" type="line"/>
			<point x="154" y="3" type="line"/>
			<point x="154" y="197" type="line"/>
			<point x="311" y="197" type="line"/>
			<point x="388" y="197" type="line"/>
			<point x="388" y="3" type="line"/>
			<point x="388" y="0" type="line"/>
			<point x="391" y="0" type="line"/>
			<point x="431" y="0" type="line"/>
			<point x="471" y="0" type="line"/>
			<point x="474" y="0" type="line"/>
			<point x="474" y="3" type="line"/>
			<point x="474" y="482" type="line"/>
			<point x="474" y="484" type="line"/>
			<point x="471" y="484" type="line"/>
			<point x="391" y="484" type="line"/>
			<point x="388" y="484" type="line"/>
			<point x="388" y="482" type="line"/>
			<point x="388" y="282" type="line"/>
			<point x="154" y="282" type="line"/>
			<point x="154" y="482" type="line"/>
			<point x="154" y="484" type="line"/>
			<point x="152" y="484" type="line"/>
		</contour>
	</outline>
</glyph>
<glyph name="I.small" format="2">
	<advance width="226"/>
	<anchor x="113" y="484" name="top"/>
	<outline>
		<contour>
			<point x="73" y="3" type="line"/>
			<point x="73" y="3" type="line"/>
		</contour>
		<contour>
			<point x="156" y="484" type="line"/>
			<point x="70" y="484" type="line"/>
			<point x="70" y="0" type="line"/>
			<point x="156" y="0" type="line"/>
		</contour>
	</outline>
</glyph>
<glyph name="J.small" format="2">
	<advance width="411"/>
	<outline>
		<contour>
			<point x="351" y="484" type="line"/>
			<point x="265" y="484" type="line"/>
			<point x="265" y="155" type="line"/>
			<point x="351" y="155" type="line"/>
		</contour>
		<contour>
			<point x="351" y="155" type="curve"/>
			<point x="265" y="155" type="line"/>
			<point x="265" y="116"/>
			<point x="234" y="86"/>
			<point x="195" y="86" type="curve" smooth="yes"/>
			<point x="157" y="86"/>
			<point x="124" y="116"/>
			<point x="124" y="155" type="curve"/>
			<point x="40" y="155" type="line"/>
			<point x="40" y="69"/>
			<point x="110" y="0"/>
			<point x="195" y="0" type="curve" smooth="yes"/>
			<point x="281" y="0"/>
			<point x="351" y="69"/>
		</contour>
		<contour>
			<point x="40" y="327" type="line"/>
			<point x="40" y="155" type="line"/>
			<point x="124" y="155" type="line"/>
			<point x="124" y="327" type="line"/>
		</contour>
	</outline>
</glyph>
<glyph name="K.small" format="2">
	<advance width="470"/>
	<outline>
		<contour>
			<point x="141" y="3" type="line"/>
			<point x="430" y="480" type="line"/>
			<point x="428" y="481" type="line"/>
			<point x="428" y="484" type="line"/>
			<point x="336" y="484" type="line"/>
			<point x="336" y="481" type="line"/>
			<point x="333" y="482" type="line"/>
			<point x="141" y="154" type="line"/>
			<point x="141" y="481" type="line"/>
			<point x="141" y="484" type="line"/>
			<point x="138" y="484" type="line"/>
			<point x="58" y="484" type="line"/>
			<point x="55" y="484" type="line"/>
			<point x="55" y="481" type="line"/>
			<point x="55" y="3" type="line"/>
			<point x="55" y="0" type="line"/>
			<point x="58" y="0" type="line"/>
			<point x="99" y="0" type="line"/>
			<point x="138" y="0" type="line"/>
			<point x="141" y="0" type="line"/>
		</contour>
		<contour>
			<point x="304" y="296" type="line"/>
			<point x="261" y="210" type="line"/>
			<point x="364" y="2" type="line"/>
			<point x="367" y="3" type="line"/>
			<point x="367" y="0" type="line"/>
			<point x="447" y="0" type="line"/>
			<point x="447" y="3" type="line"/>
			<point x="450" y="4" type="line"/>
		</contour>
	</outline>
</glyph>
<glyph name="L.small" format="2">
	<advance width="494"/>
	<outline>
		<contour>
			<point x="156" y="484" type="line"/>
			<point x="70" y="484" type="line"/>
			<point x="70" y="0" type="line"/>
			<point x="474" y="0" type="line"/>
			<point x="474" y="86" type="line"/>
			<point x="156" y="86" type="line"/>
		</contour>
	</outline>
</glyph>
<glyph name="M.small" format="2">
	<advance width="764"/>
	<outline>
		<contour>
			<point x="583" y="484" type="line"/>
			<point x="500" y="484" type="line"/>
			<point x="382" y="126" type="line"/>
			<point x="264" y="484" type="line"/>
			<point x="181" y="484" type="line"/>
			<point x="20" y="0" type="line"/>
			<point x="104" y="0" type="line"/>
			<point x="223" y="360" type="line"/>
			<point x="342" y="0" type="line"/>
			<point x="422" y="0" type="line"/>
			<point x="541" y="360" type="line"/>
			<point x="660" y="0" type="line"/>
			<point x="744" y="0" type="line"/>
		</contour>
	</outline>
</glyph>
<glyph name="N.small" format="2">
	<advance width="544"/>
	<anchor x="272" y="484" name="top"/>
	<outline>
		<contour>
			<point x="152" y="484" type="line"/>
			<point x="70" y="484" type="line"/>
			<point x="70" y="0" type="line"/>
			<point x="154" y="0" type="line"/>
			<point x="154" y="349" type="line"/>
			<point x="389" y="0" type="line"/>
			<point x="474" y="0" type="line"/>
			<point x="474" y="484" type="line"/>
			<point x="388" y="484" type="line"/>
			<point x="388" y="144" type="line"/>
		</contour>
	</outline>
</glyph>
<glyph name="P.small" format="2">
	<advance width="510"/>
	<outline>
		<contour>
			<point x="332" y="398" type="line"/>
			<point x="332" y="484" type="line"/>
			<point x="70" y="484" type="line"/>
			<point x="70" y="0" type="line"/>
			<point x="156" y="0" type="line"/>
			<point x="156" y="86" type="line"/>
			<point x="156" y="86" type="line"/>
			<point x="156" y="398" type="line"/>
		</contour>
		<contour>
			<point x="332" y="275" type="curve"/>
			<point x="332" y="189" type="line"/>
			<point x="413" y="189"/>
			<point x="480" y="255"/>
			<point x="480" y="336" type="curve" smooth="yes"/>
			<point x="480" y="418"/>
			<point x="413" y="484"/>
			<point x="332" y="484" type="curve" smooth="yes"/>
			<point x="262" y="484"/>
			<point x="306" y="398"/>
			<point x="332" y="398" type="curve" smooth="yes"/>
			<point x="366" y="398"/>
			<point x="394" y="370"/>
			<point x="394" y="336" type="curve" smooth="yes"/>
			<point x="394" y="302"/>
			<point x="366" y="275"/>
		</contour>
		<contour>
			<point x="332" y="398" type="line"/>
			<point x="332" y="484" type="line"/>
			<point x="70" y="484" type="line"/>
			<point x="70" y="0" type="line"/>
			<point x="156" y="0" type="line"/>
			<point x="156" y="86" type="line"/>
			<point x="156" y="86" type="line"/>
			<point x="156" y="398" type="line"/>
		</contour>
		<contour>
			<point x="332" y="275" type="curve"/>
			<point x="332" y="189" type="line"/>
			<point x="413" y="189"/>
			<point x="480" y="255"/>
			<point x="480" y="336" type="curve" smooth="yes"/>
			<point x="480" y="418"/>
			<point x="413" y="484"/>
			<point x="332" y="484" type="curve" smooth="yes"/>
			<point x="262" y="484"/>
			<point x="306" y="398"/>
			<point x="332" y="398" type="curve" smooth="yes"/>
			<point x="366" y="398"/>
			<point x="394" y="370"/>
			<point x="394" y="336" type="curve" smooth="yes"/>
			<point x="394" y="302"/>
			<point x="366" y="275"/>
		</contour>
		<contour>
			<point x="137" y="189" type="line"/>
			<point x="332" y="189" type="line"/>
			<point x="332" y="275" type="line"/>
			<point x="137" y="275" type="line"/>
		</contour>
	</outline>
</glyph>
<glyph name="Q.small" format="2">
	<advance width="495"/>
	<outline>
		<contour>
			<point x="246" y="398" type="curve" smooth="yes"/>
			<point x="311" y="398"/>
			<point x="364" y="347"/>
			<point x="364" y="282" type="curve" smooth="yes"/>
			<point x="364" y="199" type="line" smooth="yes"/>
			<point x="362" y="137"/>
			<point x="310" y="86"/>
			<point x="246" y="86" type="curve" smooth="yes"/>
			<point x="183" y="86"/>
			<point x="130" y="138"/>
			<point x="130" y="202" type="curve" smooth="yes"/>
			<point x="130" y="282" type="line" smooth="yes"/>
			<point x="130" y="347"/>
			<point x="183" y="398"/>
		</contour>
		<contour>
			<point x="246" y="484" type="curve" smooth="yes"/>
			<point x="136" y="484"/>
			<point x="45" y="394"/>
			<point x="45" y="282" type="curve" smooth="yes"/>
			<point x="45" y="199" type="line" smooth="yes"/>
			<point x="46" y="89"/>
			<point x="137" y="0"/>
			<point x="246" y="0" type="curve" smooth="yes"/>
			<point x="357" y="0"/>
			<point x="448" y="89"/>
			<point x="450" y="199" type="curve" smooth="yes"/>
			<point x="450" y="169"/>
			<point x="450" y="202"/>
			<point x="450" y="282" type="curve" smooth="yes"/>
			<point x="450" y="394"/>
			<point x="358" y="484"/>
		</contour>
		<contour>
			<point x="447" y="0" type="line"/>
			<point x="280" y="240" type="line"/>
			<point x="190" y="240" type="line"/>
			<point x="358" y="0" type="line"/>
		</contour>
	</outline>
</glyph>
<glyph name="R.alt" format="2">
	<advance width="522"/>
	<outline>
		<contour>
			<point x="389" y="250" type="line"/>
			<point x="300" y="250" type="line"/>
			<point x="389" y="2" type="line"/>
			<point x="392" y="3" type="line"/>
			<point x="392" y="0" type="line"/>
			<point x="472" y="0" type="line"/>
			<point x="472" y="3" type="line"/>
			<point x="475" y="4" type="line"/>
		</contour>
		<contour>
			<point x="232" y="239" type="line" smooth="yes"/>
			<point x="361" y="239"/>
			<point x="475" y="344"/>
			<point x="475" y="481" type="curve" smooth="yes"/>
			<point x="475" y="614"/>
			<point x="365" y="722"/>
			<point x="232" y="722" type="curve" smooth="yes"/>
			<point x="152" y="722" type="line"/>
			<point x="72" y="722" type="line"/>
			<point x="70" y="722" type="line"/>
			<point x="70" y="719" type="line"/>
			<point x="70" y="3" type="line"/>
			<point x="70" y="0" type="line"/>
			<point x="72" y="0" type="line"/>
			<point x="113" y="0" type="line"/>
			<point x="152" y="0" type="line"/>
			<point x="155" y="0" type="line"/>
			<point x="155" y="3" type="line"/>
			<point x="155" y="239" type="line"/>
			<point x="193" y="239" type="line"/>
		</contour>
		<contour>
			<point x="155" y="527" type="line"/>
			<point x="155" y="637" type="line"/>
			<point x="192" y="637" type="line"/>
			<point x="193" y="637" type="line"/>
			<point x="232" y="637" type="line" smooth="yes"/>
			<point x="256" y="637"/>
			<point x="279" y="631"/>
			<point x="300" y="622" type="curve" smooth="yes"/>
			<point x="352" y="596"/>
			<point x="389" y="543"/>
			<point x="389" y="481" type="curve" smooth="yes"/>
			<point x="389" y="394"/>
			<point x="315" y="324"/>
			<point x="232" y="324" type="curve" smooth="yes"/>
			<point x="155" y="324" type="line"/>
		</contour>
	</outline>
</glyph>
<glyph name="R.alt.small" format="2">
	<advance width="527"/>
	<outline>
		<contour>
			<point x="427" y="189" type="line"/>
			<point x="340" y="189" type="line"/>
			<point x="378" y="0" type="line"/>
			<point x="465" y="0" type="line"/>
		</contour>
		<component base="P.small"/>
	</outline>
</glyph>
<glyph name="R.small" format="2">
	<advance width="527"/>
	<outline>
		<contour>
			<point x="228" y="440" type="line"/>
			<point x="141" y="440" type="line"/>
			<point x="338" y="0" type="line"/>
			<point x="425" y="0" type="line"/>
		</contour>
		<component base="P.small"/>
	</outline>
</glyph>
<glyph name="ST.liga" format="2">
	<advance width="930"/>
	<outline>
		<contour>
			<point x="402" y="723" type="line"/>
			<point x="402" y="638" type="line"/>
			<point x="548" y="638" type="line"/>
			<point x="548" y="723" type="line"/>
		</contour>
		<component base="S"/>
		<component base="T" xOffset="485"/>
	</outline>
</glyph>
<glyph name="ST.small" format="2">
	<advance width="945"/>
	<outline>
		<contour>
			<point x="431" y="484" type="line"/>
			<point x="431" y="398" type="line"/>
			<point x="593" y="398" type="line"/>
			<point x="593" y="484" type="line"/>
		</contour>
		<component base="s"/>
		<component base="T.small" xOffset="500"/>
	</outline>
</glyph>
<glyph name="T.small" format="2">
	<advance width="445"/>
	<outline>
		<contour>
			<point x="22" y="484" type="line"/>
			<point x="20" y="484" type="line"/>
			<point x="20" y="482" type="line"/>
			<point x="20" y="401" type="line"/>
			<point x="20" y="398" type="line"/>
			<point x="22" y="398" type="line"/>
			<point x="179" y="398" type="line"/>
			<point x="179" y="3" type="line"/>
			<point x="179" y="0" type="line"/>
			<point x="182" y="0" type="line"/>
			<point x="223" y="0" type="line"/>
			<point x="262" y="0" type="line"/>
			<point x="265" y="0" type="line"/>
			<point x="265" y="3" type="line"/>
			<point x="265" y="398" type="line"/>
			<point x="422" y="398" type="line"/>
			<point x="425" y="398" type="line"/>
			<point x="425" y="401" type="line"/>
			<point x="425" y="482" type="line"/>
			<point x="425" y="484" type="line"/>
			<point x="422" y="484" type="line"/>
		</contour>
	</outline>
</glyph>
<glyph name="Y.small" format="2">
	<advance width="424"/>
	<anchor x="212" y="484" name="top"/>
	<outline>
		<contour>
			<point x="255" y="134" type="line"/>
			<point x="170" y="133" type="line"/>
			<point x="170" y="0" type="line"/>
			<point x="255" y="0" type="line"/>
		</contour>
		<contour>
			<point x="416" y="484" type="line"/>
			<point x="330" y="484" type="line"/>
			<point x="212" y="219" type="line"/>
			<point x="94" y="484" type="line"/>
			<point x="8" y="484" type="line"/>
			<point x="212" y="26" type="line"/>
		</contour>
	</outline>
</glyph>
<glyph name=".notdef" format="2">
	<advance width="884"/>
	<note>
		.notdef
  </note>
	<outline>
		<contour>
			<point x="455" y="725" type="line"/>
			<point x="455" y="640" type="line"/>
			<point x="834" y="640" type="line"/>
			<point x="834" y="725" type="line"/>
		</contour>
		<contour>
			<point x="361" y="725" type="line"/>
			<point x="361" y="640" type="line"/>
			<point x="430" y="640" type="line"/>
			<point x="430" y="725" type="line"/>
			<point x="420" y="725" type="line"/>
			<point x="420" y="648" type="line"/>
			<point x="369" y="648" type="line"/>
			<point x="369" y="725" type="line"/>
		</contour>
		<contour>
			<point x="271" y="725" type="line"/>
			<point x="271" y="640" type="line"/>
			<point x="336" y="640" type="line"/>
			<point x="336" y="725" type="line"/>
		</contour>
		<contour>
			<point x="58" y="725" type="line"/>
			<point x="58" y="640" type="line"/>
			<point x="66" y="640" type="line"/>
			<point x="66" y="725" type="line"/>
		</contour>
		<contour>
			<point x="280" y="716" type="line"/>
			<point x="326" y="716" type="line"/>
			<point x="326" y="648" type="line"/>
			<point x="280" y="648" type="line"/>
		</contour>
		<contour>
			<point x="215" y="677" type="line"/>
			<point x="245" y="677" type="line"/>
			<point x="245" y="725" type="line"/>
			<point x="238" y="725" type="line"/>
			<point x="238" y="687" type="line"/>
			<point x="187" y="687" type="line"/>
			<point x="187" y="725" type="line"/>
			<point x="178" y="725" type="line"/>
			<point x="178" y="677" type="line"/>
			<point x="208" y="677" type="line"/>
			<point x="208" y="640" type="line"/>
			<point x="215" y="640" type="line"/>
		</contour>
		<contour>
			<point x="101" y="677" type="line"/>
			<point x="136" y="677" type="line"/>
			<point x="136" y="687" type="line"/>
			<point x="101" y="687" type="line"/>
			<point x="101" y="716" type="line"/>
			<point x="152" y="716" type="line"/>
			<point x="152" y="725" type="line"/>
			<point x="93" y="725" type="line"/>
			<point x="93" y="640" type="line"/>
			<point x="101" y="640" type="line"/>
		</contour>
		<contour>
			<point x="698" y="597" type="line"/>
			<point x="650" y="597" type="line"/>
			<point x="650" y="511" type="line"/>
			<point x="659" y="511" type="line"/>
			<point x="659" y="546" type="line"/>
			<point x="715" y="546" type="line"/>
			<point x="715" y="511" type="line"/>
			<point x="723" y="511" type="line"/>
			<point x="723" y="554" type="line"/>
			<point x="698" y="554" type="line"/>
		</contour>
		<contour>
			<point x="621" y="589" type="line"/>
			<point x="621" y="520" type="line"/>
			<point x="573" y="520" type="line"/>
			<point x="573" y="589" type="line"/>
		</contour>
		<contour>
			<point x="463" y="589" type="line"/>
			<point x="463" y="564" type="line"/>
			<point x="476" y="564" type="line"/>
			<point x="476" y="536" type="line"/>
			<point x="488" y="536" type="line"/>
			<point x="488" y="511" type="line"/>
			<point x="498" y="511" type="line"/>
			<point x="498" y="536" type="line"/>
			<point x="511" y="536" type="line"/>
			<point x="511" y="564" type="line"/>
			<point x="523" y="564" type="line"/>
			<point x="523" y="589" type="line"/>
			<point x="532" y="589" type="line"/>
			<point x="532" y="511" type="line"/>
			<point x="540" y="511" type="line"/>
			<point x="540" y="597" type="line"/>
			<point x="515" y="597" type="line"/>
			<point x="515" y="571" type="line"/>
			<point x="501" y="571" type="line"/>
			<point x="501" y="546" type="line"/>
			<point x="485" y="546" type="line"/>
			<point x="485" y="571" type="line"/>
			<point x="472" y="571" type="line"/>
			<point x="472" y="597" type="line"/>
			<point x="447" y="597" type="line"/>
			<point x="447" y="511" type="line"/>
			<point x="455" y="511" type="line"/>
			<point x="455" y="589" type="line"/>
		</contour>
		<contour>
			<point x="382" y="589" type="line"/>
			<point x="412" y="589" type="line"/>
			<point x="412" y="597" type="line"/>
			<point x="344" y="597" type="line"/>
			<point x="344" y="589" type="line"/>
			<point x="374" y="589" type="line"/>
			<point x="374" y="511" type="line"/>
			<point x="382" y="511" type="line"/>
		</contour>
		<contour>
			<point x="276" y="589" type="line"/>
			<point x="276" y="564" type="line"/>
			<point x="289" y="564" type="line"/>
			<point x="289" y="536" type="line"/>
			<point x="301" y="536" type="line"/>
			<point x="301" y="511" type="line"/>
			<point x="326" y="511" type="line"/>
			<point x="326" y="597" type="line"/>
			<point x="318" y="597" type="line"/>
			<point x="318" y="520" type="line"/>
			<point x="310" y="520" type="line"/>
			<point x="310" y="546" type="line"/>
			<point x="296" y="546" type="line"/>
			<point x="296" y="571" type="line"/>
			<point x="285" y="571" type="line"/>
			<point x="285" y="597" type="line"/>
			<point x="259" y="597" type="line"/>
			<point x="259" y="511" type="line"/>
			<point x="267" y="511" type="line"/>
			<point x="267" y="589" type="line"/>
		</contour>
		<contour>
			<point x="211" y="571" type="line"/>
			<point x="211" y="597" type="line"/>
			<point x="181" y="597" type="line"/>
			<point x="181" y="571" type="line"/>
			<point x="170" y="571" type="line"/>
			<point x="170" y="546" type="line"/>
			<point x="156" y="546" type="line"/>
			<point x="156" y="511" type="line"/>
			<point x="164" y="511" type="line"/>
			<point x="164" y="536" type="line"/>
			<point x="228" y="536" type="line"/>
			<point x="228" y="511" type="line"/>
			<point x="238" y="511" type="line"/>
			<point x="238" y="546" type="line"/>
			<point x="225" y="546" type="line"/>
			<point x="225" y="571" type="line"/>
		</contour>
		<contour>
			<point x="822" y="499" type="line"/>
			<point x="829" y="499" type="line"/>
			<point x="829" y="524" type="line"/>
			<point x="817" y="524" type="line"/>
			<point x="817" y="511" type="line"/>
			<point x="822" y="511" type="line"/>
		</contour>
		<contour>
			<point x="740" y="597" type="line"/>
			<point x="740" y="511" type="line"/>
			<point x="799" y="511" type="line"/>
			<point x="799" y="520" type="line"/>
			<point x="749" y="520" type="line"/>
			<point x="749" y="551" type="line"/>
			<point x="783" y="551" type="line"/>
			<point x="783" y="559" type="line"/>
			<point x="749" y="559" type="line"/>
			<point x="749" y="589" type="line"/>
			<point x="799" y="589" type="line"/>
			<point x="799" y="597" type="line"/>
		</contour>
		<contour>
			<point x="566" y="597" type="line"/>
			<point x="566" y="511" type="line"/>
			<point x="630" y="511" type="line"/>
			<point x="630" y="597" type="line"/>
		</contour>
		<contour>
			<point x="58" y="597" type="line"/>
			<point x="58" y="511" type="line"/>
			<point x="136" y="511" type="line"/>
			<point x="136" y="597" type="line"/>
			<point x="126" y="597" type="line"/>
			<point x="126" y="520" type="line"/>
			<point x="101" y="520" type="line"/>
			<point x="101" y="567" type="line"/>
			<point x="93" y="567" type="line"/>
			<point x="93" y="520" type="line"/>
			<point x="66" y="520" type="line"/>
			<point x="66" y="597" type="line"/>
		</contour>
		<contour>
			<point x="809" y="468" type="line"/>
			<point x="762" y="468" type="line"/>
			<point x="762" y="384" type="line"/>
			<point x="770" y="384" type="line"/>
			<point x="770" y="418" type="line"/>
			<point x="826" y="418" type="line"/>
			<point x="826" y="384" type="line"/>
			<point x="834" y="384" type="line"/>
			<point x="834" y="427" type="line"/>
			<point x="809" y="427" type="line"/>
		</contour>
		<contour>
			<point x="728" y="461" type="line"/>
			<point x="728" y="393" type="line"/>
			<point x="681" y="393" type="line"/>
			<point x="681" y="461" type="line"/>
		</contour>
		<contour>
			<point x="455" y="461" type="line"/>
			<point x="455" y="435" type="line"/>
			<point x="468" y="435" type="line"/>
			<point x="468" y="410" type="line"/>
			<point x="481" y="410" type="line"/>
			<point x="481" y="384" type="line"/>
			<point x="488" y="384" type="line"/>
			<point x="488" y="410" type="line"/>
			<point x="501" y="410" type="line"/>
			<point x="501" y="435" type="line"/>
			<point x="515" y="435" type="line"/>
			<point x="515" y="461" type="line"/>
			<point x="523" y="461" type="line"/>
			<point x="523" y="384" type="line"/>
			<point x="532" y="384" type="line"/>
			<point x="532" y="468" type="line"/>
			<point x="505" y="468" type="line"/>
			<point x="505" y="445" type="line"/>
			<point x="493" y="445" type="line"/>
			<point x="493" y="418" type="line"/>
			<point x="476" y="418" type="line"/>
			<point x="476" y="445" type="line"/>
			<point x="463" y="445" type="line"/>
			<point x="463" y="468" type="line"/>
			<point x="437" y="468" type="line"/>
			<point x="437" y="384" type="line"/>
			<point x="447" y="384" type="line"/>
			<point x="447" y="461" type="line"/>
		</contour>
		<contour>
			<point x="271" y="468" type="line"/>
			<point x="225" y="468" type="line"/>
			<point x="225" y="384" type="line"/>
			<point x="232" y="384" type="line"/>
			<point x="232" y="418" type="line"/>
			<point x="289" y="418" type="line"/>
			<point x="289" y="384" type="line"/>
			<point x="296" y="384" type="line"/>
			<point x="296" y="427" type="line"/>
			<point x="271" y="427" type="line"/>
		</contour>
		<contour>
			<point x="190" y="461" type="line"/>
			<point x="190" y="393" type="line"/>
			<point x="144" y="393" type="line"/>
			<point x="144" y="461" type="line"/>
		</contour>
		<contour>
			<point x="341" y="422" type="line"/>
			<point x="341" y="410" type="line"/>
			<point x="361" y="410" type="line"/>
			<point x="361" y="384" type="line"/>
			<point x="382" y="384" type="line"/>
			<point x="382" y="393" type="line"/>
			<point x="369" y="393" type="line"/>
			<point x="369" y="418" type="line"/>
			<point x="348" y="418" type="line"/>
			<point x="348" y="435" type="line"/>
			<point x="369" y="435" type="line"/>
			<point x="369" y="461" type="line"/>
			<point x="382" y="461" type="line"/>
			<point x="382" y="468" type="line"/>
			<point x="361" y="468" type="line"/>
			<point x="361" y="445" type="line"/>
			<point x="341" y="445" type="line"/>
			<point x="341" y="430" type="line"/>
			<point x="326" y="430" type="line"/>
			<point x="326" y="468" type="line"/>
			<point x="318" y="468" type="line"/>
			<point x="318" y="384" type="line"/>
			<point x="326" y="384" type="line"/>
			<point x="326" y="422" type="line"/>
		</contour>
		<contour>
			<point x="66" y="422" type="line"/>
			<point x="101" y="422" type="line"/>
			<point x="101" y="430" type="line"/>
			<point x="66" y="430" type="line"/>
			<point x="66" y="461" type="line"/>
			<point x="119" y="461" type="line"/>
			<point x="119" y="468" type="line"/>
			<point x="58" y="468" type="line"/>
			<point x="58" y="384" type="line"/>
			<point x="66" y="384" type="line"/>
		</contour>
		<contour>
			<point x="672" y="468" type="line"/>
			<point x="672" y="384" type="line"/>
			<point x="736" y="384" type="line"/>
			<point x="736" y="468" type="line"/>
		</contour>
		<contour>
			<point x="562" y="468" type="line"/>
			<point x="562" y="384" type="line"/>
			<point x="621" y="384" type="line"/>
			<point x="621" y="393" type="line"/>
			<point x="569" y="393" type="line"/>
			<point x="569" y="422" type="line"/>
			<point x="604" y="422" type="line"/>
			<point x="604" y="430" type="line"/>
			<point x="569" y="430" type="line"/>
			<point x="569" y="461" type="line"/>
			<point x="621" y="461" type="line"/>
			<point x="621" y="468" type="line"/>
		</contour>
		<contour>
			<point x="136" y="468" type="line"/>
			<point x="136" y="384" type="line"/>
			<point x="199" y="384" type="line"/>
			<point x="199" y="468" type="line"/>
		</contour>
		<contour>
			<point x="630" y="341" type="line"/>
			<point x="630" y="256" type="line"/>
			<point x="834" y="256" type="line"/>
			<point x="834" y="341" type="line"/>
		</contour>
		<contour>
			<point x="582" y="333" type="line"/>
			<point x="613" y="333" type="line"/>
			<point x="613" y="341" type="line"/>
			<point x="546" y="341" type="line"/>
			<point x="546" y="333" type="line"/>
			<point x="573" y="333" type="line"/>
			<point x="573" y="256" type="line"/>
			<point x="582" y="256" type="line"/>
		</contour>
		<contour>
			<point x="344" y="333" type="line"/>
			<point x="374" y="333" type="line"/>
			<point x="374" y="341" type="line"/>
			<point x="306" y="341" type="line"/>
			<point x="306" y="333" type="line"/>
			<point x="336" y="333" type="line"/>
			<point x="336" y="256" type="line"/>
			<point x="344" y="256" type="line"/>
		</contour>
		<contour>
			<point x="242" y="333" type="line"/>
			<point x="242" y="308" type="line"/>
			<point x="255" y="308" type="line"/>
			<point x="255" y="282" type="line"/>
			<point x="267" y="282" type="line"/>
			<point x="267" y="256" type="line"/>
			<point x="292" y="256" type="line"/>
			<point x="292" y="341" type="line"/>
			<point x="285" y="341" type="line"/>
			<point x="285" y="265" type="line"/>
			<point x="276" y="265" type="line"/>
			<point x="276" y="290" type="line"/>
			<point x="262" y="290" type="line"/>
			<point x="262" y="315" type="line"/>
			<point x="250" y="315" type="line"/>
			<point x="250" y="341" type="line"/>
			<point x="225" y="341" type="line"/>
			<point x="225" y="256" type="line"/>
			<point x="232" y="256" type="line"/>
			<point x="232" y="333" type="line"/>
		</contour>
		<contour>
			<point x="190" y="333" type="line"/>
			<point x="190" y="265" type="line"/>
			<point x="144" y="265" type="line"/>
			<point x="144" y="333" type="line"/>
		</contour>
		<contour>
			<point x="430" y="315" type="line"/>
			<point x="430" y="341" type="line"/>
			<point x="400" y="341" type="line"/>
			<point x="400" y="315" type="line"/>
			<point x="387" y="315" type="line"/>
			<point x="387" y="290" type="line"/>
			<point x="374" y="290" type="line"/>
			<point x="374" y="256" type="line"/>
			<point x="382" y="256" type="line"/>
			<point x="382" y="282" type="line"/>
			<point x="447" y="282" type="line"/>
			<point x="447" y="256" type="line"/>
			<point x="455" y="256" type="line"/>
			<point x="455" y="290" type="line"/>
			<point x="442" y="290" type="line"/>
			<point x="442" y="315" type="line"/>
		</contour>
		<contour>
			<point x="472" y="341" type="line"/>
			<point x="472" y="256" type="line"/>
			<point x="528" y="256" type="line"/>
			<point x="528" y="265" type="line"/>
			<point x="481" y="265" type="line"/>
			<point x="481" y="333" type="line"/>
			<point x="528" y="333" type="line"/>
			<point x="528" y="341" type="line"/>
		</contour>
		<contour>
			<point x="136" y="341" type="line"/>
			<point x="136" y="256" type="line"/>
			<point x="199" y="256" type="line"/>
			<point x="199" y="341" type="line"/>
		</contour>
		<contour>
			<point x="58" y="341" type="line"/>
			<point x="58" y="256" type="line"/>
			<point x="114" y="256" type="line"/>
			<point x="114" y="265" type="line"/>
			<point x="66" y="265" type="line"/>
			<point x="66" y="333" type="line"/>
			<point x="114" y="333" type="line"/>
			<point x="114" y="341" type="line"/>
		</contour>
		<contour>
			<point x="654" y="205" type="line"/>
			<point x="654" y="179" type="line"/>
			<point x="668" y="179" type="line"/>
			<point x="668" y="154" type="line"/>
			<point x="681" y="154" type="line"/>
			<point x="681" y="128" type="line"/>
			<point x="706" y="128" type="line"/>
			<point x="706" y="213" type="line"/>
			<point x="698" y="213" type="line"/>
			<point x="698" y="137" type="line"/>
			<point x="689" y="137" type="line"/>
			<point x="689" y="162" type="line"/>
			<point x="677" y="162" type="line"/>
			<point x="677" y="188" type="line"/>
			<point x="664" y="188" type="line"/>
			<point x="664" y="213" type="line"/>
			<point x="637" y="213" type="line"/>
			<point x="637" y="128" type="line"/>
			<point x="647" y="128" type="line"/>
			<point x="647" y="205" type="line"/>
		</contour>
		<contour>
			<point x="505" y="205" type="line"/>
			<point x="536" y="205" type="line"/>
			<point x="536" y="213" type="line"/>
			<point x="468" y="213" type="line"/>
			<point x="468" y="205" type="line"/>
			<point x="498" y="205" type="line"/>
			<point x="498" y="128" type="line"/>
			<point x="505" y="128" type="line"/>
		</contour>
		<contour>
			<point x="591" y="167" type="line"/>
			<point x="621" y="167" type="line"/>
			<point x="621" y="213" type="line"/>
			<point x="613" y="213" type="line"/>
			<point x="613" y="174" type="line"/>
			<point x="562" y="174" type="line"/>
			<point x="562" y="213" type="line"/>
			<point x="553" y="213" type="line"/>
			<point x="553" y="167" type="line"/>
			<point x="582" y="167" type="line"/>
			<point x="582" y="128" type="line"/>
			<point x="591" y="128" type="line"/>
		</contour>
		<contour>
			<point x="336" y="154" type="line"/>
			<point x="348" y="154" type="line"/>
			<point x="348" y="179" type="line"/>
			<point x="361" y="179" type="line"/>
			<point x="361" y="205" type="line"/>
			<point x="374" y="205" type="line"/>
			<point x="374" y="213" type="line"/>
			<point x="352" y="213" type="line"/>
			<point x="352" y="188" type="line"/>
			<point x="341" y="188" type="line"/>
			<point x="341" y="162" type="line"/>
			<point x="323" y="162" type="line"/>
			<point x="323" y="188" type="line"/>
			<point x="310" y="188" type="line"/>
			<point x="310" y="213" type="line"/>
			<point x="289" y="213" type="line"/>
			<point x="289" y="205" type="line"/>
			<point x="301" y="205" type="line"/>
			<point x="301" y="179" type="line"/>
			<point x="314" y="179" type="line"/>
			<point x="314" y="154" type="line"/>
			<point x="326" y="154" type="line"/>
			<point x="326" y="128" type="line"/>
			<point x="336" y="128" type="line"/>
		</contour>
		<contour>
			<point x="101" y="154" type="line"/>
			<point x="114" y="154" type="line"/>
			<point x="114" y="179" type="line"/>
			<point x="126" y="179" type="line"/>
			<point x="126" y="205" type="line"/>
			<point x="139" y="205" type="line"/>
			<point x="139" y="213" type="line"/>
			<point x="119" y="213" type="line"/>
			<point x="119" y="188" type="line"/>
			<point x="106" y="188" type="line"/>
			<point x="106" y="162" type="line"/>
			<point x="88" y="162" type="line"/>
			<point x="88" y="188" type="line"/>
			<point x="75" y="188" type="line"/>
			<point x="75" y="213" type="line"/>
			<point x="54" y="213" type="line"/>
			<point x="54" y="205" type="line"/>
			<point x="66" y="205" type="line"/>
			<point x="66" y="179" type="line"/>
			<point x="79" y="179" type="line"/>
			<point x="79" y="154" type="line"/>
			<point x="93" y="154" type="line"/>
			<point x="93" y="128" type="line"/>
			<point x="101" y="128" type="line"/>
		</contour>
		<contour>
			<point x="728" y="213" type="line"/>
			<point x="728" y="128" type="line"/>
			<point x="788" y="128" type="line"/>
			<point x="788" y="137" type="line"/>
			<point x="736" y="137" type="line"/>
			<point x="736" y="167" type="line"/>
			<point x="770" y="167" type="line"/>
			<point x="770" y="174" type="line"/>
			<point x="736" y="174" type="line"/>
			<point x="736" y="205" type="line"/>
			<point x="788" y="205" type="line"/>
			<point x="788" y="213" type="line"/>
		</contour>
		<contour>
			<point x="391" y="213" type="line"/>
			<point x="391" y="128" type="line"/>
			<point x="450" y="128" type="line"/>
			<point x="450" y="137" type="line"/>
			<point x="400" y="137" type="line"/>
			<point x="400" y="167" type="line"/>
			<point x="433" y="167" type="line"/>
			<point x="433" y="174" type="line"/>
			<point x="400" y="174" type="line"/>
			<point x="400" y="205" type="line"/>
			<point x="450" y="205" type="line"/>
			<point x="450" y="213" type="line"/>
		</contour>
		<contour>
			<point x="242" y="213" type="line"/>
			<point x="242" y="128" type="line"/>
			<point x="301" y="128" type="line"/>
			<point x="301" y="137" type="line"/>
			<point x="250" y="137" type="line"/>
			<point x="250" y="213" type="line"/>
		</contour>
		<contour>
			<point x="156" y="213" type="line"/>
			<point x="156" y="128" type="line"/>
			<point x="215" y="128" type="line"/>
			<point x="215" y="137" type="line"/>
			<point x="164" y="137" type="line"/>
			<point x="164" y="167" type="line"/>
			<point x="199" y="167" type="line"/>
			<point x="199" y="174" type="line"/>
			<point x="164" y="174" type="line"/>
			<point x="164" y="205" type="line"/>
			<point x="215" y="205" type="line"/>
			<point x="215" y="213" type="line"/>
		</contour>
		<contour>
			<point x="267" y="86" type="line"/>
			<point x="267" y="0" type="line"/>
			<point x="834" y="0" type="line"/>
			<point x="834" y="86" type="line"/>
		</contour>
		<contour>
			<point x="211" y="86" type="line"/>
			<point x="164" y="86" type="line"/>
			<point x="164" y="0" type="line"/>
			<point x="174" y="0" type="line"/>
			<point x="174" y="33" type="line"/>
			<point x="228" y="33" type="line"/>
			<point x="228" y="0" type="line"/>
			<point x="238" y="0" type="line"/>
			<point x="238" y="43" type="line"/>
			<point x="211" y="43" type="line"/>
		</contour>
		<contour>
			<point x="93" y="38" type="line"/>
			<point x="126" y="38" type="line"/>
			<point x="126" y="46" type="line"/>
			<point x="93" y="46" type="line"/>
			<point x="93" y="76" type="line"/>
			<point x="144" y="76" type="line"/>
			<point x="144" y="86" type="line"/>
			<point x="84" y="86" type="line"/>
			<point x="84" y="0" type="line"/>
			<point x="93" y="0" type="line"/>
		</contour>
		<contour>
			<point x="50" y="12" type="line"/>
			<point x="50" y="0" type="line"/>
			<point x="63" y="0" type="line"/>
			<point x="63" y="12" type="line"/>
		</contour>
		<contour>
			<point x="190" y="564" type="line"/>
			<point x="190" y="589" type="line"/>
			<point x="203" y="589" type="line"/>
			<point x="203" y="564" type="line"/>
			<point x="215" y="564" type="line"/>
			<point x="215" y="546" type="line"/>
			<point x="178" y="546" type="line"/>
			<point x="178" y="564" type="line"/>
		</contour>
		<contour>
			<point x="689" y="554" type="line"/>
			<point x="659" y="554" type="line"/>
			<point x="659" y="589" type="line"/>
			<point x="689" y="589" type="line"/>
		</contour>
		<contour>
			<point x="799" y="427" type="line"/>
			<point x="770" y="427" type="line"/>
			<point x="770" y="461" type="line"/>
			<point x="799" y="461" type="line"/>
		</contour>
		<contour>
			<point x="262" y="427" type="line"/>
			<point x="232" y="427" type="line"/>
			<point x="232" y="461" type="line"/>
			<point x="262" y="461" type="line"/>
		</contour>
		<contour>
			<point x="407" y="308" type="line"/>
			<point x="407" y="333" type="line"/>
			<point x="420" y="333" type="line"/>
			<point x="420" y="308" type="line"/>
			<point x="433" y="308" type="line"/>
			<point x="433" y="290" type="line"/>
			<point x="395" y="290" type="line"/>
			<point x="395" y="308" type="line"/>
		</contour>
		<contour>
			<point x="203" y="43" type="line"/>
			<point x="174" y="43" type="line"/>
			<point x="174" y="76" type="line"/>
			<point x="203" y="76" type="line"/>
		</contour>
	</outline>
</glyph>
<glyph name="a.alt" format="2">
	<advance width="509"/>
	<anchor x="246" y="484" name="top"/>
	<outline>
		<contour>
			<point x="247" y="399" type="curve" smooth="yes"/>
			<point x="312" y="399"/>
			<point x="365" y="347"/>
			<point x="365" y="282" type="curve" smooth="yes"/>
			<point x="365" y="202" type="line" smooth="yes"/>
			<point x="365" y="138"/>
			<point x="312" y="86"/>
			<point x="247" y="86" type="curve" smooth="yes"/>
			<point x="183" y="86"/>
			<point x="131" y="138"/>
			<point x="131" y="202" type="curve" smooth="yes"/>
			<point x="131" y="282" type="line" smooth="yes"/>
			<point x="131" y="347"/>
			<point x="183" y="399"/>
		</contour>
		<contour>
			<point x="247" y="484" type="curve" smooth="yes"/>
			<point x="237" y="484" type="line" smooth="yes"/>
			<point x="131" y="478"/>
			<point x="47" y="392"/>
			<point x="45" y="285" type="curve" smooth="yes"/>
			<point x="45" y="284"/>
			<point x="45" y="283"/>
			<point x="45" y="282" type="curve" smooth="yes"/>
			<point x="45" y="202" type="line"/>
			<point x="45" y="199" type="line" smooth="yes"/>
			<point x="47" y="90"/>
			<point x="136" y="0"/>
			<point x="247" y="0" type="curve" smooth="yes"/>
			<point x="291" y="0"/>
			<point x="332" y="14"/>
			<point x="365" y="38" type="curve"/>
			<point x="365" y="3" type="line"/>
			<point x="365" y="0" type="line"/>
			<point x="367" y="0" type="line"/>
			<point x="407" y="0" type="line"/>
			<point x="446" y="0" type="line"/>
			<point x="449" y="0" type="line"/>
			<point x="449" y="3" type="line"/>
			<point x="449" y="481" type="line"/>
			<point x="449" y="484" type="line"/>
			<point x="446" y="484" type="line"/>
			<point x="367" y="484" type="line"/>
			<point x="365" y="484" type="line"/>
			<point x="365" y="481" type="line"/>
			<point x="365" y="446" type="line"/>
			<point x="332" y="470"/>
			<point x="291" y="484"/>
		</contour>
	</outline>
</glyph>
<glyph name="ampersand.small" format="2">
	<advance width="484"/>
	<outline>
		<contour>
			<point x="394" y="398" type="line"/>
			<point x="394" y="484" type="line"/>
			<point x="198" y="484" type="line"/>
			<point x="197" y="484" type="line" smooth="yes"/>
			<point x="121" y="484"/>
			<point x="59" y="422"/>
			<point x="59" y="346" type="curve" smooth="yes"/>
			<point x="59" y="310"/>
			<point x="73" y="278"/>
			<point x="95" y="254" type="curve"/>
			<point x="68" y="227"/>
			<point x="50" y="189"/>
			<point x="50" y="148" type="curve" smooth="yes"/>
			<point x="50" y="66"/>
			<point x="117" y="0"/>
			<point x="198" y="0" type="curve" smooth="yes"/>
			<point x="394" y="0" type="line"/>
			<point x="394" y="86" type="line"/>
			<point x="198" y="86" type="line" smooth="yes"/>
			<point x="164" y="86"/>
			<point x="136" y="114"/>
			<point x="136" y="148" type="curve" smooth="yes"/>
			<point x="136" y="182"/>
			<point x="164" y="209"/>
			<point x="198" y="209" type="curve" smooth="yes"/>
			<point x="464" y="209" type="line"/>
			<point x="464" y="295" type="line"/>
			<point x="197" y="295" type="line" smooth="yes"/>
			<point x="167" y="295"/>
			<point x="145" y="318"/>
			<point x="145" y="346" type="curve" smooth="yes"/>
			<point x="145" y="376"/>
			<point x="167" y="398"/>
			<point x="197" y="398" type="curve" smooth="yes"/>
			<point x="198" y="398" type="line"/>
		</contour>
		<contour>
			<point x="308" y="0" type="line"/>
			<point x="394" y="0" type="line"/>
			<point x="394" y="334" type="line"/>
			<point x="308" y="334" type="line"/>
		</contour>
	</outline>
</glyph>
<glyph name="five.osf" format="2">
	<advance width="500"/>
	<outline>
		<contour>
			<point x="412" y="484" type="line"/>
			<point x="88" y="484" type="line"/>
			<point x="88" y="118" type="line"/>
			<point x="253" y="118" type="line" smooth="yes"/>
			<point x="316" y="118"/>
			<point x="367" y="66"/>
			<point x="367" y="2" type="curve" smooth="yes"/>
			<point x="367" y="-63"/>
			<point x="314" y="-114"/>
			<point x="251" y="-114" type="curve" smooth="yes"/>
			<point x="187" y="-114"/>
			<point x="133" y="-65"/>
			<point x="133" y="5" type="curve"/>
			<point x="48" y="5" type="line"/>
			<point x="47" y="-112"/>
			<point x="139" y="-200"/>
			<point x="251" y="-200" type="curve" smooth="yes"/>
			<point x="361" y="-200"/>
			<point x="453" y="-110"/>
			<point x="453" y="2" type="curve" smooth="yes"/>
			<point x="453" y="113"/>
			<point x="363" y="204"/>
			<point x="253" y="204" type="curve" smooth="yes"/>
			<point x="174" y="204" type="line"/>
			<point x="174" y="399" type="line"/>
			<point x="412" y="399" type="line"/>
		</contour>
	</outline>
</glyph>
<glyph name="four.osf" format="2">
	<advance width="500"/>
	<outline>
		<contour>
			<point x="330" y="485" type="line"/>
			<point x="327" y="485" type="line"/>
			<point x="327" y="482" type="line"/>
			<point x="327" y="85" type="line"/>
			<point x="127" y="85" type="line"/>
			<point x="253" y="401" type="line"/>
			<point x="250" y="402" type="line"/>
			<point x="250" y="405" type="line"/>
			<point x="171" y="405" type="line"/>
			<point x="171" y="402" type="line"/>
			<point x="168" y="403" type="line"/>
			<point x="8" y="4" type="line"/>
			<point x="11" y="3" type="line"/>
			<point x="11" y="0" type="line"/>
			<point x="88" y="0" type="line"/>
			<point x="91" y="0" type="line"/>
			<point x="290" y="0" type="line"/>
			<point x="327" y="0" type="line"/>
			<point x="327" y="-197" type="line"/>
			<point x="327" y="-200" type="line"/>
			<point x="330" y="-200" type="line"/>
			<point x="370" y="-200" type="line"/>
			<point x="410" y="-200" type="line"/>
			<point x="413" y="-200" type="line"/>
			<point x="413" y="-197" type="line"/>
			<point x="413" y="0" type="line"/>
			<point x="489" y="0" type="line"/>
			<point x="492" y="0" type="line"/>
			<point x="492" y="3" type="line"/>
			<point x="492" y="83" type="line"/>
			<point x="492" y="85" type="line"/>
			<point x="489" y="85" type="line"/>
			<point x="413" y="85" type="line"/>
			<point x="413" y="482" type="line"/>
			<point x="413" y="485" type="line"/>
			<point x="410" y="485" type="line"/>
		</contour>
	</outline>
</glyph>
<glyph name="one.osf" format="2">
	<advance width="498"/>
	<outline>
		<contour>
			<point x="295" y="484" type="line"/>
			<point x="210" y="484" type="line"/>
			<point x="210" y="0" type="line"/>
			<point x="295" y="0" type="line"/>
		</contour>
		<contour>
			<point x="50" y="85" type="line"/>
			<point x="50" y="0" type="line"/>
			<point x="448" y="0" type="line"/>
			<point x="448" y="85" type="line"/>
		</contour>
		<contour>
			<point x="218" y="347" type="line"/>
			<point x="210" y="484" type="line"/>
			<point x="210" y="484" type="line"/>
			<point x="51" y="204" type="line"/>
			<point x="53" y="202" type="line"/>
			<point x="53" y="200" type="line"/>
			<point x="133" y="200" type="line"/>
			<point x="133" y="202" type="line"/>
			<point x="135" y="201" type="line"/>
		</contour>
	</outline>
</glyph>
<glyph name="rt.liga" format="2">
	<advance width="704"/>
	<outline>
		<contour>
			<point x="143" y="484" type="line"/>
			<point x="58" y="484" type="line"/>
			<point x="58" y="3" type="line"/>
			<point x="58" y="0" type="line"/>
			<point x="61" y="0" type="line"/>
			<point x="100" y="0" type="line"/>
			<point x="140" y="0" type="line"/>
			<point x="143" y="0" type="line"/>
			<point x="143" y="3" type="line"/>
			<point x="143" y="282" type="line" smooth="yes"/>
			<point x="143" y="346"/>
			<point x="193" y="398"/>
			<point x="257" y="398" type="curve" smooth="yes"/>
			<point x="510" y="398" type="line"/>
			<point x="510" y="481" type="line"/>
			<point x="510" y="484" type="line"/>
			<point x="508" y="484" type="line"/>
			<point x="260" y="484" type="line"/>
			<point x="257" y="484" type="line" smooth="yes"/>
			<point x="214" y="483"/>
			<point x="175" y="470"/>
			<point x="143" y="447" type="curve"/>
		</contour>
		<component base="t" xOffset="352"/>
	</outline>
</glyph>
<glyph name="seven.osf" format="2">
	<advance width="498"/>
	<outline>
		<contour>
			<point x="61" y="-200" type="line"/>
			<point x="157" y="-200" type="line"/>
			<point x="452" y="483" type="line"/>
			<point x="46" y="483" type="line"/>
			<point x="46" y="397" type="line"/>
			<point x="318" y="397" type="line"/>
		</contour>
	</outline>
</glyph>
<glyph name="st.liga" format="2">
	<advance width="852"/>
	<outline>
		<contour>
			<point x="251" y="484" type="line"/>
			<point x="249" y="484" type="line" smooth="yes"/>
			<point x="139" y="484"/>
			<point x="50" y="393"/>
			<point x="50" y="282" type="curve" smooth="yes"/>
			<point x="50" y="202" type="line"/>
			<point x="50" y="199" type="line"/>
			<point x="52" y="199" type="line"/>
			<point x="251" y="199" type="line"/>
			<point x="364" y="199" type="line"/>
			<point x="362" y="138"/>
			<point x="312" y="87"/>
			<point x="249" y="86" type="curve" smooth="yes"/>
			<point x="248" y="85"/>
			<point x="247" y="86"/>
			<point x="246" y="86" type="curve" smooth="yes"/>
			<point x="52" y="86" type="line"/>
			<point x="50" y="86" type="line"/>
			<point x="50" y="83" type="line"/>
			<point x="50" y="3" type="line"/>
			<point x="50" y="0" type="line"/>
			<point x="52" y="0" type="line"/>
			<point x="147" y="0" type="line"/>
			<point x="246" y="0" type="line" smooth="yes"/>
			<point x="247" y="0"/>
			<point x="248" y="0"/>
			<point x="249" y="0" type="curve" smooth="yes"/>
			<point x="360" y="2"/>
			<point x="450" y="91"/>
			<point x="450" y="202" type="curve" smooth="yes"/>
			<point x="450" y="282" type="line"/>
			<point x="450" y="285" type="line"/>
			<point x="447" y="285" type="line"/>
			<point x="135" y="285" type="line"/>
			<point x="137" y="347"/>
			<point x="187" y="398"/>
			<point x="249" y="398" type="curve" smooth="yes"/>
			<point x="251" y="398" type="line"/>
			<point x="347" y="398" type="line"/>
			<point x="679" y="398" type="line"/>
			<point x="682" y="398" type="line"/>
			<point x="682" y="401" type="line"/>
			<point x="682" y="481" type="line"/>
			<point x="682" y="484" type="line"/>
			<point x="679" y="484" type="line"/>
		</contour>
		<component base="t" xOffset="500"/>
	</outline>
</glyph>
<glyph name="three.osf" format="2">
	<advance width="499"/>
	<outline>
		<contour>
			<point x="67" y="484" type="line"/>
			<point x="67" y="482" type="line"/>
			<point x="67" y="402" type="line"/>
			<point x="67" y="399" type="line"/>
			<point x="69" y="399" type="line"/>
			<point x="209" y="399" type="line"/>
			<point x="293" y="399" type="line"/>
			<point x="169" y="205" type="line"/>
			<point x="167" y="205" type="line"/>
			<point x="167" y="202" type="line"/>
			<point x="167" y="122" type="line"/>
			<point x="167" y="119" type="line"/>
			<point x="170" y="119" type="line"/>
			<point x="231" y="119" type="line"/>
			<point x="250" y="119" type="line" smooth="yes"/>
			<point x="315" y="119"/>
			<point x="367" y="68"/>
			<point x="367" y="3" type="curve" smooth="yes"/>
			<point x="367" y="-62"/>
			<point x="315" y="-113"/>
			<point x="250" y="-113" type="curve" smooth="yes"/>
			<point x="186" y="-113"/>
			<point x="134" y="-62"/>
			<point x="134" y="3" type="curve"/>
			<point x="131" y="3" type="line"/>
			<point x="131" y="6" type="line"/>
			<point x="51" y="6" type="line"/>
			<point x="51" y="3" type="line"/>
			<point x="48" y="3" type="line"/>
			<point x="48" y="-109"/>
			<point x="138" y="-199"/>
			<point x="250" y="-199" type="curve" smooth="yes"/>
			<point x="362" y="-199"/>
			<point x="452" y="-109"/>
			<point x="452" y="3" type="curve" smooth="yes"/>
			<point x="452" y="112"/>
			<point x="366" y="205"/>
			<point x="257" y="205" type="curve" smooth="yes"/>
			<point x="255" y="205" type="line"/>
			<point x="429" y="480" type="line"/>
			<point x="427" y="482" type="line"/>
			<point x="427" y="484" type="line"/>
			<point x="351" y="484" type="line"/>
			<point x="348" y="484" type="line"/>
			<point x="69" y="484" type="line"/>
		</contour>
	</outline>
</glyph>
<glyph name="two.osf" format="2">
	<advance width="500"/>
	<outline>
		<contour>
			<point x="232" y="86" type="line"/>
			<point x="134" y="87" type="line"/>
			<point x="48" y="5" type="line"/>
			<point x="50" y="3" type="line"/>
			<point x="50" y="0" type="line"/>
			<point x="127" y="0" type="line"/>
			<point x="130" y="0" type="line"/>
			<point x="290" y="0" type="line"/>
			<point x="450" y="0" type="line"/>
			<point x="452" y="0" type="line"/>
			<point x="452" y="3" type="line"/>
			<point x="452" y="83" type="line"/>
			<point x="452" y="86" type="line"/>
			<point x="450" y="86" type="line"/>
			<point x="232" y="86" type="line"/>
		</contour>
		<contour>
			<point x="243" y="166" type="curve"/>
			<point x="243" y="80" type="line"/>
			<point x="353" y="80"/>
			<point x="443" y="171"/>
			<point x="443" y="282" type="curve" smooth="yes"/>
			<point x="443" y="394"/>
			<point x="351" y="484"/>
			<point x="241" y="484" type="curve" smooth="yes"/>
			<point x="129" y="484"/>
			<point x="37" y="396"/>
			<point x="38" y="279" type="curve"/>
			<point x="123" y="279" type="line"/>
			<point x="123" y="349"/>
			<point x="177" y="398"/>
			<point x="241" y="398" type="curve" smooth="yes"/>
			<point x="304" y="398"/>
			<point x="357" y="347"/>
			<point x="357" y="282" type="curve" smooth="yes"/>
			<point x="357" y="218"/>
			<point x="306" y="166"/>
		</contour>
	</outline>
</glyph>
